# Blender 3.1.0
# www.blender.org
mtllib DoorOneHandler.mtl
o Cylinder
v 0.000000 0.045000 -0.100000
v 0.000000 0.045000 0.100000
v 0.002169 0.044505 -0.100000
v 0.002169 0.044505 0.100000
v 0.003909 0.043117 -0.100000
v 0.003909 0.043117 0.100000
v 0.004875 0.041113 -0.100000
v 0.004875 0.041113 0.100000
v 0.004875 0.038887 -0.100000
v 0.004875 0.038887 0.100000
v 0.003909 0.036883 -0.100000
v 0.003909 0.036883 0.100000
v 0.002169 0.035495 -0.100000
v 0.002169 0.035495 0.100000
v -0.000000 0.035000 -0.100000
v -0.000000 0.035000 0.100000
v -0.002169 0.035495 -0.100000
v -0.002169 0.035495 0.100000
v -0.003909 0.036883 -0.100000
v -0.003909 0.036883 0.100000
v -0.004875 0.038887 -0.100000
v -0.004875 0.038887 0.100000
v -0.004875 0.041113 -0.100000
v -0.004875 0.041113 0.100000
v -0.003909 0.043117 -0.100000
v -0.003909 0.043117 0.100000
v -0.002169 0.044505 -0.100000
v -0.002169 0.044505 0.100000
v 0.000000 0.032500 -0.010000
v 0.000000 0.047500 -0.010000
v 0.004339 0.032500 -0.009010
v 0.004339 0.047500 -0.009010
v 0.007818 0.032500 -0.006235
v 0.007818 0.047500 -0.006235
v 0.009749 0.032500 -0.002225
v 0.009749 0.047500 -0.002225
v 0.009749 0.032500 0.002225
v 0.009749 0.047500 0.002225
v 0.007818 0.032500 0.006235
v 0.007818 0.047500 0.006235
v 0.004339 0.032500 0.009010
v 0.004339 0.047500 0.009010
v -0.000000 0.032500 0.010000
v -0.000000 0.047500 0.010000
v -0.004339 0.032500 0.009010
v -0.004339 0.047500 0.009010
v -0.007818 0.032500 0.006235
v -0.007818 0.047500 0.006235
v -0.009749 0.032500 0.002225
v -0.009749 0.047500 0.002225
v -0.009749 0.032500 -0.002225
v -0.009749 0.047500 -0.002225
v -0.007818 0.032500 -0.006235
v -0.007818 0.047500 -0.006235
v -0.004339 0.032500 -0.009010
v -0.004339 0.047500 -0.009010
v 0.000000 0.013000 -0.006000
v 0.000000 0.053000 -0.006000
v 0.003000 0.013000 -0.005196
v 0.003000 0.053000 -0.005196
v 0.005196 0.013000 -0.003000
v 0.005196 0.053000 -0.003000
v 0.006000 0.013000 0.000000
v 0.006000 0.053000 0.000000
v 0.005196 0.013000 0.003000
v 0.005196 0.053000 0.003000
v 0.003000 0.013000 0.005196
v 0.003000 0.053000 0.005196
v -0.000000 0.013000 0.006000
v -0.000000 0.053000 0.006000
v -0.003000 0.013000 0.005196
v -0.003000 0.053000 0.005196
v -0.005196 0.013000 0.003000
v -0.005196 0.053000 0.003000
v -0.006000 0.013000 -0.000000
v -0.006000 0.053000 -0.000000
v -0.005196 0.013000 -0.003000
v -0.005196 0.053000 -0.003000
v -0.003000 0.013000 -0.005196
v -0.003000 0.053000 -0.005196
v 0.004000 0.040000 -0.004000
v 0.014000 0.040000 -0.004000
v 0.004000 0.036536 -0.002000
v 0.014000 0.036536 -0.002000
v 0.004000 0.036536 0.002000
v 0.014000 0.036536 0.002000
v 0.004000 0.040000 0.004000
v 0.014000 0.040000 0.004000
v 0.004000 0.043464 0.002000
v 0.014000 0.043464 0.002000
v 0.004000 0.043464 -0.002000
v 0.014000 0.043464 -0.002000
vn -0.0000 0.7510 -0.6603
vn -0.0000 0.7510 0.6603
vn 0.3259 0.6766 0.6603
vn 0.3259 0.6766 -0.6603
vn 0.5872 0.4683 0.6603
vn 0.5872 0.4683 -0.6603
vn 0.7322 0.1671 0.6603
vn 0.7322 0.1671 -0.6603
vn 0.7322 -0.1671 0.6603
vn 0.7322 -0.1671 -0.6603
vn 0.5872 -0.4683 0.6603
vn 0.5872 -0.4683 -0.6603
vn 0.3259 -0.6766 0.6603
vn 0.3259 -0.6766 -0.6603
vn -0.0000 -0.7510 0.6603
vn -0.0000 -0.7510 -0.6603
vn -0.3259 -0.6766 0.6603
vn -0.3259 -0.6766 -0.6603
vn -0.5872 -0.4683 0.6603
vn -0.5872 -0.4683 -0.6603
vn -0.7322 -0.1671 0.6603
vn -0.7322 -0.1671 -0.6603
vn -0.7322 0.1671 0.6603
vn -0.7322 0.1671 -0.6603
vn -0.5872 0.4683 0.6603
vn -0.5872 0.4683 -0.6603
vn -0.0000 -0.0000 1.0000
vn -0.3259 0.6766 0.6603
vn -0.3259 0.6766 -0.6603
vn -0.0000 -0.0000 -1.0000
vn -0.0000 -0.6603 -0.7510
vn -0.0000 0.6603 -0.7510
vn 0.3259 0.6603 -0.6766
vn 0.3259 -0.6603 -0.6766
vn 0.5872 0.6603 -0.4683
vn 0.5872 -0.6603 -0.4683
vn 0.7322 0.6603 -0.1671
vn 0.7322 -0.6603 -0.1671
vn 0.7322 0.6603 0.1671
vn 0.7322 -0.6603 0.1671
vn 0.5872 0.6603 0.4683
vn 0.5872 -0.6603 0.4683
vn 0.3259 0.6603 0.6766
vn 0.3259 -0.6603 0.6766
vn -0.0000 0.6603 0.7510
vn -0.0000 -0.6603 0.7510
vn -0.3259 0.6603 0.6766
vn -0.3259 -0.6603 0.6766
vn -0.5872 0.6603 0.4683
vn -0.5872 -0.6603 0.4683
vn -0.7322 0.6603 0.1671
vn -0.7322 -0.6603 0.1671
vn -0.7322 0.6603 -0.1671
vn -0.7322 -0.6603 -0.1671
vn -0.5872 0.6603 -0.4683
vn -0.5872 -0.6603 -0.4683
vn -0.0000 1.0000 -0.0000
vn -0.3259 0.6603 -0.6766
vn -0.3259 -0.6603 -0.6766
vn -0.0000 -1.0000 -0.0000
vn -0.0000 -0.6532 -0.7572
vn -0.0000 0.6532 -0.7572
vn 0.3786 0.6532 -0.6557
vn 0.3786 -0.6532 -0.6557
vn 0.6557 0.6532 -0.3786
vn 0.6557 -0.6532 -0.3786
vn 0.7572 0.6532 -0.0000
vn 0.7572 -0.6532 -0.0000
vn 0.6557 0.6532 0.3786
vn 0.6557 -0.6532 0.3786
vn 0.3786 0.6532 0.6557
vn 0.3786 -0.6532 0.6557
vn -0.0000 0.6532 0.7572
vn -0.0000 -0.6532 0.7572
vn -0.3786 0.6532 0.6557
vn -0.3786 -0.6532 0.6557
vn -0.6557 0.6532 0.3786
vn -0.6557 -0.6532 0.3786
vn -0.7572 0.6532 -0.0000
vn -0.7572 -0.6532 -0.0000
vn -0.6557 0.6532 -0.3786
vn -0.6557 -0.6532 -0.3786
vn -0.3786 0.6532 -0.6557
vn -0.3786 -0.6532 -0.6557
vn -0.0000 -0.5000 -0.8660
vn -0.0000 -0.5000 0.8660
vn -0.0000 0.5000 0.8660
vn 1.0000 -0.0000 -0.0000
vn -0.0000 0.5000 -0.8660
vn -1.0000 -0.0000 -0.0000
vt 1.000000 0.500000
vt -0.000000 0.500000
vt 0.750000 0.490000
vt 1.000000 1.000000
vt 0.250000 0.490000
vt -0.000000 1.000000
vt 0.928571 0.500000
vt 0.854132 0.466233
vt 0.928571 1.000000
vt 0.354132 0.466233
vt 0.857143 0.500000
vt 0.937640 0.399638
vt 0.857143 1.000000
vt 0.437640 0.399638
vt 0.785714 0.500000
vt 0.983983 0.303405
vt 0.785714 1.000000
vt 0.483983 0.303405
vt 0.714286 0.500000
vt 0.983983 0.196595
vt 0.714286 1.000000
vt 0.483983 0.196595
vt 0.642857 0.500000
vt 0.937640 0.100362
vt 0.642857 1.000000
vt 0.437640 0.100362
vt 0.571428 0.500000
vt 0.854132 0.033767
vt 0.571428 1.000000
vt 0.354132 0.033767
vt 0.500000 0.500000
vt 0.750000 0.010000
vt 0.500000 1.000000
vt 0.250000 0.010000
vt 0.428571 0.500000
vt 0.645868 0.033767
vt 0.428571 1.000000
vt 0.145868 0.033767
vt 0.357143 0.500000
vt 0.562360 0.100362
vt 0.357143 1.000000
vt 0.062360 0.100362
vt 0.285714 0.500000
vt 0.516017 0.196595
vt 0.285714 1.000000
vt 0.016017 0.196595
vt 0.214286 0.500000
vt 0.516017 0.303405
vt 0.214286 1.000000
vt 0.016017 0.303405
vt 0.142857 0.500000
vt 0.562360 0.399638
vt 0.062360 0.399638
vt 0.142857 1.000000
vt 0.071428 0.500000
vt 0.645868 0.466233
vt 0.145868 0.466233
vt 0.071428 1.000000
vt 1.000000 0.500000
vt -0.000000 0.500000
vt 0.750000 0.490000
vt 1.000000 1.000000
vt 0.250000 0.490000
vt -0.000000 1.000000
vt 0.928571 0.500000
vt 0.854132 0.466233
vt 0.928571 1.000000
vt 0.354132 0.466233
vt 0.857143 0.500000
vt 0.937640 0.399638
vt 0.857143 1.000000
vt 0.437640 0.399638
vt 0.785714 0.500000
vt 0.983983 0.303405
vt 0.785714 1.000000
vt 0.483983 0.303405
vt 0.714286 0.500000
vt 0.983983 0.196595
vt 0.714286 1.000000
vt 0.483983 0.196595
vt 0.642857 0.500000
vt 0.937640 0.100362
vt 0.642857 1.000000
vt 0.437640 0.100362
vt 0.571428 0.500000
vt 0.854132 0.033767
vt 0.571428 1.000000
vt 0.354132 0.033767
vt 0.500000 0.500000
vt 0.750000 0.010000
vt 0.500000 1.000000
vt 0.250000 0.010000
vt 0.428571 0.500000
vt 0.645868 0.033767
vt 0.428571 1.000000
vt 0.145868 0.033767
vt 0.357143 0.500000
vt 0.562360 0.100362
vt 0.357143 1.000000
vt 0.062360 0.100362
vt 0.285714 0.500000
vt 0.516017 0.196595
vt 0.285714 1.000000
vt 0.016017 0.196595
vt 0.214286 0.500000
vt 0.516017 0.303405
vt 0.214286 1.000000
vt 0.016017 0.303405
vt 0.142857 0.500000
vt 0.562360 0.399638
vt 0.062360 0.399638
vt 0.142857 1.000000
vt 0.071428 0.500000
vt 0.645868 0.466233
vt 0.145868 0.466233
vt 0.071428 1.000000
vt 1.000000 0.500000
vt 0.000000 0.500000
vt 0.750000 0.490000
vt 1.000000 1.000000
vt 0.250000 0.490000
vt 0.000000 1.000000
vt 0.916667 0.500000
vt 0.870000 0.457846
vt 0.916667 1.000000
vt 0.370000 0.457846
vt 0.833333 0.500000
vt 0.957846 0.370000
vt 0.833333 1.000000
vt 0.457846 0.370000
vt 0.750000 0.500000
vt 0.990000 0.250000
vt 0.750000 1.000000
vt 0.490000 0.250000
vt 0.666667 0.500000
vt 0.957846 0.130000
vt 0.666667 1.000000
vt 0.457846 0.130000
vt 0.583333 0.500000
vt 0.870000 0.042154
vt 0.583333 1.000000
vt 0.370000 0.042154
vt 0.500000 0.500000
vt 0.750000 0.010000
vt 0.500000 1.000000
vt 0.250000 0.010000
vt 0.416667 0.500000
vt 0.630000 0.042154
vt 0.416667 1.000000
vt 0.130000 0.042154
vt 0.333333 0.500000
vt 0.542154 0.130000
vt 0.333333 1.000000
vt 0.042154 0.130000
vt 0.250000 0.500000
vt 0.510000 0.250000
vt 0.250000 1.000000
vt 0.010000 0.250000
vt 0.166667 0.500000
vt 0.542154 0.370000
vt 0.042154 0.370000
vt 0.166667 1.000000
vt 0.083333 0.500000
vt 0.630000 0.457846
vt 0.130000 0.457846
vt 0.083333 1.000000
vt 1.000000 0.500000
vt -0.000000 0.500000
vt 0.750000 0.490000
vt 1.000000 1.000000
vt 0.250000 0.490000
vt -0.000000 1.000000
vt 0.833333 0.500000
vt 0.957846 0.370000
vt 0.833333 1.000000
vt 0.457846 0.370000
vt 0.666667 0.500000
vt 0.957846 0.130000
vt 0.666667 1.000000
vt 0.457846 0.130000
vt 0.500000 0.500000
vt 0.750000 0.010000
vt 0.500000 1.000000
vt 0.250000 0.010000
vt 0.333333 0.500000
vt 0.542154 0.130000
vt 0.042154 0.130000
vt 0.333333 1.000000
vt 0.166667 0.500000
vt 0.542154 0.370000
vt 0.042154 0.370000
vt 0.166667 1.000000
s 1
f 1/1/1 2/4/2 4/9/3 3/7/4
f 3/7/4 4/9/3 6/13/5 5/11/6
f 5/11/6 6/13/5 8/17/7 7/15/8
f 7/15/8 8/17/7 10/21/9 9/19/10
f 9/19/10 10/21/9 12/25/11 11/23/12
f 11/23/12 12/25/11 14/29/13 13/27/14
f 13/27/14 14/29/13 16/33/15 15/31/16
f 15/31/16 16/33/15 18/37/17 17/35/18
f 17/35/18 18/37/17 20/41/19 19/39/20
f 19/39/20 20/41/19 22/45/21 21/43/22
f 21/43/22 22/45/21 24/49/23 23/47/24
f 23/47/24 24/49/23 26/54/25 25/51/26
s 0
f 4/10/27 2/5/27 28/57/27 26/53/27 24/50/27 22/46/27 20/42/27 18/38/27 16/34/27 14/30/27 12/26/27 10/22/27 8/18/27 6/14/27
s 1
f 25/51/26 26/54/25 28/58/28 27/55/29
f 27/55/29 28/58/28 2/6/2 1/2/1
s 0
f 1/3/30 3/8/30 5/12/30 7/16/30 9/20/30 11/24/30 13/28/30 15/32/30 17/36/30 19/40/30 21/44/30 23/48/30 25/52/30 27/56/30
s 1
f 29/59/31 30/62/32 32/67/33 31/65/34
f 31/65/34 32/67/33 34/71/35 33/69/36
f 33/69/36 34/71/35 36/75/37 35/73/38
f 35/73/38 36/75/37 38/79/39 37/77/40
f 37/77/40 38/79/39 40/83/41 39/81/42
f 39/81/42 40/83/41 42/87/43 41/85/44
f 41/85/44 42/87/43 44/91/45 43/89/46
f 43/89/46 44/91/45 46/95/47 45/93/48
f 45/93/48 46/95/47 48/99/49 47/97/50
f 47/97/50 48/99/49 50/103/51 49/101/52
f 49/101/52 50/103/51 52/107/53 51/105/54
f 51/105/54 52/107/53 54/112/55 53/109/56
s 0
f 32/68/57 30/63/57 56/115/57 54/111/57 52/108/57 50/104/57 48/100/57 46/96/57 44/92/57 42/88/57 40/84/57 38/80/57 36/76/57 34/72/57
s 1
f 53/109/56 54/112/55 56/116/58 55/113/59
f 55/113/59 56/116/58 30/64/32 29/60/31
s 0
f 29/61/60 31/66/60 33/70/60 35/74/60 37/78/60 39/82/60 41/86/60 43/90/60 45/94/60 47/98/60 49/102/60 51/106/60 53/110/60 55/114/60
s 1
f 57/117/61 58/120/62 60/125/63 59/123/64
f 59/123/64 60/125/63 62/129/65 61/127/66
f 61/127/66 62/129/65 64/133/67 63/131/68
f 63/131/68 64/133/67 66/137/69 65/135/70
f 65/135/70 66/137/69 68/141/71 67/139/72
f 67/139/72 68/141/71 70/145/73 69/143/74
f 69/143/74 70/145/73 72/149/75 71/147/76
f 71/147/76 72/149/75 74/153/77 73/151/78
f 73/151/78 74/153/77 76/157/79 75/155/80
f 75/155/80 76/157/79 78/162/81 77/159/82
s 0
f 60/126/57 58/121/57 80/165/57 78/161/57 76/158/57 74/154/57 72/150/57 70/146/57 68/142/57 66/138/57 64/134/57 62/130/57
s 1
f 77/159/82 78/162/81 80/166/83 79/163/84
f 79/163/84 80/166/83 58/122/62 57/118/61
s 0
f 57/119/60 59/124/60 61/128/60 63/132/60 65/136/60 67/140/60 69/144/60 71/148/60 73/152/60 75/156/60 77/160/60 79/164/60
f 81/167/85 82/170/85 84/175/85 83/173/85
f 83/173/60 84/175/60 86/179/60 85/177/60
f 85/177/86 86/179/86 88/183/86 87/181/86
f 87/181/87 88/183/87 90/188/87 89/185/87
f 84/176/88 82/171/88 92/191/88 90/187/88 88/184/88 86/180/88
f 89/185/57 90/188/57 92/192/57 91/189/57
f 91/189/89 92/192/89 82/172/89 81/168/89
f 81/169/90 83/174/90 85/178/90 87/182/90 89/186/90 91/190/90
