# Blender v2.91.0 OBJ File: 'door.blend'
# www.blender.org
mtllib door.mtl
o Cube.001
v -0.200000 -0.020000 0.200000
v -0.200000 -0.020000 -0.200000
v 0.200000 -0.020000 0.200000
v 0.200000 -0.020000 -0.200000
v 0.178000 -0.020000 0.200000
v -0.178000 -0.020000 0.200000
v 0.000000 0.020000 -0.180000
v 0.010680 0.020000 -0.180000
v 0.010680 0.020000 0.180000
v -0.010680 0.020000 -0.180000
v -0.010680 0.020000 0.180000
v 0.178000 0.020000 -0.180000
v 0.178000 0.020000 0.180000
v -0.178000 0.020000 -0.180000
v -0.178000 0.020000 0.180000
v 0.010680 0.020000 -0.010800
v 0.010680 0.020000 0.010800
v -0.010680 0.020000 -0.010800
v -0.010680 0.020000 0.010800
v 0.178000 0.020000 -0.010800
v 0.178000 0.020000 0.010800
v -0.178000 0.020000 -0.010800
v -0.178000 0.020000 0.010800
v 0.178000 0.022430 0.180000
v 0.010680 0.022430 0.180000
v -0.178000 0.022430 -0.180000
v -0.010680 0.022430 -0.180000
v 0.010680 0.022430 -0.180000
v 0.178000 0.022430 -0.180000
v -0.010680 0.022430 0.180000
v -0.178000 0.022430 0.180000
v 0.010680 0.022430 -0.010800
v 0.010680 0.022430 0.010800
v -0.010680 0.022430 -0.010800
v -0.010680 0.022430 0.010800
v 0.178000 0.022430 -0.010800
v 0.178000 0.022430 0.010800
v -0.178000 0.022430 -0.010800
v -0.178000 0.022430 0.010800
v 0.122227 0.022430 0.180000
v 0.066453 0.022430 0.180000
v -0.122227 0.022430 -0.180000
v -0.066453 0.022430 -0.180000
v 0.066453 0.022430 -0.180000
v 0.122227 0.022430 -0.180000
v -0.066453 0.022430 0.180000
v -0.122227 0.022430 0.180000
v 0.010680 0.022430 -0.123600
v 0.010680 0.022430 -0.067200
v 0.010680 0.022430 0.123600
v 0.010680 0.022430 0.067200
v -0.010680 0.022430 -0.123600
v -0.010680 0.022430 -0.067200
v -0.010680 0.022430 0.123600
v -0.010680 0.022430 0.067200
v 0.178000 0.022430 -0.123600
v 0.178000 0.022430 -0.067200
v 0.178000 0.022430 0.123600
v 0.178000 0.022430 0.067200
v -0.178000 0.022430 -0.123600
v -0.178000 0.022430 -0.067200
v -0.178000 0.022430 0.123600
v -0.178000 0.022430 0.067200
v 0.122227 0.022430 0.010800
v 0.066453 0.022430 0.010800
v -0.122227 0.022430 -0.010800
v -0.066453 0.022430 -0.010800
v 0.066453 0.022430 -0.010800
v 0.122227 0.022430 -0.010800
v -0.066453 0.022430 0.010800
v -0.122227 0.022430 0.010800
v -0.066453 0.022430 0.067200
v -0.066453 0.022430 0.123600
v -0.122227 0.022430 0.067200
v -0.122227 0.022430 0.123600
v 0.122227 0.022430 -0.123600
v 0.122227 0.022430 -0.067200
v 0.066453 0.022430 -0.123600
v 0.066453 0.022430 -0.067200
v -0.066453 0.022430 -0.123600
v -0.066453 0.022430 -0.067200
v -0.122227 0.022430 -0.123600
v -0.122227 0.022430 -0.067200
v 0.122227 0.022430 0.067200
v 0.122227 0.022430 0.123600
v 0.066453 0.022430 0.067200
v 0.066453 0.022430 0.123600
v 0.122227 0.025134 0.180000
v 0.066453 0.025134 0.180000
v -0.122227 0.025134 -0.180000
v -0.066453 0.025134 -0.180000
v 0.010680 0.025134 0.123600
v 0.010680 0.025134 0.067200
v 0.178000 0.025134 -0.123600
v 0.178000 0.025134 -0.067200
v -0.178000 0.025134 -0.123600
v -0.178000 0.025134 -0.067200
v -0.178000 0.025134 0.123600
v -0.178000 0.025134 0.067200
v 0.066453 0.025134 -0.010800
v 0.122227 0.025134 -0.010800
v -0.066453 0.025134 0.010800
v -0.122227 0.025134 0.010800
v -0.066453 0.025134 0.067200
v -0.066453 0.025134 0.123600
v -0.122227 0.025134 0.067200
v -0.122227 0.025134 0.123600
v 0.122227 0.025134 -0.067200
v 0.122227 0.025134 -0.123600
v 0.066453 0.025134 -0.067200
v 0.066453 0.025134 -0.123600
v -0.066453 0.025134 -0.123600
v -0.066453 0.025134 -0.067200
v -0.122227 0.025134 -0.123600
v -0.122227 0.025134 -0.067200
v 0.122227 0.025134 0.123600
v 0.122227 0.025134 0.067200
v 0.066453 0.025134 0.123600
v 0.066453 0.025134 0.067200
v 0.200000 0.020000 -0.200000
v -0.200000 0.020000 -0.200000
v -0.200000 0.020000 0.200000
v 0.200000 0.020000 0.200000
vt 0.909150 0.000000
vt 0.859150 0.000000
vt 0.859150 0.500000
vt 0.909150 0.500000
vt 0.909150 0.472500
vt 0.909150 0.027500
vt 0.759150 0.000000
vt 0.759150 0.500000
vt 0.809150 0.500000
vt 0.809150 0.000000
vt 0.709150 0.000000
vt 0.709150 0.500000
vt 0.759150 0.500000
vt 0.759150 0.000000
vt 0.250000 0.025000
vt 0.236650 0.025000
vt 0.236650 0.236500
vt 0.263350 0.236500
vt 0.263350 0.025000
vt 0.000000 0.500000
vt 0.000000 1.000000
vt 0.027500 1.000000
vt 0.472500 1.000000
vt 0.500000 1.000000
vt 0.500000 0.500000
vt 0.859150 0.000000
vt 0.809150 0.000000
vt 0.809150 0.500000
vt 0.859150 0.500000
vt 0.027500 0.236500
vt 0.027500 0.263500
vt 0.236650 0.263500
vt 0.472500 0.236500
vt 0.263350 0.263500
vt 0.472500 0.263500
vt 0.472500 0.025000
vt 0.500000 0.000000
vt 0.000000 0.000000
vt 0.027500 0.025000
vt 0.472500 0.475000
vt 0.500000 0.500000
vt 0.000000 0.500000
vt 0.027500 0.475000
vt 0.263350 0.475000
vt 0.236650 0.475000
vt 0.912224 0.920650
vt 0.912224 0.711500
vt 0.909187 0.711500
vt 0.909187 0.781217
vt 0.909187 0.850933
vt 0.909187 0.920650
vt 0.915262 0.923000
vt 0.915262 0.711500
vt 0.912225 0.711500
vt 0.912225 0.782000
vt 0.912225 0.852500
vt 0.912225 0.923000
vt 0.861418 0.711500
vt 0.861418 0.920650
vt 0.864456 0.920650
vt 0.864456 0.850933
vt 0.864456 0.781217
vt 0.864456 0.711500
vt 0.877290 0.920650
vt 0.877290 0.711500
vt 0.874252 0.711500
vt 0.874252 0.781217
vt 0.874252 0.850933
vt 0.874252 0.920650
vt 0.918300 0.641000
vt 0.848583 0.641000
vt 0.848583 0.711500
vt 0.918300 0.711500
vt 0.569717 0.775500
vt 0.500000 0.775500
vt 0.500000 0.846000
vt 0.569717 0.846000
vt 0.569717 0.352500
vt 0.500000 0.352500
vt 0.500000 0.423000
vt 0.569717 0.423000
vt 0.569717 0.141000
vt 0.500000 0.141000
vt 0.500000 0.211500
vt 0.569717 0.211500
vt 0.848583 0.711500
vt 0.848583 0.920650
vt 0.851621 0.920650
vt 0.851621 0.850933
vt 0.851621 0.781217
vt 0.851621 0.711500
vt 0.909187 0.920650
vt 0.909187 0.711500
vt 0.906149 0.711500
vt 0.906149 0.781217
vt 0.906149 0.850933
vt 0.906149 0.920650
vt 0.909150 0.000000
vt 0.909150 0.211500
vt 0.912188 0.211500
vt 0.912188 0.141000
vt 0.912188 0.070500
vt 0.912188 0.000000
vt 0.855001 0.711500
vt 0.855001 0.920650
vt 0.858038 0.920650
vt 0.858038 0.850933
vt 0.858038 0.781217
vt 0.858038 0.711500
vt 0.915567 0.211500
vt 0.915567 0.423000
vt 0.918605 0.423000
vt 0.918605 0.352500
vt 0.918605 0.282000
vt 0.918605 0.211500
vt 0.909150 0.211500
vt 0.909150 0.423000
vt 0.912188 0.423000
vt 0.912188 0.352500
vt 0.912188 0.282000
vt 0.912188 0.211500
vt 0.867835 0.711500
vt 0.867835 0.920650
vt 0.870873 0.920650
vt 0.870873 0.850933
vt 0.870873 0.781217
vt 0.870873 0.711500
vt 0.921338 0.923000
vt 0.921338 0.711500
vt 0.918300 0.711500
vt 0.918300 0.782000
vt 0.918300 0.852500
vt 0.918300 0.923000
vt 0.918300 0.923000
vt 0.918300 0.711500
vt 0.915262 0.711500
vt 0.915262 0.782000
vt 0.915262 0.852500
vt 0.915262 0.923000
vt 0.915567 0.000000
vt 0.915567 0.211500
vt 0.918605 0.211500
vt 0.918605 0.141000
vt 0.918605 0.070500
vt 0.918605 0.000000
vt 0.880328 0.920650
vt 0.880328 0.711500
vt 0.877290 0.711500
vt 0.877290 0.781217
vt 0.877290 0.850933
vt 0.877290 0.920650
vt 0.921338 0.711500
vt 0.921338 0.500000
vt 0.918300 0.500000
vt 0.918300 0.570500
vt 0.918300 0.641000
vt 0.918300 0.711500
vt 0.709150 0.141000
vt 0.639433 0.141000
vt 0.639433 0.211500
vt 0.709150 0.211500
vt 0.709150 0.000000
vt 0.639433 0.000000
vt 0.639433 0.070500
vt 0.709150 0.070500
vt 0.924717 0.569717
vt 0.924717 0.500000
vt 0.921338 0.500000
vt 0.921338 0.569717
vt 0.921984 0.141000
vt 0.921984 0.070500
vt 0.918300 0.570500
vt 0.848583 0.570500
vt 0.848583 0.641000
vt 0.918300 0.641000
vt 0.893846 0.781217
vt 0.893846 0.850933
vt 0.897225 0.850933
vt 0.897225 0.781217
vt 0.709150 0.846000
vt 0.639433 0.846000
vt 0.639433 0.916500
vt 0.709150 0.916500
vt 0.903984 0.920650
vt 0.903984 0.850933
vt 0.900605 0.850933
vt 0.900605 0.920650
vt 0.709150 0.211500
vt 0.639433 0.211500
vt 0.639433 0.282000
vt 0.709150 0.282000
vt 0.897225 0.711500
vt 0.897225 0.781217
vt 0.900605 0.781217
vt 0.900605 0.711500
vt 0.569717 0.211500
vt 0.569717 0.282000
vt 0.921984 0.352500
vt 0.921984 0.282000
vt 0.500000 0.211500
vt 0.500000 0.282000
vt 0.709150 0.775500
vt 0.639433 0.775500
vt 0.639433 0.846000
vt 0.709150 0.846000
vt 0.709150 0.634500
vt 0.639433 0.634500
vt 0.639433 0.705000
vt 0.709150 0.705000
vt 0.897225 0.921433
vt 0.897225 0.850933
vt 0.893846 0.850933
vt 0.893846 0.921433
vt 0.893846 0.711500
vt 0.897225 0.711500
vt 0.918300 0.500000
vt 0.848583 0.500000
vt 0.848583 0.570500
vt 0.918300 0.570500
vt 0.883707 0.852500
vt 0.883707 0.782000
vt 0.880328 0.782000
vt 0.880328 0.852500
vt 0.709150 0.564000
vt 0.639433 0.564000
vt 0.639433 0.634500
vt 0.709150 0.634500
vt 0.915567 0.141000
vt 0.915567 0.070500
vt 0.709150 0.423000
vt 0.639433 0.423000
vt 0.639433 0.493500
vt 0.709150 0.493500
vt 0.569717 0.423000
vt 0.569717 0.493500
vt 0.890466 0.852500
vt 0.890466 0.782000
vt 0.887087 0.782000
vt 0.887087 0.852500
vt 0.500000 0.423000
vt 0.500000 0.493500
vt 0.883707 0.711500
vt 0.880328 0.711500
vt 0.848583 0.641000
vt 0.778867 0.641000
vt 0.778867 0.711500
vt 0.848583 0.711500
vt 0.778867 0.782000
vt 0.848583 0.782000
vt 0.709150 0.711500
vt 0.709150 0.782000
vt 0.569717 0.916500
vt 0.639433 0.916500
vt 0.639433 0.846000
vt 0.569717 0.846000
vt 0.500000 0.987000
vt 0.569717 0.987000
vt 0.500000 0.916500
vt 0.639433 0.987000
vt 0.848583 0.500000
vt 0.778867 0.500000
vt 0.778867 0.570500
vt 0.848583 0.570500
vt 0.778867 0.641000
vt 0.848583 0.641000
vt 0.709150 0.570500
vt 0.709150 0.641000
vt 0.709150 0.852500
vt 0.778867 0.852500
vt 0.778867 0.782000
vt 0.709150 0.782000
vt 0.709150 0.923000
vt 0.778867 0.923000
vt 0.848583 0.923000
vt 0.848583 0.852500
vt 0.897225 0.850933
vt 0.900605 0.850933
vt 0.887087 0.922217
vt 0.887087 0.852500
vt 0.883707 0.852500
vt 0.883707 0.922217
vt 0.900605 0.920650
vt 0.900605 0.850933
vt 0.897225 0.850933
vt 0.897225 0.920650
vt 0.924717 0.639433
vt 0.921338 0.639433
vt 0.900605 0.781217
vt 0.900605 0.850933
vt 0.903984 0.850933
vt 0.903984 0.781217
vt 0.887087 0.852500
vt 0.887087 0.782000
vt 0.883707 0.782000
vt 0.883707 0.852500
vt 0.855001 0.850933
vt 0.855001 0.781217
vt 0.893846 0.922217
vt 0.893846 0.852500
vt 0.890466 0.852500
vt 0.890466 0.922217
vt 0.874252 0.850933
vt 0.874252 0.781217
vt 0.900605 0.711500
vt 0.903984 0.711500
vt 0.861418 0.850933
vt 0.861418 0.781217
vt 0.887087 0.711500
vt 0.883707 0.711500
vt 0.893846 0.782000
vt 0.893846 0.711500
vt 0.890466 0.711500
vt 0.890466 0.782000
vt 0.915567 0.352500
vt 0.915567 0.282000
vt 0.912529 0.493500
vt 0.912529 0.423000
vt 0.909150 0.423000
vt 0.909150 0.493500
vt 0.915909 0.493500
vt 0.915909 0.423000
vt 0.912529 0.423000
vt 0.912529 0.493500
vt 0.867835 0.850933
vt 0.867835 0.781217
vt 0.893846 0.852500
vt 0.890466 0.852500
vt 0.890466 0.711500
vt 0.887087 0.711500
vt 0.919288 0.493500
vt 0.919288 0.423000
vt 0.915909 0.423000
vt 0.915909 0.493500
vn 0.0000 0.0000 1.0000
vn 1.0000 0.0000 0.0000
vn -1.0000 0.0000 0.0000
vn 0.0000 1.0000 0.0000
vn 0.0000 -1.0000 0.0000
vn 0.0000 0.0000 -1.0000
usemtl None
s off
f 3/1/1 123/2/1 122/3/1 1/4/1 6/5/1 5/6/1
f 120/7/2 123/8/2 3/9/2 4/10/2
f 122/11/3 121/12/3 2/13/3 1/14/3
f 7/15/4 10/16/4 18/17/4 16/18/4 8/19/4
f 4/20/5 3/21/5 5/22/5 6/23/5 1/24/5 2/25/5
f 2/26/6 121/27/6 120/28/6 4/29/6
f 18/17/4 22/30/4 23/31/4 19/32/4
f 20/33/4 16/18/4 17/34/4 21/35/4
f 12/36/4 120/37/4 121/38/4 14/39/4 10/16/4 7/15/4 8/19/4
f 13/40/4 123/41/4 120/37/4 12/36/4 20/33/4 21/35/4
f 122/42/4 15/43/4 23/31/4 22/30/4 14/39/4 121/38/4
f 123/41/4 13/40/4 9/44/4 11/45/4 15/43/4 122/42/4
f 17/34/4 19/32/4 11/45/4 9/44/4
f 22/46/1 18/47/1 34/48/1 67/49/1 66/50/1 38/51/1
f 11/52/2 19/53/2 35/54/2 55/55/2 54/56/2 30/57/2
f 19/58/6 23/59/6 39/60/6 71/61/6 70/62/6 35/63/6
f 21/64/6 17/65/6 33/66/6 65/67/6 64/68/6 37/69/6
f 87/70/4 50/71/4 25/72/4 41/73/4
f 83/74/4 61/75/4 38/76/4 66/77/4
f 79/78/4 49/79/4 32/80/4 68/81/4
f 75/82/4 62/83/4 31/84/4 47/85/4
f 9/86/1 13/87/1 24/88/1 40/89/1 41/90/1 25/91/1
f 15/92/1 11/93/1 30/94/1 46/95/1 47/96/1 31/97/1
f 14/98/3 22/99/3 38/100/3 61/101/3 60/102/3 26/103/3
f 10/104/6 14/105/6 26/106/6 42/107/6 43/108/6 27/109/6
f 23/110/3 15/111/3 31/112/3 62/113/3 63/114/3 39/115/3
f 20/116/2 12/117/2 29/118/2 56/119/2 57/120/2 36/121/2
f 16/122/1 20/123/1 36/124/1 69/125/1 68/126/1 32/127/1
f 8/128/3 16/129/3 32/130/3 49/131/3 48/132/3 28/133/3
f 13/134/2 21/135/2 37/136/2 59/137/2 58/138/2 24/139/2
f 17/140/3 9/141/3 25/142/3 50/143/3 51/144/3 33/145/3
f 12/146/6 8/147/6 28/148/6 44/149/6 45/150/6 29/151/6
f 18/152/2 10/153/2 27/154/2 52/155/2 53/156/2 34/157/2
f 54/158/4 73/159/4 46/160/4 30/161/4
f 73/159/4 75/82/4 47/85/4 46/160/4
f 35/162/4 70/163/4 72/164/4 55/165/4
f 55/165/4 72/164/4 73/159/4 54/158/4
f 83/166/1 81/167/1 113/168/1 115/169/1
f 51/144/3 50/143/3 92/170/3 93/171/3
f 71/172/4 39/173/4 63/174/4 74/175/4
f 86/176/6 51/177/6 93/178/6 119/179/6
f 57/180/4 77/181/4 69/182/4 36/183/4
f 77/184/1 57/185/1 95/186/1 108/187/1
f 29/188/4 45/189/4 76/190/4 56/191/4
f 56/192/6 76/193/6 109/194/6 94/195/6
f 45/189/4 44/196/4 78/197/4 76/190/4
f 63/114/3 62/113/3 98/198/3 99/199/3
f 44/196/4 28/200/4 48/201/4 78/197/4
f 78/197/4 48/201/4 49/79/4 79/78/4
f 53/202/4 81/203/4 67/204/4 34/205/4
f 81/203/4 83/74/4 66/77/4 67/204/4
f 27/206/4 43/207/4 80/208/4 52/209/4
f 52/209/4 80/208/4 81/203/4 53/202/4
f 71/210/3 74/211/3 106/212/3 103/213/3
f 84/214/6 86/176/6 119/179/6 117/215/6
f 42/216/4 26/217/4 60/218/4 82/219/4
f 78/220/3 79/221/3 110/222/3 111/223/3
f 58/224/4 85/225/4 40/226/4 24/227/4
f 60/102/3 61/101/3 97/228/3 96/229/3
f 37/230/4 64/231/4 84/232/4 59/233/4
f 59/233/4 84/232/4 85/225/4 58/224/4
f 64/231/4 65/234/4 86/235/4 84/232/4
f 73/236/2 72/237/2 104/238/2 105/239/2
f 65/234/4 33/240/4 51/241/4 86/235/4
f 79/221/3 68/242/3 100/243/3 110/222/3
f 102/244/4 103/245/4 106/246/4 104/247/4
f 104/247/4 106/246/4 107/248/4 105/249/4
f 106/246/4 99/250/4 98/251/4 107/248/4
f 108/252/4 110/253/4 100/254/4 101/255/4
f 94/256/4 109/257/4 108/252/4 95/258/4
f 109/257/4 111/259/4 110/253/4 108/252/4
f 91/260/4 90/261/4 114/262/4 112/263/4
f 112/263/4 114/262/4 115/264/4 113/265/4
f 114/262/4 96/266/4 97/267/4 115/264/4
f 116/268/4 118/269/4 89/270/4 88/271/4
f 117/272/4 119/273/4 118/269/4 116/268/4
f 119/273/4 93/274/4 92/275/4 118/269/4
f 76/193/6 78/276/6 111/277/6 109/194/6
f 50/278/1 87/279/1 118/280/1 92/281/1
f 82/282/6 60/283/6 96/284/6 114/285/6
f 61/286/1 83/166/1 115/169/1 97/287/1
f 75/288/1 73/289/1 105/290/1 107/291/1
f 40/292/2 85/293/2 116/294/2 88/295/2
f 41/90/1 40/89/1 88/296/1 89/297/1
f 74/298/6 63/299/6 99/300/6 106/301/6
f 68/126/1 69/125/1 101/302/1 100/303/1
f 62/304/1 75/288/1 107/291/1 98/305/1
f 43/108/6 42/107/6 90/306/6 91/307/6
f 85/293/2 84/308/2 117/309/2 116/294/2
f 80/310/2 43/311/2 91/312/2 112/313/2
f 57/120/2 56/119/2 94/314/2 95/315/2
f 69/316/2 77/317/2 108/318/2 101/319/2
f 87/320/3 41/321/3 89/322/3 118/323/3
f 70/62/6 71/61/6 103/324/6 102/325/6
f 81/326/2 80/310/2 112/313/2 113/327/2
f 72/237/2 70/328/2 102/329/2 104/238/2
f 42/330/3 82/331/3 114/332/3 90/333/3
f 18/17/4 19/32/4 17/34/4 16/18/4
