# Blender v3.1.2 OBJ File: 'OneWall.blend'
# www.blender.org
mtllib DoorOneHandler.mtl
o DoorHandler_Cylinder.003
v 0.000000 0.175000 -0.100000
v 0.000000 0.175000 0.100000
v 0.002169 0.174505 0.100000
v 0.002169 0.174505 -0.100000
v 0.003909 0.173117 0.100000
v 0.003909 0.173117 -0.100000
v 0.004875 0.171113 0.100000
v 0.004875 0.171113 -0.100000
v 0.004875 0.168887 0.100000
v 0.004875 0.168887 -0.100000
v 0.003909 0.166883 0.100000
v 0.003909 0.166883 -0.100000
v 0.002169 0.165495 0.100000
v 0.002169 0.165495 -0.100000
v 0.000000 0.165000 0.100000
v 0.000000 0.165000 -0.100000
v -0.002169 0.165495 0.100000
v -0.002169 0.165495 -0.100000
v -0.003909 0.166883 0.100000
v -0.003909 0.166883 -0.100000
v -0.004875 0.168887 0.100000
v -0.004875 0.168887 -0.100000
v -0.004875 0.171113 0.100000
v -0.004875 0.171113 -0.100000
v -0.003909 0.173117 0.100000
v -0.003909 0.173117 -0.100000
v -0.002169 0.174505 0.100000
v -0.002169 0.174505 -0.100000
v 0.000000 0.162500 -0.010000
v 0.000000 0.177500 -0.010000
v 0.004339 0.177500 -0.009010
v 0.004339 0.162500 -0.009010
v 0.007818 0.177500 -0.006235
v 0.007818 0.162500 -0.006235
v 0.009749 0.177500 -0.002225
v 0.009749 0.162500 -0.002225
v 0.009749 0.177500 0.002225
v 0.009749 0.162500 0.002225
v 0.007818 0.177500 0.006235
v 0.007818 0.162500 0.006235
v 0.004339 0.177500 0.009010
v 0.004339 0.162500 0.009010
v 0.000000 0.177500 0.010000
v 0.000000 0.162500 0.010000
v -0.004339 0.177500 0.009010
v -0.004339 0.162500 0.009010
v -0.007818 0.177500 0.006235
v -0.007818 0.162500 0.006235
v -0.009749 0.177500 0.002225
v -0.009749 0.162500 0.002225
v -0.009749 0.177500 -0.002225
v -0.009749 0.162500 -0.002225
v -0.007818 0.177500 -0.006235
v -0.007818 0.162500 -0.006235
v -0.004339 0.177500 -0.009010
v -0.004339 0.162500 -0.009010
v 0.000000 0.143000 -0.006000
v 0.000000 0.183000 -0.006000
v 0.003000 0.183000 -0.005196
v 0.003000 0.143000 -0.005196
v 0.005196 0.183000 -0.003000
v 0.005196 0.143000 -0.003000
v 0.006000 0.183000 0.000000
v 0.006000 0.143000 0.000000
v 0.005196 0.183000 0.003000
v 0.005196 0.143000 0.003000
v 0.003000 0.183000 0.005196
v 0.003000 0.143000 0.005196
v 0.000000 0.183000 0.006000
v 0.000000 0.143000 0.006000
v -0.003000 0.183000 0.005196
v -0.003000 0.143000 0.005196
v -0.005196 0.183000 0.003000
v -0.005196 0.143000 0.003000
v -0.006000 0.183000 0.000000
v -0.006000 0.143000 0.000000
v -0.005196 0.183000 -0.003000
v -0.005196 0.143000 -0.003000
v -0.003000 0.183000 -0.005196
v -0.003000 0.143000 -0.005196
v 0.004000 0.170000 -0.004000
v 0.014000 0.170000 -0.004000
v 0.014000 0.166536 -0.002000
v 0.004000 0.166536 -0.002000
v 0.014000 0.166536 0.002000
v 0.004000 0.166536 0.002000
v 0.014000 0.170000 0.004000
v 0.004000 0.170000 0.004000
v 0.014000 0.173464 0.002000
v 0.004000 0.173464 0.002000
v 0.014000 0.173464 -0.002000
v 0.004000 0.173464 -0.002000
vt 1.000000 0.500000
vt 1.000000 1.000000
vt 0.928571 1.000000
vt 0.928571 0.500000
vt 0.857143 1.000000
vt 0.857143 0.500000
vt 0.785714 1.000000
vt 0.785714 0.500000
vt 0.714286 1.000000
vt 0.714286 0.500000
vt 0.642857 1.000000
vt 0.642857 0.500000
vt 0.571428 1.000000
vt 0.571428 0.500000
vt 0.500000 1.000000
vt 0.500000 0.500000
vt 0.428571 1.000000
vt 0.428571 0.500000
vt 0.357143 1.000000
vt 0.357143 0.500000
vt 0.285714 1.000000
vt 0.285714 0.500000
vt 0.214286 1.000000
vt 0.214286 0.500000
vt 0.142857 1.000000
vt 0.142857 0.500000
vt 0.354132 0.466233
vt 0.250000 0.490000
vt 0.145868 0.466233
vt 0.062360 0.399638
vt 0.016017 0.303405
vt 0.016017 0.196595
vt 0.062360 0.100362
vt 0.145868 0.033767
vt 0.250000 0.010000
vt 0.354132 0.033767
vt 0.437640 0.100362
vt 0.483983 0.196595
vt 0.483983 0.303405
vt 0.437640 0.399638
vt 0.071428 1.000000
vt 0.071428 0.500000
vt -0.000000 1.000000
vt -0.000000 0.500000
vt 0.750000 0.490000
vt 0.854132 0.466233
vt 0.937640 0.399638
vt 0.983983 0.303405
vt 0.983983 0.196595
vt 0.937640 0.100362
vt 0.854132 0.033767
vt 0.750000 0.010000
vt 0.645868 0.033767
vt 0.562360 0.100362
vt 0.516017 0.196595
vt 0.516017 0.303405
vt 0.562360 0.399638
vt 0.645868 0.466233
vt 1.000000 0.500000
vt 1.000000 1.000000
vt 0.928571 1.000000
vt 0.928571 0.500000
vt 0.857143 1.000000
vt 0.857143 0.500000
vt 0.785714 1.000000
vt 0.785714 0.500000
vt 0.714286 1.000000
vt 0.714286 0.500000
vt 0.642857 1.000000
vt 0.642857 0.500000
vt 0.571428 1.000000
vt 0.571428 0.500000
vt 0.500000 1.000000
vt 0.500000 0.500000
vt 0.428571 1.000000
vt 0.428571 0.500000
vt 0.357143 1.000000
vt 0.357143 0.500000
vt 0.285714 1.000000
vt 0.285714 0.500000
vt 0.214286 1.000000
vt 0.214286 0.500000
vt 0.142857 1.000000
vt 0.142857 0.500000
vt 0.354132 0.466233
vt 0.250000 0.490000
vt 0.145868 0.466233
vt 0.062360 0.399638
vt 0.016017 0.303405
vt 0.016017 0.196595
vt 0.062360 0.100362
vt 0.145868 0.033767
vt 0.250000 0.010000
vt 0.354132 0.033767
vt 0.437640 0.100362
vt 0.483983 0.196595
vt 0.483983 0.303405
vt 0.437640 0.399638
vt 0.071428 1.000000
vt 0.071428 0.500000
vt -0.000000 1.000000
vt -0.000000 0.500000
vt 0.750000 0.490000
vt 0.854132 0.466233
vt 0.937640 0.399638
vt 0.983983 0.303405
vt 0.983983 0.196595
vt 0.937640 0.100362
vt 0.854132 0.033767
vt 0.750000 0.010000
vt 0.645868 0.033767
vt 0.562360 0.100362
vt 0.516017 0.196595
vt 0.516017 0.303405
vt 0.562360 0.399638
vt 0.645868 0.466233
vt 1.000000 0.500000
vt 1.000000 1.000000
vt 0.916667 1.000000
vt 0.916667 0.500000
vt 0.833333 1.000000
vt 0.833333 0.500000
vt 0.750000 1.000000
vt 0.750000 0.500000
vt 0.666667 1.000000
vt 0.666667 0.500000
vt 0.583333 1.000000
vt 0.583333 0.500000
vt 0.500000 1.000000
vt 0.500000 0.500000
vt 0.416667 1.000000
vt 0.416667 0.500000
vt 0.333333 1.000000
vt 0.333333 0.500000
vt 0.250000 1.000000
vt 0.250000 0.500000
vt 0.166667 1.000000
vt 0.166667 0.500000
vt 0.370000 0.457846
vt 0.250000 0.490000
vt 0.130000 0.457846
vt 0.042154 0.370000
vt 0.010000 0.250000
vt 0.042154 0.130000
vt 0.130000 0.042154
vt 0.250000 0.010000
vt 0.370000 0.042154
vt 0.457846 0.130000
vt 0.490000 0.250000
vt 0.457846 0.370000
vt 0.083333 1.000000
vt 0.083333 0.500000
vt 0.000000 1.000000
vt 0.000000 0.500000
vt 0.750000 0.490000
vt 0.870000 0.457846
vt 0.957846 0.370000
vt 0.990000 0.250000
vt 0.957846 0.130000
vt 0.870000 0.042154
vt 0.750000 0.010000
vt 0.630000 0.042154
vt 0.542154 0.130000
vt 0.510000 0.250000
vt 0.542154 0.370000
vt 0.630000 0.457846
vt 1.000000 0.500000
vt 1.000000 1.000000
vt 0.833333 1.000000
vt 0.833333 0.500000
vt 0.666667 1.000000
vt 0.666667 0.500000
vt 0.500000 1.000000
vt 0.500000 0.500000
vt 0.333333 1.000000
vt 0.333333 0.500000
vt 0.457846 0.370000
vt 0.250000 0.490000
vt 0.042154 0.370000
vt 0.042154 0.130000
vt 0.250000 0.010000
vt 0.457846 0.130000
vt 0.166667 1.000000
vt 0.166667 0.500000
vt -0.000000 1.000000
vt -0.000000 0.500000
vt 0.750000 0.490000
vt 0.957846 0.370000
vt 0.957846 0.130000
vt 0.750000 0.010000
vt 0.542154 0.130000
vt 0.542154 0.370000
vn 0.0000 0.7510 -0.6603
vn -0.0000 0.7510 0.6603
vn 0.3262 0.6765 0.6603
vn 0.3258 0.6766 -0.6603
vn 0.5874 0.4680 0.6603
vn 0.5872 0.4682 -0.6603
vn 0.7322 0.1669 0.6603
vn 0.7322 0.1673 -0.6603
vn 0.7322 -0.1673 0.6603
vn 0.7322 -0.1669 -0.6603
vn 0.5872 -0.4682 0.6603
vn 0.5874 -0.4680 -0.6603
vn 0.3258 -0.6766 0.6603
vn 0.3262 -0.6765 -0.6603
vn 0.0000 -0.7510 0.6603
vn -0.0000 -0.7510 -0.6603
vn -0.3259 -0.6766 0.6603
vn -0.3256 -0.6768 -0.6603
vn -0.5871 -0.4683 0.6603
vn -0.5870 -0.4685 -0.6603
vn -0.7322 -0.1669 0.6603
vn -0.7322 -0.1673 -0.6603
vn -0.7322 0.1673 0.6603
vn -0.7322 0.1669 -0.6603
vn -0.5870 0.4685 0.6603
vn -0.5871 0.4683 -0.6603
vn -0.0000 0.0000 1.0000
vn -0.3256 0.6768 0.6603
vn -0.3259 0.6766 -0.6603
vn 0.0000 0.0000 -1.0000
vn 0.0000 -0.6603 -0.7510
vn 0.0003 0.6603 -0.7510
vn 0.3259 0.6603 -0.6766
vn 0.3259 -0.6603 -0.6766
vn 0.5872 0.6603 -0.4682
vn 0.5872 -0.6603 -0.4682
vn 0.7322 0.6603 -0.1671
vn 0.7322 -0.6603 -0.1671
vn 0.7322 0.6603 0.1671
vn 0.7322 -0.6603 0.1670
vn 0.5871 0.6603 0.4683
vn 0.5871 -0.6603 0.4683
vn 0.3259 0.6603 0.6766
vn 0.3259 -0.6603 0.6766
vn 0.0000 0.6603 0.7510
vn 0.0003 -0.6603 0.7510
vn -0.3259 0.6603 0.6766
vn -0.3259 -0.6603 0.6766
vn -0.5871 0.6603 0.4683
vn -0.5871 -0.6603 0.4683
vn -0.7322 0.6603 0.1671
vn -0.7322 -0.6603 0.1672
vn -0.7322 0.6603 -0.1671
vn -0.7322 -0.6603 -0.1671
vn -0.5871 0.6603 -0.4684
vn -0.5871 -0.6603 -0.4684
vn 0.0000 1.0000 0.0000
vn -0.3259 0.6603 -0.6766
vn -0.3259 -0.6603 -0.6766
vn 0.0000 -1.0000 -0.0000
vn 0.0000 -0.6532 -0.7572
vn -0.0000 0.6532 -0.7572
vn 0.3786 0.6532 -0.6557
vn 0.3786 -0.6532 -0.6557
vn 0.6557 0.6532 -0.3786
vn 0.6557 -0.6532 -0.3786
vn 0.7572 0.6532 -0.0000
vn 0.7572 -0.6532 0.0000
vn 0.6557 0.6532 0.3786
vn 0.6557 -0.6532 0.3786
vn 0.3786 0.6532 0.6557
vn 0.3786 -0.6532 0.6557
vn 0.0000 0.6532 0.7572
vn -0.0000 -0.6532 0.7572
vn -0.3786 0.6532 0.6557
vn -0.3786 -0.6532 0.6557
vn -0.6557 0.6532 0.3786
vn -0.6557 -0.6532 0.3786
vn -0.7572 0.6532 0.0000
vn -0.7572 -0.6532 -0.0000
vn -0.6557 0.6532 -0.3786
vn -0.6557 -0.6532 -0.3786
vn -0.3786 0.6532 -0.6557
vn -0.3786 -0.6532 -0.6557
vn 0.0000 -0.5000 -0.8660
vn 0.0000 -0.5000 0.8660
vn 0.0000 0.5000 0.8660
vn 1.0000 0.0000 0.0000
vn 0.0000 0.5000 -0.8660
vn -1.0000 0.0000 0.0000
usemtl DoorHandler
s 1
f 1/1/1 2/2/2 3/3/3 4/4/4
f 4/4/4 3/3/3 5/5/5 6/6/6
f 6/6/6 5/5/5 7/7/7 8/8/8
f 8/8/8 7/7/7 9/9/9 10/10/10
f 10/10/10 9/9/9 11/11/11 12/12/12
f 12/12/12 11/11/11 13/13/13 14/14/14
f 14/14/14 13/13/13 15/15/15 16/16/16
f 16/16/16 15/15/15 17/17/17 18/18/18
f 18/18/18 17/17/17 19/19/19 20/20/20
f 20/20/20 19/19/19 21/21/21 22/22/22
f 22/22/22 21/21/21 23/23/23 24/24/24
f 24/24/24 23/23/23 25/25/25 26/26/26
f 3/27/27 2/28/27 27/29/27 25/30/27 23/31/27 21/32/27 19/33/27 17/34/27 15/35/27 13/36/27 11/37/27 9/38/27 7/39/27 5/40/27
f 26/26/26 25/25/25 27/41/28 28/42/29
f 28/42/29 27/41/28 2/43/2 1/44/1
f 1/45/30 4/46/30 6/47/30 8/48/30 10/49/30 12/50/30 14/51/30 16/52/30 18/53/30 20/54/30 22/55/30 24/56/30 26/57/30 28/58/30
f 29/59/31 30/60/32 31/61/33 32/62/34
f 32/62/34 31/61/33 33/63/35 34/64/36
f 34/64/36 33/63/35 35/65/37 36/66/38
f 36/66/38 35/65/37 37/67/39 38/68/40
f 38/68/40 37/67/39 39/69/41 40/70/42
f 40/70/42 39/69/41 41/71/43 42/72/44
f 42/72/44 41/71/43 43/73/45 44/74/46
f 44/74/46 43/73/45 45/75/47 46/76/48
f 46/76/48 45/75/47 47/77/49 48/78/50
f 48/78/50 47/77/49 49/79/51 50/80/52
f 50/80/52 49/79/51 51/81/53 52/82/54
f 52/82/54 51/81/53 53/83/55 54/84/56
f 31/85/57 30/86/57 55/87/57 53/88/57 51/89/57 49/90/57 47/91/57 45/92/57 43/93/57 41/94/57 39/95/57 37/96/57 35/97/57 33/98/57
f 54/84/56 53/83/55 55/99/58 56/100/59
f 56/100/59 55/99/58 30/101/32 29/102/31
f 29/103/60 32/104/60 34/105/60 36/106/60 38/107/60 40/108/60 42/109/60 44/110/60 46/111/60 48/112/60 50/113/60 52/114/60 54/115/60 56/116/60
f 57/117/61 58/118/62 59/119/63 60/120/64
f 60/120/64 59/119/63 61/121/65 62/122/66
f 62/122/66 61/121/65 63/123/67 64/124/68
f 64/124/68 63/123/67 65/125/69 66/126/70
f 66/126/70 65/125/69 67/127/71 68/128/72
f 68/128/72 67/127/71 69/129/73 70/130/74
f 70/130/74 69/129/73 71/131/75 72/132/76
f 72/132/76 71/131/75 73/133/77 74/134/78
f 74/134/78 73/133/77 75/135/79 76/136/80
f 76/136/80 75/135/79 77/137/81 78/138/82
f 59/139/57 58/140/57 79/141/57 77/142/57 75/143/57 73/144/57 71/145/57 69/146/57 67/147/57 65/148/57 63/149/57 61/150/57
f 78/138/82 77/137/81 79/151/83 80/152/84
f 80/152/84 79/151/83 58/153/62 57/154/61
f 57/155/60 60/156/60 62/157/60 64/158/60 66/159/60 68/160/60 70/161/60 72/162/60 74/163/60 76/164/60 78/165/60 80/166/60
f 81/167/85 82/168/85 83/169/85 84/170/85
f 84/170/60 83/169/60 85/171/60 86/172/60
f 86/172/86 85/171/86 87/173/86 88/174/86
f 88/174/87 87/173/87 89/175/87 90/176/87
f 83/177/88 82/178/88 91/179/88 89/180/88 87/181/88 85/182/88
f 90/176/57 89/175/57 91/183/57 92/184/57
f 92/184/89 91/183/89 82/185/89 81/186/89
f 81/187/90 84/188/90 86/189/90 88/190/90 90/191/90 92/192/90
