# Blender v2.91.0 OBJ File: 'doorhandle.blend'
# www.blender.org
mtllib doorhandle.mtl
o Cylinder
v 0.000000 -0.002339 -0.100590
v 0.000000 0.005000 -0.100590
v 0.003902 -0.002772 -0.097273
v 0.003902 0.005000 -0.097273
v 0.007654 -0.003442 -0.075752
v 0.007654 0.005000 -0.075752
v 0.011111 -0.003716 -0.057760
v 0.011111 0.005000 -0.057760
v 0.014142 -0.004071 -0.039893
v 0.014142 0.005000 -0.039893
v 0.016629 -0.004510 -0.023218
v 0.016629 0.005000 -0.023218
v 0.018478 -0.005000 -0.011922
v 0.018478 0.005000 -0.011922
v 0.019616 -0.005000 -0.003902
v 0.019616 0.005000 -0.003902
v 0.020000 -0.005000 -0.000000
v 0.020000 0.005000 -0.000000
v 0.019616 -0.005000 0.003902
v 0.019616 0.005000 0.003902
v 0.018478 -0.005000 0.007654
v 0.018478 0.005000 0.007654
v 0.016629 -0.005000 0.011111
v 0.016629 0.005000 0.011111
v 0.014142 -0.005000 0.014142
v 0.014142 0.005000 0.014142
v 0.011111 -0.005000 0.016629
v 0.011111 0.005000 0.016629
v 0.007654 -0.005000 0.018478
v 0.007654 0.005000 0.018478
v 0.003902 -0.005000 0.019616
v 0.003902 0.005000 0.019616
v -0.000000 -0.005000 0.020000
v -0.000000 0.005000 0.020000
v -0.003902 -0.005000 0.019616
v -0.003902 0.005000 0.019616
v -0.007654 -0.005000 0.018478
v -0.007654 0.005000 0.018478
v -0.011111 -0.005000 0.016629
v -0.011111 0.005000 0.016629
v -0.014142 -0.005000 0.014142
v -0.014142 0.005000 0.014142
v -0.016629 -0.005000 0.011111
v -0.016629 0.005000 0.011111
v -0.018478 -0.005000 0.007654
v -0.018478 0.005000 0.007654
v -0.019616 -0.005000 0.003902
v -0.019616 0.005000 0.003902
v -0.020000 -0.005000 -0.000000
v -0.020000 0.005000 -0.000000
v -0.019616 -0.005000 -0.003902
v -0.019616 0.005000 -0.003902
v -0.018478 -0.005000 -0.011922
v -0.018478 0.005000 -0.011922
v -0.016629 -0.004510 -0.023218
v -0.016629 0.005000 -0.023218
v -0.014142 -0.004071 -0.039893
v -0.014142 0.005000 -0.039893
v -0.011111 -0.003716 -0.057760
v -0.011111 0.005000 -0.057760
v -0.007654 -0.003442 -0.075752
v -0.007654 0.005000 -0.075752
v -0.003902 -0.002772 -0.097273
v -0.003902 0.005000 -0.097273
v 0.001951 -0.002339 -0.100398
v 0.001951 0.005000 -0.100398
v -0.001951 -0.002339 -0.100398
v -0.001951 0.005000 -0.100398
vt 0.431691 0.000000
vt 0.415358 0.000000
vt 0.399338 0.003186
vt 0.724491 0.000000
vt 0.663344 0.000000
vt 0.663344 0.026392
vt 0.728102 0.026392
vt 0.663344 0.206350
vt 0.733680 0.206350
vt 0.663344 0.356862
vt 0.735966 0.356862
vt 0.663344 0.506248
vt 0.738920 0.506248
vt 0.663344 0.645607
vt 0.742578 0.645607
vt 0.663344 0.740043
vt 0.746663 0.740043
vt 0.663344 0.807060
vt 0.746663 0.807060
vt 0.663344 0.839633
vt 0.746663 0.839633
vt 0.663344 0.872064
vt 0.746663 0.872064
vt 0.663344 0.903107
vt 0.746663 0.903107
vt 0.663344 0.931569
vt 0.746663 0.931569
vt 0.663344 0.956357
vt 0.746663 0.956357
vt 0.829983 0.257628
vt 0.913303 0.257628
vt 0.913303 0.234528
vt 0.829983 0.234528
vt 0.913303 0.207367
vt 0.829983 0.207367
vt 0.913303 0.177187
vt 0.829983 0.177187
vt 0.913303 0.145147
vt 0.829983 0.145147
vt 0.913303 0.112480
vt 0.829983 0.112480
vt 0.913303 0.080441
vt 0.829983 0.080441
vt 0.913303 0.050261
vt 0.829983 0.050261
vt 0.913303 0.023099
vt 0.829983 0.023099
vt 0.913303 0.000000
vt 0.829983 0.000000
vt 0.746664 0.937089
vt 0.829983 0.937089
vt 0.829983 0.910416
vt 0.746664 0.910416
vt 0.829983 0.880576
vt 0.746664 0.880576
vt 0.829983 0.848716
vt 0.746664 0.848716
vt 0.829983 0.816060
vt 0.746664 0.816060
vt 0.829983 0.748576
vt 0.746664 0.748576
vt 0.829983 0.653273
vt 0.750749 0.653273
vt 0.829983 0.512840
vt 0.754407 0.512840
vt 0.829983 0.361992
vt 0.757361 0.361992
vt 0.829983 0.209663
vt 0.759647 0.209663
vt 0.829983 0.027857
vt 0.765225 0.027857
vt 0.829983 0.257628
vt 0.829983 0.318775
vt 0.846238 0.318775
vt 0.846238 0.257628
vt 0.231739 0.000000
vt 0.212996 0.024442
vt 0.277701 0.030820
vt 0.264091 0.003189
vt 0.248072 0.000002
vt 0.164289 0.199901
vt 0.291213 0.212412
vt 0.829983 0.000000
vt 0.768836 0.000000
vt 0.450420 0.024321
vt 0.385714 0.030693
vt 0.372180 0.212205
vt 0.358203 0.364218
vt 0.347664 0.514841
vt 0.340658 0.655138
vt 0.334558 0.750313
vt 0.331671 0.817745
vt 0.331671 0.850412
vt 0.338044 0.882451
vt 0.350545 0.912631
vt 0.368694 0.939793
vt 0.391793 0.962892
vt 0.418954 0.981041
vt 0.449135 0.993542
vt 0.481174 0.999915
vt 0.513841 0.999915
vt 0.545880 0.993542
vt 0.576060 0.981041
vt 0.603222 0.962892
vt 0.626321 0.939793
vt 0.644470 0.912631
vt 0.656971 0.882451
vt 0.663344 0.850412
vt 0.663344 0.817745
vt 0.656971 0.785705
vt 0.640984 0.720133
vt 0.616434 0.627977
vt 0.582192 0.491742
vt 0.542470 0.346070
vt 0.499105 0.199704
vt 0.862493 0.318775
vt 0.862493 0.257628
vt 0.081182 0.491904
vt 0.046926 0.628171
vt 0.322700 0.655354
vt 0.315709 0.515021
vt 0.120915 0.346235
vt 0.305181 0.364398
vt 0.022360 0.720413
vt 0.006373 0.785931
vt 0.000000 0.817945
vt 0.000000 0.850586
vt 0.006373 0.882601
vt 0.018874 0.912759
vt 0.037022 0.939903
vt 0.060121 0.962987
vt 0.087283 0.981126
vt 0.117463 0.993622
vt 0.149502 0.999995
vt 0.182169 1.000000
vt 0.214208 0.993637
vt 0.244388 0.981150
vt 0.271549 0.963020
vt 0.294648 0.939943
vt 0.312797 0.912805
vt 0.325298 0.882651
vt 0.331671 0.850638
vt 0.331671 0.817996
vt 0.328784 0.750618
vn 0.0000 1.0000 0.0000
vn 0.4100 -0.5692 -0.7126
vn 0.4138 0.6199 -0.6667
vn 0.6963 0.6664 -0.2663
vn 0.6819 -0.6672 -0.2998
vn 0.6974 0.7052 -0.1278
vn 0.6905 -0.7092 -0.1424
vn 0.6982 0.7046 -0.1263
vn 0.6976 -0.7029 -0.1386
vn 0.7005 0.7049 -0.1116
vn 0.6999 -0.7026 -0.1279
vn 0.7002 0.7055 -0.1095
vn 0.6979 -0.7057 -0.1221
vn 0.7013 0.7047 -0.1071
vn 0.6989 -0.7059 -0.1148
vn 0.7067 0.7023 -0.0849
vn 0.7063 -0.7018 -0.0930
vn 0.7279 0.6857 0.0000
vn 0.7279 -0.6856 -0.0080
vn 0.7139 0.6857 0.1420
vn 0.7147 -0.6864 0.1342
vn 0.6725 0.6857 0.2785
vn 0.6740 -0.6872 0.2712
vn 0.6052 0.6857 0.4044
vn 0.6072 -0.6879 0.3977
vn 0.5147 0.6857 0.5147
vn 0.5168 -0.6885 0.5088
vn 0.4044 0.6857 0.6052
vn 0.4064 -0.6890 0.6001
vn 0.2785 0.6857 0.6725
vn 0.2800 -0.6894 0.6681
vn 0.1420 0.6857 0.7139
vn 0.1428 -0.6896 0.7100
vn 0.0000 0.6857 0.7279
vn 0.0000 -0.6897 0.7241
vn -0.1420 0.6857 0.7139
vn -0.1428 -0.6896 0.7100
vn -0.2785 0.6857 0.6725
vn -0.2800 -0.6894 0.6681
vn -0.4044 0.6857 0.6052
vn -0.4064 -0.6890 0.6001
vn -0.5147 0.6857 0.5147
vn -0.5168 -0.6885 0.5088
vn -0.6052 0.6857 0.4044
vn -0.6072 -0.6879 0.3977
vn -0.6725 0.6857 0.2785
vn -0.6740 -0.6872 0.2712
vn -0.7139 0.6857 0.1420
vn -0.7147 -0.6864 0.1342
vn -0.7279 0.6857 0.0000
vn -0.7279 -0.6856 -0.0080
vn -0.7067 0.7023 -0.0849
vn -0.7063 -0.7018 -0.0930
vn -0.7013 0.7047 -0.1071
vn -0.6989 -0.7059 -0.1148
vn -0.7002 0.7055 -0.1095
vn -0.6979 -0.7057 -0.1221
vn -0.7005 0.7049 -0.1116
vn -0.6999 -0.7026 -0.1279
vn -0.6982 0.7046 -0.1263
vn -0.6976 -0.7029 -0.1386
vn -0.6974 0.7052 -0.1278
vn -0.6905 -0.7092 -0.1424
vn -0.6963 0.6664 -0.2663
vn -0.6819 -0.6672 -0.2998
vn -0.4100 -0.5692 -0.7126
vn -0.4138 0.6199 -0.6667
vn 0.0000 0.6857 -0.7279
vn 0.0000 -0.6379 -0.7701
usemtl None
s off
f 66/1/1 2/2/1 68/3/1
s 1
f 65/4/2 66/5/3 4/6/4 3/7/5
f 3/7/5 4/6/4 6/8/6 5/9/7
f 5/9/7 6/8/6 8/10/8 7/11/9
f 7/11/9 8/10/8 10/12/10 9/13/11
f 9/13/11 10/12/10 12/14/12 11/15/13
f 11/15/13 12/14/12 14/16/14 13/17/15
f 13/17/15 14/16/14 16/18/16 15/19/17
f 15/19/17 16/18/16 18/20/18 17/21/19
f 17/21/19 18/20/18 20/22/20 19/23/21
f 19/23/21 20/22/20 22/24/22 21/25/23
f 21/25/23 22/24/22 24/26/24 23/27/25
f 23/27/25 24/26/24 26/28/26 25/29/27
f 25/30/27 26/31/26 28/32/28 27/33/29
f 27/33/29 28/32/28 30/34/30 29/35/31
f 29/35/31 30/34/30 32/36/32 31/37/33
f 31/37/33 32/36/32 34/38/34 33/39/35
f 33/39/35 34/38/34 36/40/36 35/41/37
f 35/41/37 36/40/36 38/42/38 37/43/39
f 37/43/39 38/42/38 40/44/40 39/45/41
f 39/45/41 40/44/40 42/46/42 41/47/43
f 41/47/43 42/46/42 44/48/44 43/49/45
f 43/50/45 44/51/44 46/52/46 45/53/47
f 45/53/47 46/52/46 48/54/48 47/55/49
f 47/55/49 48/54/48 50/56/50 49/57/51
f 49/57/51 50/56/50 52/58/52 51/59/53
f 51/59/53 52/58/52 54/60/54 53/61/55
f 53/61/55 54/60/54 56/62/56 55/63/57
f 55/63/57 56/62/56 58/64/58 57/65/59
f 57/65/59 58/64/58 60/66/60 59/67/61
f 59/67/61 60/66/60 62/68/62 61/69/63
f 61/69/63 62/68/62 64/70/64 63/71/65
f 67/72/66 68/73/67 2/74/68 1/75/69
f 65/76/2 3/77/5 63/78/65 67/79/66 1/80/69
f 3/77/5 5/81/7 61/82/63 63/78/65
f 63/71/65 64/70/64 68/83/67 67/84/66
f 4/85/4 66/1/3 68/3/67 64/86/64 62/87/62 60/88/60 58/89/58 56/90/56 54/91/54 52/92/52 50/93/50 48/94/48 46/95/46 44/96/44 42/97/42 40/98/40 38/99/38 36/100/36 34/101/34 32/102/32 30/103/30 28/104/28 26/105/26 24/106/24 22/107/22 20/108/20 18/109/18 16/110/16 14/111/14 12/112/12 10/113/10 8/114/8 6/115/6
f 1/75/69 2/74/68 66/116/3 65/117/2
f 9/118/11 11/119/13 55/120/57 57/121/59
f 5/81/7 7/122/9 59/123/61 61/82/63
f 7/122/9 9/118/11 57/121/59 59/123/61
f 11/119/13 13/124/15 15/125/17 17/126/19 19/127/21 21/128/23 23/129/25 25/130/27 27/131/29 29/132/31 31/133/33 33/134/35 35/135/37 37/136/39 39/137/41 41/138/43 43/139/45 45/140/47 47/141/49 49/142/51 51/143/53 53/144/55 55/120/57
