# Blender v2.91.0 OBJ File: 'doorhandle.blend'
# www.blender.org
mtllib doorhandle.mtl
o Cube.001
v -0.007121 -0.001211 0.000017
v -0.021213 0.015000 0.000000
v 0.000000 0.000068 -0.052677
v 0.000000 0.015000 -0.107742
v 0.000000 0.000127 0.006538
v 0.000000 0.015000 0.021213
v 0.007071 -0.001130 0.000000
v 0.021213 0.015000 0.000000
v -0.001179 -0.001970 -0.017678
v -0.002357 -0.001970 -0.014142
v -0.003536 -0.001970 -0.010607
v -0.004714 -0.001970 -0.007071
v -0.005893 -0.001970 -0.003536
v -0.009816 0.000523 0.000122
v -0.011785 0.003686 0.000000
v -0.014142 0.006515 0.000000
v -0.016499 0.009343 0.000000
v -0.018856 0.012172 0.000000
v -0.015678 0.015000 -0.020035
v -0.012142 0.015000 -0.040069
v -0.008607 0.015000 -0.060104
v -0.005071 0.015000 -0.080139
v -0.001536 0.015000 -0.100173
v 0.000000 0.012172 -0.109241
v 0.000000 0.009343 -0.109564
v 0.000000 0.006515 -0.102236
v 0.000000 0.003686 -0.090839
v 0.000000 0.000858 -0.072827
v 0.005893 -0.001970 -0.003536
v 0.004714 -0.001970 -0.007071
v 0.003536 -0.001970 -0.010607
v 0.002357 -0.001970 -0.014142
v 0.001179 -0.001970 -0.017678
v 0.001536 0.015000 -0.100173
v 0.005071 0.015000 -0.080139
v 0.008607 0.015000 -0.060104
v 0.012142 0.015000 -0.040069
v 0.015678 0.015000 -0.020035
v 0.018856 0.012172 0.000000
v 0.016499 0.009343 0.000000
v 0.014142 0.006515 0.000000
v 0.011785 0.003686 0.000000
v 0.009428 0.000858 0.000000
v 0.001571 0.000858 -0.031427
v 0.003143 0.000858 -0.025142
v 0.004714 0.000858 -0.018856
v 0.006285 0.000858 -0.012571
v 0.007857 0.000858 -0.006285
v 0.001964 0.003686 -0.045176
v 0.004928 0.003686 -0.036141
v 0.006893 0.003686 -0.027106
v 0.008857 0.003686 -0.018071
v 0.009821 0.003686 -0.009035
v 0.003357 0.006515 -0.058926
v 0.005714 0.006515 -0.047140
v 0.008071 0.006515 -0.035355
v 0.010428 0.006515 -0.023570
v 0.012785 0.006515 -0.011785
v 0.003750 0.009343 -0.072675
v 0.006500 0.009343 -0.058140
v 0.009250 0.009343 -0.043605
v 0.011999 0.009343 -0.029070
v 0.014749 0.009343 -0.014535
v 0.003143 0.012172 -0.086424
v 0.006285 0.012172 -0.069139
v 0.009428 0.012172 -0.051854
v 0.012571 0.012172 -0.034570
v 0.015713 0.012172 -0.017285
v -0.007857 0.000858 -0.006285
v -0.006285 0.000858 -0.012571
v -0.004714 0.000858 -0.018856
v -0.003143 0.000858 -0.025142
v -0.001571 0.000858 -0.031427
v -0.009821 0.003686 -0.009035
v -0.008857 0.003686 -0.018071
v -0.006893 0.003686 -0.027106
v -0.004928 0.003686 -0.036141
v -0.001964 0.003686 -0.045176
v -0.012785 0.006515 -0.011785
v -0.010428 0.006515 -0.023570
v -0.008071 0.006515 -0.035355
v -0.005714 0.006515 -0.047140
v -0.003357 0.006515 -0.058926
v -0.014749 0.009343 -0.014535
v -0.011999 0.009343 -0.029070
v -0.009250 0.009343 -0.043605
v -0.006500 0.009343 -0.058140
v -0.003750 0.009343 -0.072675
v -0.015713 0.012172 -0.017285
v -0.012571 0.012172 -0.034570
v -0.009428 0.012172 -0.051854
v -0.006285 0.012172 -0.069139
v -0.003143 0.012172 -0.086424
v 0.000000 0.012521 0.018856
v 0.000000 0.010042 0.016499
v 0.000000 0.007563 0.014142
v 0.000000 0.005084 0.011785
v 0.000000 0.002606 0.009428
v 0.001768 -0.000398 0.004770
v 0.003536 -0.000922 0.003536
v 0.005303 -0.001446 0.001768
v 0.017910 0.015000 0.005303
v 0.012607 0.015000 0.010607
v 0.007303 0.015000 0.015910
v -0.005341 -0.001507 0.001781
v -0.003561 -0.000962 0.003544
v -0.001780 -0.000418 0.004774
v -0.007303 0.015000 0.015910
v -0.012607 0.015000 0.010607
v -0.017910 0.015000 0.005303
v -0.006714 0.012434 0.014142
v -0.005126 0.009867 0.012374
v -0.004537 0.007301 0.010605
v -0.003948 0.004735 0.008837
v -0.002424 0.002091 0.007130
v -0.011430 0.012346 0.009426
v -0.009253 0.009693 0.008246
v -0.008077 0.007039 0.007066
v -0.006900 0.004385 0.005885
v -0.004834 0.001580 0.004846
v -0.016146 0.012259 0.004710
v -0.013383 0.009518 0.004116
v -0.011619 0.006776 0.003523
v -0.009856 0.004034 0.002929
v -0.007230 0.001072 0.002574
v 0.006714 0.012434 0.014142
v 0.005125 0.009867 0.012374
v 0.004536 0.007301 0.010607
v 0.003946 0.004735 0.008839
v 0.002357 0.002169 0.007071
v 0.011428 0.012346 0.009428
v 0.009250 0.009693 0.008250
v 0.008071 0.007039 0.007071
v 0.006893 0.004385 0.005893
v 0.004714 0.001732 0.004714
v 0.016142 0.012259 0.004714
v 0.013374 0.009518 0.004125
v 0.011607 0.006777 0.003536
v 0.009839 0.004036 0.002946
v 0.007071 0.001295 0.002357
vt 0.583333 0.208333
vt 0.625000 0.208333
vt 0.625000 0.250000
vt 0.583333 0.250000
vt 0.583333 0.458333
vt 0.625000 0.458333
vt 0.625000 0.500000
vt 0.583333 0.500000
vt 0.583333 0.687500
vt 0.625000 0.687500
vt 0.625000 0.750000
vt 0.583333 0.750000
vt 0.583333 0.937557
vt 0.625000 0.937500
vt 0.625000 1.000000
vt 0.583333 1.000000
vt 0.333333 0.500000
vt 0.375000 0.500000
vt 0.375000 0.562500
vt 0.375000 0.625000
vt 0.375000 0.687500
vt 0.375000 0.750000
vt 0.312500 0.750000
vt 0.250000 0.750000
vt 0.187500 0.750000
vt 0.125000 0.750000
vt 0.125000 0.708333
vt 0.833333 0.500000
vt 0.875000 0.500000
vt 0.875000 0.541667
vt 0.666667 0.500000
vt 0.875000 0.708333
vt 0.875000 0.750000
vt 0.812500 0.750000
vt 0.750000 0.750000
vt 0.687500 0.750000
vt 0.625000 0.625000
vt 0.625000 0.562500
vt 0.708333 0.500000
vt 0.875000 0.666667
vt 0.750000 0.500000
vt 0.875000 0.625000
vt 0.791667 0.500000
vt 0.875000 0.583333
vt 0.125000 0.500000
vt 0.166667 0.500000
vt 0.125000 0.541667
vt 0.208333 0.500000
vt 0.125000 0.583333
vt 0.250000 0.500000
vt 0.125000 0.625000
vt 0.291667 0.500000
vt 0.125000 0.666667
vt 0.375000 0.458333
vt 0.416667 0.458333
vt 0.416667 0.500000
vt 0.458333 0.458333
vt 0.458333 0.500000
vt 0.500000 0.458333
vt 0.500000 0.500000
vt 0.541667 0.458333
vt 0.541667 0.500000
vt 0.375000 0.250000
vt 0.416667 0.250000
vt 0.416667 0.291667
vt 0.375000 0.291667
vt 0.416667 0.333333
vt 0.375000 0.333333
vt 0.416667 0.375000
vt 0.375000 0.375000
vt 0.416667 0.416667
vt 0.375000 0.416667
vt 0.458333 0.250000
vt 0.458333 0.291667
vt 0.458333 0.333333
vt 0.458333 0.375000
vt 0.458333 0.416667
vt 0.500000 0.250000
vt 0.500000 0.291667
vt 0.500000 0.333333
vt 0.500000 0.375000
vt 0.500000 0.416667
vt 0.541667 0.250000
vt 0.541667 0.291667
vt 0.541667 0.333333
vt 0.541667 0.375000
vt 0.541667 0.416667
vt 0.583333 0.291667
vt 0.583333 0.333333
vt 0.583333 0.375000
vt 0.583333 0.416667
vt 0.625000 0.291667
vt 0.625000 0.333333
vt 0.625000 0.375000
vt 0.625000 0.416667
vt 0.375000 0.208333
vt 0.416667 0.208333
vt 0.458333 0.208333
vt 0.500000 0.208333
vt 0.541667 0.208333
vt 0.375000 0.000000
vt 0.416667 0.000000
vt 0.416667 0.041667
vt 0.375000 0.041667
vt 0.416667 0.083333
vt 0.375000 0.083333
vt 0.416667 0.125000
vt 0.375000 0.125000
vt 0.416667 0.166667
vt 0.375000 0.166667
vt 0.458333 0.000000
vt 0.458333 0.041667
vt 0.458333 0.083333
vt 0.458333 0.125000
vt 0.458333 0.166667
vt 0.500000 0.000000
vt 0.500000 0.041667
vt 0.500000 0.083333
vt 0.500000 0.125000
vt 0.500000 0.166667
vt 0.541667 0.000000
vt 0.541667 0.041667
vt 0.541667 0.083333
vt 0.541667 0.125000
vt 0.541667 0.166667
vt 0.583333 0.000000
vt 0.583333 0.041667
vt 0.583333 0.083333
vt 0.583333 0.125000
vt 0.583333 0.166667
vt 0.625000 0.000000
vt 0.625000 0.041667
vt 0.625000 0.083333
vt 0.625000 0.125000
vt 0.625000 0.166667
vt 0.375000 0.937500
vt 0.416667 0.934127
vt 0.416667 1.000000
vt 0.375000 1.000000
vt 0.458333 0.937857
vt 0.458333 1.000000
vt 0.500000 0.937725
vt 0.500000 1.000000
vt 0.541667 0.937629
vt 0.541667 1.000000
vt 0.416667 0.687500
vt 0.416667 0.750000
vt 0.458333 0.687500
vt 0.458333 0.750000
vt 0.500000 0.687500
vt 0.500000 0.750000
vt 0.541667 0.687500
vt 0.541667 0.750000
vt 0.458333 0.812532
vt 0.416667 0.811745
vt 0.500000 0.812520
vt 0.541667 0.812511
vt 0.583333 0.812505
vt 0.625000 0.812500
vt 0.375000 0.812500
vt 0.458333 0.875155
vt 0.416667 0.873100
vt 0.500000 0.875097
vt 0.541667 0.875055
vt 0.583333 0.875024
vt 0.625000 0.875000
vt 0.375000 0.875000
vt 0.416667 0.625000
vt 0.458333 0.625000
vt 0.500000 0.625000
vt 0.541667 0.625000
vt 0.583333 0.625000
vt 0.416667 0.562500
vt 0.458333 0.562500
vt 0.500000 0.562500
vt 0.541667 0.562500
vt 0.583333 0.562500
vn -0.9872 -0.0487 -0.1520
vn 0.8678 -0.4542 -0.2018
vn 0.4662 -0.5920 0.6575
vn -0.7042 -0.5666 0.4278
vn 0.0045 -0.9871 0.1600
vn 0.0000 1.0000 0.0000
vn 0.0000 -0.9983 -0.0582
vn 0.0000 -1.0000 0.0000
vn 0.6979 -0.7033 -0.1352
vn 0.7411 -0.6493 -0.1710
vn 0.6964 -0.7090 -0.1111
vn 0.7696 -0.6320 -0.0908
vn 0.8271 -0.5474 -0.1272
vn 0.8587 -0.5105 -0.0445
vn 0.5650 -0.8098 -0.1582
vn 0.6010 -0.7813 -0.1683
vn 0.6402 -0.7470 -0.1793
vn 0.6826 -0.7054 -0.1911
vn 0.9578 -0.2849 -0.0389
vn 0.5057 -0.8497 -0.1497
vn 0.5537 -0.8228 -0.1278
vn 0.5759 -0.8066 -0.1329
vn 0.6875 -0.7172 -0.1138
vn 0.8888 -0.4552 -0.0532
vn 0.5484 -0.8244 -0.1402
vn 0.6815 -0.7180 -0.1415
vn 0.7028 -0.6962 -0.1459
vn 0.6908 -0.7146 -0.1102
vn 0.9255 -0.3698 -0.0820
vn 0.6811 -0.7201 -0.1322
vn 0.6980 -0.7032 -0.1354
vn 0.7152 -0.6850 -0.1388
vn 0.7328 -0.6654 -0.1422
vn 0.9801 -0.1633 -0.1131
vn 0.8230 -0.5473 -0.1524
vn 0.8382 -0.5229 -0.1552
vn 0.8532 -0.4971 -0.1580
vn 0.8679 -0.4700 -0.1607
vn 0.9872 -0.0487 -0.1520
vn 0.9480 -0.2693 -0.1696
vn 0.9561 -0.2381 -0.1711
vn 0.9632 -0.2061 -0.1724
vn 0.9695 -0.1734 -0.1735
vn -0.8587 -0.5105 -0.0445
vn -0.9578 -0.2849 -0.0389
vn -0.8888 -0.4552 -0.0532
vn -0.9255 -0.3698 -0.0820
vn -0.9801 -0.1633 -0.1131
vn -0.6376 -0.7509 -0.1721
vn -0.6826 -0.7054 -0.1911
vn -0.6402 -0.7470 -0.1793
vn -0.6010 -0.7813 -0.1683
vn -0.5650 -0.8098 -0.1582
vn -0.7688 -0.6046 -0.2085
vn -0.6875 -0.7172 -0.1138
vn -0.5759 -0.8066 -0.1329
vn -0.5537 -0.8228 -0.1278
vn -0.5057 -0.8497 -0.1497
vn -0.6964 -0.7090 -0.1111
vn -0.6908 -0.7146 -0.1102
vn -0.7028 -0.6962 -0.1459
vn -0.6815 -0.7180 -0.1415
vn -0.5484 -0.8244 -0.1402
vn -0.7696 -0.6320 -0.0908
vn -0.7328 -0.6654 -0.1422
vn -0.7152 -0.6850 -0.1388
vn -0.6980 -0.7032 -0.1354
vn -0.6811 -0.7201 -0.1322
vn -0.8271 -0.5474 -0.1272
vn -0.8679 -0.4700 -0.1607
vn -0.8532 -0.4971 -0.1580
vn -0.8382 -0.5229 -0.1552
vn -0.8230 -0.5473 -0.1524
vn -0.8678 -0.4542 -0.2018
vn -0.9695 -0.1734 -0.1735
vn -0.9632 -0.2061 -0.1724
vn -0.9561 -0.2381 -0.1711
vn -0.9480 -0.2693 -0.1696
vn -0.5053 -0.6543 0.5627
vn -0.6249 -0.4918 0.6063
vn -0.6646 -0.5460 0.5101
vn -0.6602 -0.5436 0.5183
vn -0.6374 -0.6329 0.4395
vn 0.4429 -0.6675 0.5985
vn 0.4419 -0.6471 0.6212
vn 0.4614 -0.5932 0.6597
vn 0.4869 -0.5862 0.6475
vn 0.4473 -0.6463 0.6182
vn -0.4378 -0.6351 0.6364
vn -0.4614 -0.5932 0.6597
vn -0.4869 -0.5862 0.6475
vn -0.4473 -0.6463 0.6182
vn -0.4662 -0.5920 0.6575
vn -0.4088 -0.6859 0.6020
vn -0.4899 -0.6278 0.6049
vn -0.5682 -0.5419 0.6193
vn -0.5793 -0.5405 0.6101
vn -0.5136 -0.6719 0.5336
vn -0.5934 -0.5386 0.5981
vn -0.3982 -0.6322 0.6646
vn -0.5217 -0.5765 0.6289
vn -0.5783 -0.5214 0.6275
vn -0.5875 -0.5231 0.6174
vn -0.5230 -0.6573 0.5425
vn -0.5994 -0.5253 0.6040
vn -0.4908 -0.5719 0.6573
vn 0.4751 -0.6669 0.5740
vn 0.5681 -0.5419 0.6193
vn 0.5793 -0.5405 0.6101
vn 0.5136 -0.6719 0.5336
vn 0.5934 -0.5386 0.5981
vn 0.4437 -0.5962 0.6691
vn 0.4917 -0.6432 0.5870
vn 0.5783 -0.5214 0.6275
vn 0.5875 -0.5232 0.6174
vn 0.5230 -0.6573 0.5425
vn 0.5994 -0.5253 0.6040
vn 0.5436 -0.5142 0.6634
vn 0.5801 -0.5929 0.5586
vn 0.6642 -0.5459 0.5107
vn 0.6599 -0.5436 0.5186
vn 0.6372 -0.6329 0.4397
vn 0.7041 -0.5667 0.4279
vn 0.5716 -0.5719 0.5884
usemtl None
s off
f 93/1/1 23/2/1 4/3/1 24/4/1
f 68/5/2 38/6/2 8/7/2 39/8/2
f 126/9/3 104/10/3 6/11/3 94/12/3
f 121/13/4 110/14/4 2/15/4 18/16/4
f 29/17/5 7/18/5 101/19/5 100/20/5 99/21/5 5/22/5 107/23/5 106/24/5 105/25/5 1/26/5 13/27/5
f 34/28/6 4/29/6 23/30/6
f 8/7/6 38/31/6 19/32/6 2/33/6 110/34/6 109/35/6 108/36/6 6/11/6 104/10/6 103/37/6 102/38/6
f 38/31/6 37/39/6 20/40/6 19/32/6
f 37/39/6 36/41/6 21/42/6 20/40/6
f 36/41/6 35/43/6 22/44/6 21/42/6
f 35/43/6 34/28/6 23/30/6 22/44/6
f 3/45/7 33/46/7 9/47/7
f 33/46/8 32/48/8 10/49/8 9/47/8
f 32/48/8 31/50/8 11/51/8 10/49/8
f 31/50/8 30/52/8 12/53/8 11/51/8
f 30/52/8 29/17/8 13/27/8 12/53/8
f 29/54/9 48/55/9 43/56/9 7/18/9
f 48/55/10 53/57/10 42/58/10 43/56/10
f 53/57/11 58/59/11 41/60/11 42/58/11
f 58/59/12 63/61/12 40/62/12 41/60/12
f 63/61/13 68/5/13 39/8/13 40/62/13
f 3/63/14 28/64/14 44/65/14 33/66/14
f 33/66/15 44/65/15 45/67/15 32/68/15
f 32/68/16 45/67/16 46/69/16 31/70/16
f 31/70/17 46/69/17 47/71/17 30/72/17
f 30/72/18 47/71/18 48/55/18 29/54/18
f 28/64/19 27/73/19 49/74/19 44/65/19
f 44/65/20 49/74/20 50/75/20 45/67/20
f 45/67/21 50/75/21 51/76/21 46/69/21
f 46/69/22 51/76/22 52/77/22 47/71/22
f 47/71/23 52/77/23 53/57/23 48/55/23
f 27/73/24 26/78/24 54/79/24 49/74/24
f 49/74/25 54/79/25 55/80/25 50/75/25
f 50/75/26 55/80/26 56/81/26 51/76/26
f 51/76/27 56/81/27 57/82/27 52/77/27
f 52/77/28 57/82/28 58/59/28 53/57/28
f 26/78/29 25/83/29 59/84/29 54/79/29
f 54/79/30 59/84/30 60/85/30 55/80/30
f 55/80/31 60/85/31 61/86/31 56/81/31
f 56/81/32 61/86/32 62/87/32 57/82/32
f 57/82/33 62/87/33 63/61/33 58/59/33
f 25/83/34 24/4/34 64/88/34 59/84/34
f 59/84/35 64/88/35 65/89/35 60/85/35
f 60/85/36 65/89/36 66/90/36 61/86/36
f 61/86/37 66/90/37 67/91/37 62/87/37
f 62/87/38 67/91/38 68/5/38 63/61/38
f 24/4/39 4/3/39 34/92/39 64/88/39
f 64/88/40 34/92/40 35/93/40 65/89/40
f 65/89/41 35/93/41 36/94/41 66/90/41
f 66/90/42 36/94/42 37/95/42 67/91/42
f 67/91/43 37/95/43 38/6/43 68/5/43
f 9/96/44 73/97/44 28/64/44 3/63/44
f 73/97/45 78/98/45 27/73/45 28/64/45
f 78/98/46 83/99/46 26/78/46 27/73/46
f 83/99/47 88/100/47 25/83/47 26/78/47
f 88/100/48 93/1/48 24/4/48 25/83/48
f 1/101/49 14/102/49 69/103/49 13/104/49
f 13/104/50 69/103/50 70/105/50 12/106/50
f 12/106/51 70/105/51 71/107/51 11/108/51
f 11/108/52 71/107/52 72/109/52 10/110/52
f 10/110/53 72/109/53 73/97/53 9/96/53
f 14/102/54 15/111/54 74/112/54 69/103/54
f 69/103/55 74/112/55 75/113/55 70/105/55
f 70/105/56 75/113/56 76/114/56 71/107/56
f 71/107/57 76/114/57 77/115/57 72/109/57
f 72/109/58 77/115/58 78/98/58 73/97/58
f 15/111/59 16/116/59 79/117/59 74/112/59
f 74/112/60 79/117/60 80/118/60 75/113/60
f 75/113/61 80/118/61 81/119/61 76/114/61
f 76/114/62 81/119/62 82/120/62 77/115/62
f 77/115/63 82/120/63 83/99/63 78/98/63
f 16/116/64 17/121/64 84/122/64 79/117/64
f 79/117/65 84/122/65 85/123/65 80/118/65
f 80/118/66 85/123/66 86/124/66 81/119/66
f 81/119/67 86/124/67 87/125/67 82/120/67
f 82/120/68 87/125/68 88/100/68 83/99/68
f 17/121/69 18/126/69 89/127/69 84/122/69
f 84/122/70 89/127/70 90/128/70 85/123/70
f 85/123/71 90/128/71 91/129/71 86/124/71
f 86/124/72 91/129/72 92/130/72 87/125/72
f 87/125/73 92/130/73 93/1/73 88/100/73
f 18/126/74 2/131/74 19/132/74 89/127/74
f 89/127/75 19/132/75 20/133/75 90/128/75
f 90/128/76 20/133/76 21/134/76 91/129/76
f 91/129/77 21/134/77 22/135/77 92/130/77
f 92/130/78 22/135/78 23/2/78 93/1/78
f 105/136/79 125/137/79 14/138/79 1/139/79
f 125/137/80 124/140/80 15/141/80 14/138/80
f 124/140/81 123/142/81 16/143/81 15/141/81
f 123/142/82 122/144/82 17/145/82 16/143/82
f 122/144/83 121/13/83 18/16/83 17/145/83
f 99/21/84 130/146/84 98/147/84 5/22/84
f 130/146/85 129/148/85 97/149/85 98/147/85
f 129/148/86 128/150/86 96/151/86 97/149/86
f 128/150/87 127/152/87 95/153/87 96/151/87
f 127/152/88 126/9/88 94/12/88 95/153/88
f 98/147/89 97/149/89 114/154/89 115/155/89
f 97/149/90 96/151/90 113/156/90 114/154/90
f 96/151/91 95/153/91 112/157/91 113/156/91
f 95/153/92 94/12/92 111/158/92 112/157/92
f 94/12/93 6/11/93 108/159/93 111/158/93
f 5/22/94 98/147/94 115/155/94 107/160/94
f 115/155/95 114/154/95 119/161/95 120/162/95
f 114/154/96 113/156/96 118/163/96 119/161/96
f 113/156/97 112/157/97 117/164/97 118/163/97
f 112/157/98 111/158/98 116/165/98 117/164/98
f 111/158/99 108/159/99 109/166/99 116/165/99
f 107/160/100 115/155/100 120/162/100 106/167/100
f 120/162/101 119/161/101 124/140/101 125/137/101
f 119/161/102 118/163/102 123/142/102 124/140/102
f 118/163/103 117/164/103 122/144/103 123/142/103
f 117/164/104 116/165/104 121/13/104 122/144/104
f 116/165/105 109/166/105 110/14/105 121/13/105
f 106/167/106 120/162/106 125/137/106 105/136/106
f 135/168/107 134/169/107 129/148/107 130/146/107
f 134/169/108 133/170/108 128/150/108 129/148/108
f 133/170/109 132/171/109 127/152/109 128/150/109
f 132/171/110 131/172/110 126/9/110 127/152/110
f 131/172/111 103/37/111 104/10/111 126/9/111
f 100/20/112 135/168/112 130/146/112 99/21/112
f 140/173/113 139/174/113 134/169/113 135/168/113
f 139/174/114 138/175/114 133/170/114 134/169/114
f 138/175/115 137/176/115 132/171/115 133/170/115
f 137/176/116 136/177/116 131/172/116 132/171/116
f 136/177/117 102/38/117 103/37/117 131/172/117
f 101/19/118 140/173/118 135/168/118 100/20/118
f 43/56/119 42/58/119 139/174/119 140/173/119
f 42/58/120 41/60/120 138/175/120 139/174/120
f 41/60/121 40/62/121 137/176/121 138/175/121
f 40/62/122 39/8/122 136/177/122 137/176/122
f 39/8/123 8/7/123 102/38/123 136/177/123
f 7/18/124 43/56/124 140/173/124 101/19/124
