# Blender v3.2.1 OBJ File: 'WallNew.blend'
# www.blender.org
mtllib NewDoor_low.mtl
o Door_low_Cube.007
v -0.230000 -0.108554 0.230054
v -0.230000 -0.151837 0.230054
v 0.230000 -0.151837 0.230054
v 0.230000 -0.108554 0.230054
v 0.230000 -0.151837 -0.229946
v 0.230000 -0.108554 -0.229946
v -0.230000 -0.108554 -0.229946
v -0.230000 -0.151837 -0.229946
v -0.207000 -0.151837 0.000054
v 0.000000 -0.151837 0.207054
v 0.207000 -0.151837 0.000054
v 0.000000 -0.151837 -0.206946
v -0.000000 -0.151837 0.140814
v 0.140760 -0.151837 0.000054
v -0.000000 -0.151837 -0.140706
v -0.140760 -0.151837 0.000054
v -0.000000 -0.166837 0.000054
v -0.070380 -0.151837 0.121956
v -0.053866 -0.151837 0.130099
v -0.130046 -0.151837 -0.053812
v -0.121902 -0.151837 -0.070326
v 0.018373 -0.151837 -0.139502
v 0.036431 -0.151837 -0.135910
v -0.085690 -0.151837 0.111726
v -0.139556 -0.151837 -0.018319
v -0.135963 -0.151837 -0.036378
v 0.021615 -0.151837 0.207054
v 0.018373 -0.151837 0.139610
v -0.207000 -0.151837 -0.021562
v -0.018373 -0.151837 -0.139502
v -0.021615 -0.151837 -0.206946
v -0.111673 -0.151837 -0.085636
v -0.036431 -0.151837 0.136017
v -0.099532 -0.151837 0.099586
v -0.111673 -0.151837 0.085743
v 0.099532 -0.151837 -0.099478
v 0.111673 -0.151837 -0.085636
v 0.207000 -0.151837 0.021669
v 0.207000 -0.151837 0.207054
v -0.099532 -0.151837 -0.099478
v -0.085690 -0.151837 -0.111619
v 0.021615 -0.151837 -0.206946
v 0.207000 -0.151837 -0.206946
v 0.085690 -0.151837 -0.111619
v -0.121902 -0.151837 0.070434
v -0.207000 -0.151837 0.021669
v -0.139556 -0.151837 0.018427
v 0.207000 -0.151837 -0.021562
v 0.139556 -0.151837 -0.018319
v -0.070380 -0.151837 -0.121848
v 0.121902 -0.151837 -0.070326
v 0.053866 -0.151837 0.130099
v 0.036431 -0.151837 0.136017
v 0.099532 -0.151837 0.099586
v 0.085690 -0.151837 0.111726
v -0.135963 -0.151837 0.036485
v -0.130046 -0.151837 0.053920
v -0.207000 -0.151837 -0.206946
v 0.139556 -0.151837 0.018427
v 0.135963 -0.151837 0.036485
v 0.111673 -0.151837 0.085743
v -0.021615 -0.151837 0.207054
v -0.018373 -0.151837 0.139610
v 0.070380 -0.151837 0.121956
v 0.053866 -0.151837 -0.129992
v 0.070380 -0.151837 -0.121848
v 0.130046 -0.151837 0.053920
v 0.121902 -0.151837 0.070434
v -0.053866 -0.151837 -0.129992
v -0.036431 -0.151837 -0.135910
v 0.130046 -0.151837 -0.053812
v 0.135963 -0.151837 -0.036378
v -0.207000 -0.151837 0.207054
vt -0.000780 0.585489
vt -0.000780 0.491395
vt 0.999220 0.491395
vt 0.999220 0.585489
vt -0.000662 0.585489
vt -0.000662 0.491395
vt 0.999338 0.491395
vt 0.999338 0.585489
vt 0.999338 0.585489
vt 0.999338 0.491395
vt -0.000662 0.491395
vt -0.000662 0.585489
vt -0.000780 -0.000662
vt 0.999220 -0.000662
vt 0.999220 0.999338
vt -0.000780 0.999338
vt 0.049220 0.949338
vt 0.049220 0.546328
vt 0.049220 0.499338
vt 0.049220 0.452348
vt 0.049220 0.049338
vt -0.000780 -0.000662
vt -0.000780 0.999338
vt 0.452230 0.049338
vt 0.499220 0.049338
vt 0.546210 0.049338
vt 0.949220 0.049338
vt 0.999220 -0.000662
vt 0.949220 0.452348
vt 0.949220 0.499338
vt 0.949220 0.546328
vt 0.949220 0.949338
vt 0.999220 0.999338
vt 0.546210 0.949338
vt 0.499220 0.949338
vt 0.452230 0.949338
vt 0.999220 0.585489
vt 0.999220 0.491395
vt -0.000780 0.491395
vt -0.000780 0.585489
vt 0.499220 0.193338
vt 0.539161 0.195956
vt 0.805220 0.499338
vt 0.802602 0.539279
vt 0.499220 0.805338
vt 0.459278 0.802720
vt 0.539161 0.802720
vt 0.195838 0.459396
vt 0.193220 0.499338
vt 0.195838 0.539279
vt 0.802602 0.459396
vt 0.459278 0.195956
vt 0.203647 0.578537
vt 0.420021 0.794910
vt 0.382120 0.782046
vt 0.346220 0.764342
vt 0.312938 0.742104
vt 0.282846 0.715712
vt 0.256453 0.685619
vt 0.234215 0.652338
vt 0.216512 0.616438
vt 0.794792 0.420139
vt 0.578419 0.203765
vt 0.616320 0.216630
vt 0.652220 0.234333
vt 0.685502 0.256571
vt 0.715594 0.282964
vt 0.741986 0.313056
vt 0.764224 0.346338
vt 0.781928 0.382238
vt 0.420021 0.203765
vt 0.203647 0.420139
vt 0.216512 0.382238
vt 0.234215 0.346338
vt 0.256453 0.313056
vt 0.282846 0.282964
vt 0.312938 0.256571
vt 0.346220 0.234333
vt 0.382120 0.216630
vt 0.499220 0.499338
vt 0.578419 0.794910
vt 0.616320 0.782046
vt 0.652220 0.764342
vt 0.685502 0.742104
vt 0.715594 0.715712
vt 0.741986 0.685619
vt 0.764224 0.652338
vt 0.781928 0.616438
vt 0.794792 0.578537
vn 0.0000 -0.0000 1.0000
vn 1.0000 -0.0000 0.0000
vn -1.0000 -0.0000 0.0000
vn 0.0000 1.0000 -0.0000
vn -0.0000 -1.0000 0.0000
vn 0.0000 0.0000 -1.0000
vn 0.4866 -0.7256 -0.4865
vn 0.5327 -0.7270 -0.4333
vn 0.5887 -0.7280 -0.3513
vn 0.6330 -0.7284 -0.2621
vn 0.6647 -0.7280 -0.1679
vn 0.2564 -0.9238 0.2843
vn -0.0461 -0.9989 -0.0014
vn 0.0015 -0.9989 -0.0478
vn 0.0253 -0.9978 -0.0610
vn 0.0198 -0.9987 -0.0479
vn 0.0339 -0.9989 -0.0339
vn -0.3467 -0.8559 -0.3838
vn -0.7256 -0.6559 -0.2081
vn -0.6962 -0.6553 -0.2932
vn -0.6564 -0.6553 -0.3738
vn -0.6069 -0.6558 -0.4489
vn -0.5484 -0.6569 -0.5174
vn -0.4616 -0.6578 -0.5951
vn 0.0470 -0.9989 0.0000
vn 0.3489 -0.8563 0.3807
vn 0.7274 -0.6552 0.2041
vn 0.6982 -0.6549 0.2892
vn 0.6587 -0.6552 0.3700
vn 0.6095 -0.6560 0.4453
vn 0.5326 -0.6577 0.5327
vn 0.0479 -0.9987 -0.0198
vn 0.0610 -0.9978 -0.0253
vn -0.3660 -0.6552 -0.6609
vn -0.2851 -0.6547 -0.7001
vn -0.2000 -0.6547 -0.7290
vn -0.3774 -0.8569 -0.3511
vn -0.0000 -0.9989 0.0470
vn -0.2843 -0.9238 -0.2564
vn 0.1679 -0.7280 -0.6647
vn 0.2621 -0.7284 -0.6330
vn 0.3513 -0.7280 -0.5887
vn 0.4333 -0.7270 -0.5327
vn 0.4453 -0.6560 0.6095
vn 0.3700 -0.6552 0.6587
vn 0.2892 -0.6549 0.6982
vn 0.2041 -0.6552 0.7274
vn 0.3807 -0.8563 0.3489
usemtl door.006
s off
f 1/1/1 2/2/1 3/3/1 4/4/1
f 4/5/2 3/6/2 5/7/2 6/8/2
f 7/9/3 8/10/3 2/11/3 1/12/3
f 1/13/4 4/14/4 6/15/4 7/16/4
f 58/17/5 29/18/5 9/19/5 46/20/5 73/21/5 2/22/5 8/23/5
f 73/21/5 62/24/5 10/25/5 27/26/5 39/27/5 3/28/5 2/22/5
f 39/27/5 38/29/5 11/30/5 48/31/5 43/32/5 5/33/5 3/28/5
f 43/32/5 42/34/5 12/35/5 31/36/5 58/17/5 8/23/5 5/33/5
f 6/37/6 5/38/6 8/39/6 7/40/6
f 13/41/5 28/42/5 27/26/5 10/25/5
f 14/43/5 49/44/5 48/31/5 11/30/5
f 15/45/5 30/46/5 31/36/5 12/35/5
f 42/34/5 22/47/5 15/45/5 12/35/5
f 47/48/5 46/20/5 9/19/5 16/49/5
f 29/18/5 25/50/5 16/49/5 9/19/5
f 38/29/5 59/51/5 14/43/5 11/30/5
f 62/24/5 63/52/5 13/41/5 10/25/5
f 26/53/5 25/50/5 29/18/5 58/17/5 31/36/5 30/46/5 70/54/5 69/55/5 50/56/5 41/57/5 40/58/5 32/59/5 21/60/5 20/61/5
f 60/62/5 59/51/5 38/29/5 39/27/5 27/26/5 28/42/5 53/63/5 52/64/5 64/65/5 55/66/5 54/67/5 61/68/5 68/69/5 67/70/5
f 33/71/5 63/52/5 62/24/5 73/21/5 46/20/5 47/48/5 56/72/5 57/73/5 45/74/5 35/75/5 34/76/5 24/77/5 18/78/5 19/79/5
s 1
f 17/80/5 34/76/7 35/75/8 45/74/9 57/73/10 56/72/11 47/48/12 16/49/13
f 17/80/5 15/45/14 22/47/15 23/81/16 65/82/16 66/83/16 44/84/16 36/85/17
f 17/80/5 16/49/13 25/50/18 26/53/19 20/61/20 21/60/21 32/59/22 40/58/23 41/57/24
f 17/80/5 14/43/25 59/51/26 60/62/27 67/70/28 68/69/29 61/68/30 54/67/31
f 14/43/25 17/80/5 36/85/17 37/86/32 51/87/32 71/88/32 72/89/32 49/44/33
f 15/45/14 17/80/5 41/57/24 50/56/34 69/55/35 70/54/36 30/46/37
f 13/41/38 63/52/39 33/71/40 19/79/41 18/78/42 24/77/43 34/76/7 17/80/5
f 13/41/38 17/80/5 54/67/31 55/66/44 64/65/45 52/64/46 53/63/47 28/42/48
f 43/32/5 48/31/5 49/44/33 72/89/32 71/88/32 51/87/32 37/86/32 36/85/17 44/84/16 66/83/16 65/82/16 23/81/16 22/47/15 42/34/5
