# Blender v3.2.1 OBJ File: 'WallNew.blend'
# www.blender.org
mtllib WallNew_low.mtl
o Wall_low_Cube_Cube.006
v -1.200000 0.050000 -1.200000
v -1.000000 -0.150000 -1.000000
v -1.000000 -0.150000 1.000000
v -1.200000 0.050000 1.200000
v 1.000000 -0.150000 1.000000
v 1.200000 0.050000 1.200000
v 1.000000 -0.150000 -1.000000
v 1.200000 0.050000 -1.200000
v 0.970000 -0.150000 -0.970000
v -0.970000 -0.150000 -0.970000
v 0.970000 -0.150000 0.970000
v -0.970000 -0.150000 0.970000
v 0.228575 -0.150000 0.228575
v 0.228575 -0.150000 -0.228575
v -0.228575 -0.150000 -0.228575
v -0.228575 -0.150000 0.228575
v 0.288575 -0.150000 -0.288575
v -0.288575 -0.150000 -0.288575
v 0.288575 -0.150000 0.288575
v -0.288575 -0.150000 0.288575
v 0.228575 0.050000 0.228575
v 0.228575 0.050000 -0.228575
v -0.228575 0.050000 -0.228575
v -0.228575 0.050000 0.228575
v 0.228575 -0.100000 0.228575
v -0.228575 -0.100000 0.228575
v -0.228575 -0.100000 -0.228575
v 0.228575 -0.100000 -0.228575
v 0.273477 -0.150000 -0.273477
v -0.273477 -0.150000 -0.273477
v 0.273477 -0.150000 0.273477
v -0.273477 -0.150000 0.273477
v -0.228575 0.050000 1.200000
v 0.228575 0.050000 -1.200000
v -0.228575 0.050000 -1.200000
v 0.228575 0.050000 1.200000
v -1.200000 0.050000 0.228575
v -1.200000 0.050000 -0.228575
v 1.200000 0.050000 -0.228575
v 1.200000 0.050000 0.228575
vt 0.909918 0.090082
vt 0.922418 0.077582
vt 0.089084 0.077582
vt 0.101584 0.090082
vt 0.089084 0.910916
vt 0.101584 0.898416
vt 0.909918 0.898416
vt 0.922418 0.910916
vt 0.410511 0.512950
vt 0.600991 0.512950
vt 0.600991 0.533784
vt 0.410511 0.533784
vt 0.512950 0.589489
vt 0.512950 0.399009
vt 0.533784 0.399009
vt 0.533784 0.589489
vt 0.600991 0.512950
vt 0.410511 0.512950
vt 0.410511 0.533784
vt 0.600991 0.533784
vt 0.512950 0.399009
vt 0.512950 0.589489
vt 0.533784 0.589489
vt 0.533784 0.399009
vt 0.450450 0.589489
vt 0.450450 0.399009
vt 0.450450 0.589489
vt 0.450450 0.399009
vt 0.410511 0.450450
vt 0.600991 0.450450
vt 0.600991 0.450450
vt 0.410511 0.450450
vt 0.410511 0.589489
vt 0.410511 0.399009
vt 0.391802 0.380300
vt 0.391802 0.608198
vt 0.600991 0.589489
vt 0.619699 0.608198
vt 0.619699 0.380300
vt 0.600991 0.399009
vt 0.385511 0.614489
vt 0.625991 0.614489
vt 1.005751 0.994249
vt 0.600991 0.589489
vt 1.005751 0.589489
vt 0.410511 0.589489
vt 0.600991 0.994249
vt 0.410511 0.994249
vt 0.005751 -0.005751
vt 0.410511 0.399009
vt 0.005751 0.399009
vt 0.410511 -0.005751
vt 1.005751 -0.005751
vt 0.600991 0.399009
vt 0.600990 -0.005751
vt 0.005751 0.994249
vt 0.005751 0.589489
vt 1.005751 0.399009
vt 0.385511 0.533784
vt 0.101584 0.533784
vt 0.391802 0.533784
vt 0.625991 0.374009
vt 0.385511 0.374009
vn 0.0000 -1.0000 -0.0000
vn 0.0000 0.0000 -1.0000
vn 1.0000 0.0000 0.0000
vn 0.0000 0.0000 1.0000
vn -1.0000 0.0000 0.0000
vn 0.0000 1.0000 -0.0000
vn -0.0075 1.0000 0.0000
usemtl Wall.003
s off
f 11/1/1 5/2/1 3/3/1 12/4/1
f 12/4/1 3/3/1 2/5/1 10/6/1
f 9/7/1 10/6/1 2/5/1 7/8/1
f 26/9/2 25/10/2 13/11/2 16/12/2
f 27/13/3 26/14/3 16/15/3 15/16/3
f 28/17/4 27/18/4 15/19/4 14/20/4
f 25/21/5 28/22/5 14/23/5 13/24/5
f 26/14/3 27/13/3 23/25/3 24/26/3
f 22/27/5 28/22/5 25/21/5 21/28/5
f 26/9/2 24/29/2 21/30/2 25/10/2
f 27/18/4 28/17/4 22/31/4 23/32/4
f 15/33/1 16/34/1 32/35/1 30/36/1
f 14/37/1 29/38/1 31/39/1 13/40/1
f 13/40/1 31/39/1 32/35/1 16/34/1
f 14/37/1 15/33/1 30/36/1 29/38/1
f 30/36/1 18/41/1 17/42/1 29/38/1
f 7/8/1 5/2/1 11/1/1 9/7/1
f 8/43/6 22/44/6 39/45/6
f 23/46/6 22/44/6 34/47/6 35/48/6
f 4/49/6 24/50/6 37/51/6
f 24/50/6 4/49/6 33/52/6
f 6/53/6 21/54/6 36/55/6
f 34/47/6 22/44/6 8/43/6
f 23/46/6 35/48/6 1/56/6
f 36/55/6 21/54/6 24/50/6 33/52/6
f 37/51/6 24/50/6 23/46/6 38/57/6
f 38/57/6 23/46/6 1/56/6
f 39/45/6 22/44/6 21/54/6 40/58/6
f 18/59/7 10/60/7 30/61/7
f 21/54/6 6/53/6 40/58/6
f 10/6/1 9/7/1 17/42/1 18/41/1
f 32/35/1 31/39/1 19/62/1 20/63/1
f 12/4/1 20/63/1 19/62/1 11/1/1
f 20/63/1 18/41/1 30/36/1 32/35/1
f 12/4/1 10/6/1 18/41/1 20/63/1
f 31/39/1 29/38/1 17/42/1 19/62/1
f 11/1/1 19/62/1 17/42/1 9/7/1
l 1 2
l 3 4
l 5 6
l 7 8
