# Blender v3.2.1 OBJ File: 'WallNew.blend'
# www.blender.org
mtllib WallNew_low.mtl
o Wall_low_Cube_Cube.006
v -1.200000 0.050000 -1.200000
v -1.000000 -0.150000 -1.000000
v -1.000000 -0.150000 1.000000
v -1.200000 0.050000 1.200000
v 1.000000 -0.150000 1.000000
v 1.200000 0.050000 1.200000
v 1.000000 -0.150000 -1.000000
v 1.200000 0.050000 -1.200000
v 0.970000 -0.150000 -0.970000
v -0.970000 -0.150000 -0.970000
v 0.970000 -0.150000 0.970000
v -0.970000 -0.150000 0.970000
v 0.228575 -0.150000 0.228575
v 0.228575 -0.150000 -0.228575
v -0.228575 -0.150000 -0.228575
v -0.228575 -0.150000 0.228575
v 0.288575 -0.150000 -0.288575
v -0.288575 -0.150000 -0.288575
v 0.288575 -0.150000 0.288575
v -0.288575 -0.150000 0.288575
v 0.228575 0.050000 0.228575
v 0.228575 0.050000 -0.228575
v -0.228575 0.050000 -0.228575
v -0.228575 0.050000 0.228575
v 0.228575 -0.100000 0.228575
v -0.228575 -0.100000 0.228575
v -0.228575 -0.100000 -0.228575
v 0.228575 -0.100000 -0.228575
v 0.273477 -0.150000 -0.273477
v -0.273477 -0.150000 -0.273477
v 0.273477 -0.150000 0.273477
v -0.273477 -0.150000 0.273477
v -0.228575 0.050000 1.200000
v 0.228575 0.050000 -1.200000
v -0.228575 0.050000 -1.200000
v 0.228575 0.050000 1.200000
v -1.200000 0.050000 0.228575
v -1.200000 0.050000 -0.228575
v 1.200000 0.050000 -0.228575
v 1.200000 0.050000 0.228575
vt 0.006818 0.552273
vt 0.000000 0.545455
vt 0.454545 0.545455
vt 0.447727 0.552273
vt 0.454545 1.000000
vt 0.447727 0.993182
vt 0.006818 0.993182
vt 0.000000 1.000000
vt 0.220778 0.220778
vt 0.324676 0.220778
vt 0.324676 0.220778
vt 0.220778 0.220778
vt 0.220778 0.324676
vt 0.220778 0.324676
vt 0.175324 0.824676
vt 0.279222 0.824676
vt 0.279222 0.824676
vt 0.175324 0.824676
vt 0.324676 0.324676
vt 0.324676 0.324676
vt 0.220778 0.324676
vt 0.220778 0.220778
vt 0.324676 0.324676
vt 0.324676 0.220778
vt 0.279222 0.720778
vt 0.289427 0.710573
vt 0.289426 0.834881
vt 0.165119 0.834881
vt 0.165119 0.710573
vt 0.175324 0.720778
vt 0.000000 0.000000
vt 0.000000 0.000000
vt 0.000000 0.000000
vt 0.545454 0.545455
vt 0.545455 0.324676
vt 0.324676 0.545455
vt 0.220778 0.545455
vt 0.000000 0.000000
vt 0.000000 0.220778
vt 0.220778 0.000000
vt 0.545455 0.000000
vt 0.324676 0.000000
vt 0.000000 0.545455
vt 0.000000 0.324676
vt 0.545455 0.220778
vt 0.000000 0.000000
vt 0.000000 0.000000
vt 0.000000 0.000000
vn 0.1294 -0.9878 0.0865
vn 0.0000 -1.0000 -0.0000
vn 0.0304 -0.9878 0.1527
vn -0.1527 -0.9878 0.0304
vn -0.0865 -0.9878 0.1294
vn -0.0304 -0.9878 -0.1527
vn -0.1294 -0.9878 -0.0865
vn 0.2802 -0.0184 -0.9598
vn -0.2802 -0.0184 -0.9598
vn 0.0000 0.0000 -1.0000
vn 0.9598 -0.2802 0.0184
vn 0.9598 -0.2802 -0.0184
vn 1.0000 0.0000 0.0000
vn -0.2659 -0.0903 0.9598
vn 0.2802 -0.0184 0.9598
vn 0.0000 0.0000 1.0000
vn -0.9598 -0.2802 -0.0184
vn -0.9598 -0.2659 0.0903
vn -1.0000 0.0000 0.0000
vn 0.9598 0.0184 -0.2802
vn 0.9598 0.0184 0.2802
vn 0.1160 -0.8662 0.4860
vn 0.9896 -0.1016 -0.1016
vn -0.1160 -0.4860 0.8662
vn -0.9598 0.0903 0.2659
vn -0.9598 0.0184 -0.2802
vn -0.1160 -0.8663 -0.4858
vn 0.0184 0.2802 -0.9598
vn 0.1016 -0.1016 -0.9896
vn -0.8663 -0.4858 -0.1160
vn -0.0184 0.2802 -0.9598
vn 0.0184 0.2802 0.9598
vn -0.0903 0.2659 0.9598
vn -0.4860 -0.8662 0.1160
vn 0.8662 -0.4860 0.1160
vn 0.0865 -0.9878 -0.1294
vn 0.1527 -0.9878 -0.0304
vn 0.0000 1.0000 -0.0000
vn -0.0075 1.0000 0.0000
vn -0.1474 -0.9878 0.0500
vn 0.1474 -0.9878 -0.0500
vn -0.1498 -0.9878 0.0422
vn 0.0304 -0.9878 -0.1527
vn 0.0865 -0.9878 0.1294
vn -0.1358 -0.9878 -0.0761
vn -0.0688 -0.9878 0.1396
usemtl Wall.003
s off
f 11/1/1 5/2/2 3/3/2 12/4/3
f 12/4/4 3/3/2 2/5/2 10/6/5
f 9/7/6 10/6/7 2/5/2 7/8/2
f 26/9/8 25/10/9 13/11/10 16/12/10
f 27/13/11 26/9/12 16/12/13 15/14/13
f 28/15/14 27/16/15 15/17/16 14/18/16
f 25/10/17 28/19/18 14/20/19 13/11/19
f 26/9/20 27/13/21 23/21/22 24/22/23
f 22/23/24 28/19/25 25/10/26 21/24/27
f 26/9/28 24/22/29 21/24/30 25/10/31
f 27/16/32 28/19/33 22/23/34 23/21/35
f 15/17/2 16/25/2 32/26/2 30/27/2
f 14/18/2 29/28/2 31/29/2 13/30/2
f 13/30/2 31/29/2 32/26/2 16/25/2
f 14/18/2 15/17/2 30/27/2 29/28/2
f 30/31/2 18/32/2 17/33/2 29/28/2
f 7/8/2 5/2/2 11/1/36 9/7/37
f 8/34/38 22/23/38 39/35/38
f 23/21/38 22/23/38 34/36/38 35/37/38
f 4/38/38 24/22/38 37/39/38
f 24/22/38 4/38/38 33/40/38
f 6/41/38 21/24/38 36/42/38
f 34/36/38 22/23/38 8/34/38
f 23/21/38 35/37/38 1/43/38
f 36/42/38 21/24/38 24/22/38 33/40/38
f 37/39/38 24/22/38 23/21/38 38/44/38
f 38/44/38 23/21/38 1/43/38
f 39/35/38 22/23/38 21/24/38 40/45/38
f 18/32/39 10/46/39 30/31/39
f 21/24/38 6/41/38 40/45/38
f 10/46/2 9/7/40 17/33/2 18/32/2
f 32/26/2 31/29/2 19/47/2 20/48/2
f 12/4/41 20/48/2 19/47/2 11/1/42
f 20/48/2 18/32/2 30/31/2 32/26/2
f 12/4/43 10/6/44 18/32/2 20/48/2
f 31/29/2 29/28/2 17/33/2 19/47/2
f 11/1/45 19/47/2 17/33/2 9/7/46
l 1 2
l 3 4
l 5 6
l 7 8
