# Blender v3.2.1 OBJ File: 'Wall_Four.blend'
# www.blender.org
mtllib DoorFour_mid.mtl
o Door_mid_Cube.011
v 0.190000 0.110000 0.190118
v 0.190000 0.150000 0.190118
v -0.190000 0.150000 0.190118
v -0.190000 0.110000 0.190118
v -0.169100 0.110000 0.190118
v 0.169100 0.110000 0.190118
v 0.190000 0.150000 -0.189882
v 0.190000 0.110000 -0.189882
v -0.190000 0.150000 -0.189882
v -0.190000 0.110000 -0.189882
v 0.172900 0.150000 -0.172782
v 0.172900 0.150000 0.173018
v 0.002175 0.150000 -0.121482
v 0.002175 0.150000 0.121718
v 0.121600 0.150000 0.121718
v 0.121600 0.150000 -0.121482
v 0.124431 0.149000 0.124549
v 0.124431 0.149000 -0.124313
v 0.124431 0.149000 -0.124313
v 0.124431 0.149000 0.124549
v -0.171950 0.149000 -0.171832
v -0.171950 0.149000 0.172068
v -0.171950 0.149000 0.172068
v -0.171950 0.149000 -0.171832
v 0.171950 0.149000 -0.171832
v 0.171950 0.149000 -0.171832
v -0.121600 0.150000 -0.121482
v -0.121600 0.150000 0.121718
v -0.002175 0.150000 0.121718
v -0.002175 0.150000 -0.121482
v 0.125381 0.150000 0.125499
v -0.125381 0.150000 0.125499
v -0.169100 0.150000 0.169218
v 0.169100 0.150000 0.169218
v 0.170050 0.149000 -0.169932
v 0.170050 0.149000 0.170168
v 0.170050 0.149000 0.170168
v 0.170050 0.149000 -0.169932
v -0.170050 0.149000 0.170168
v -0.170050 0.149000 0.170168
v -0.122550 0.149000 -0.122432
v -0.122550 0.149000 -0.122432
v -0.122550 0.149000 0.122668
v -0.122550 0.149000 0.122668
v -0.125381 0.150000 -0.125263
v 0.125381 0.150000 -0.125263
v 0.169100 0.150000 -0.168982
v -0.169100 0.150000 -0.168982
v -0.170050 0.149000 -0.169932
v -0.170050 0.149000 -0.169932
v 0.171950 0.149000 0.172068
v 0.171950 0.149000 0.172068
v -0.124431 0.149000 -0.124313
v -0.124431 0.149000 -0.124313
v -0.001226 0.149000 -0.122432
v -0.001226 0.149000 -0.122432
v -0.001226 0.149000 0.122668
v -0.001226 0.149000 0.122668
v -0.124431 0.149000 0.124549
v 0.001226 0.149000 -0.122432
v 0.122550 0.149000 -0.122432
v 0.122550 0.149000 0.122668
v 0.001226 0.149000 0.122668
v -0.124431 0.149000 0.124549
v -0.172900 0.150000 0.173018
v 0.001226 0.149000 0.122668
v 0.001226 0.149000 -0.122432
v -0.172900 0.150000 -0.172782
v 0.122550 0.149000 0.122668
v 0.122550 0.149000 -0.122432
v -0.170018 0.149259 -0.169900
v 0.170018 0.149259 -0.169900
v -0.169923 0.149500 -0.169805
v 0.169923 0.149500 -0.169805
v -0.169772 0.149707 -0.169654
v 0.169772 0.149707 -0.169654
v -0.169575 0.149866 -0.169457
v 0.169575 0.149866 -0.169457
v -0.169346 0.149966 -0.169228
v 0.169346 0.149966 -0.169228
v -0.171982 0.149259 -0.171865
v -0.171982 0.149259 0.172100
v -0.172077 0.149500 -0.171960
v -0.172077 0.149500 0.172195
v -0.172228 0.149707 -0.172111
v -0.172228 0.149707 0.172346
v -0.172425 0.149866 -0.172307
v -0.172425 0.149866 0.172543
v -0.172654 0.149966 -0.172536
v -0.172654 0.149966 0.172772
v 0.171982 0.149259 -0.171865
v 0.172077 0.149500 -0.171960
v 0.172228 0.149707 -0.172111
v 0.172425 0.149866 -0.172307
v 0.172654 0.149966 -0.172536
v 0.170018 0.149259 0.170135
v 0.169923 0.149500 0.170040
v 0.169772 0.149707 0.169889
v 0.169575 0.149866 0.169693
v 0.169346 0.149966 0.169464
v -0.170018 0.149259 0.170135
v -0.169923 0.149500 0.170040
v -0.169772 0.149707 0.169889
v -0.169575 0.149866 0.169693
v -0.169346 0.149966 0.169464
v 0.171982 0.149259 0.172100
v 0.172077 0.149500 0.172195
v 0.172228 0.149707 0.172346
v 0.172425 0.149866 0.172543
v 0.172654 0.149966 0.172772
v -0.124463 0.149259 -0.124346
v -0.124463 0.149259 0.124581
v -0.124558 0.149500 -0.124441
v -0.124558 0.149500 0.124676
v -0.124709 0.149707 -0.124592
v -0.124709 0.149707 0.124827
v -0.124906 0.149866 -0.124788
v -0.124906 0.149866 0.125024
v -0.125135 0.149966 -0.125017
v -0.125135 0.149966 0.125253
v 0.124463 0.149259 -0.124346
v 0.124558 0.149500 -0.124441
v 0.124709 0.149707 -0.124592
v 0.124906 0.149866 -0.124788
v 0.125135 0.149966 -0.125017
v 0.124463 0.149259 0.124581
v 0.124558 0.149500 0.124676
v 0.124709 0.149707 0.124827
v 0.124906 0.149866 0.125024
v 0.125135 0.149966 0.125253
v -0.122518 0.149259 0.122635
v -0.122518 0.149259 -0.122400
v -0.122423 0.149500 0.122540
v -0.122423 0.149500 -0.122305
v -0.122272 0.149707 0.122389
v -0.122272 0.149707 -0.122154
v -0.122075 0.149866 0.122193
v -0.122075 0.149866 -0.121957
v -0.121846 0.149966 0.121964
v -0.121846 0.149966 -0.121728
v 0.121846 0.149966 0.121964
v 0.121846 0.149966 -0.121728
v 0.122075 0.149866 0.122193
v 0.122075 0.149866 -0.121957
v 0.122272 0.149707 0.122389
v 0.122272 0.149707 -0.122154
v 0.122423 0.149500 0.122540
v 0.122423 0.149500 -0.122305
v 0.122518 0.149259 0.122635
v 0.122518 0.149259 -0.122400
v 0.001929 0.149966 0.121964
v 0.001700 0.149866 0.122193
v 0.001504 0.149707 0.122389
v 0.001353 0.149500 0.122540
v 0.001258 0.149259 0.122635
v -0.001258 0.149259 0.122635
v -0.001353 0.149500 0.122540
v -0.001504 0.149707 0.122389
v -0.001701 0.149866 0.122193
v -0.001929 0.149966 0.121964
v -0.001929 0.149966 -0.121728
v -0.001701 0.149866 -0.121957
v -0.001504 0.149707 -0.122154
v -0.001353 0.149500 -0.122305
v -0.001258 0.149259 -0.122400
v 0.001258 0.149259 -0.122400
v 0.001353 0.149500 -0.122305
v 0.001504 0.149707 -0.122154
v 0.001700 0.149866 -0.121957
v 0.001929 0.149966 -0.121728
vt 0.885246 0.728692
vt 0.846994 0.728692
vt 0.846994 0.346176
vt 0.885246 0.346176
vt 0.885246 0.367215
vt 0.885246 0.707653
vt 0.885246 0.728692
vt 0.885246 0.346176
vt 0.923497 0.346176
vt 0.923497 0.728692
vt 0.923497 0.728692
vt 0.923497 0.346176
vt 0.961749 0.346176
vt 0.961749 0.728692
vt 0.382515 0.382515
vt 0.382515 0.765031
vt 0.361477 0.765031
vt 0.021038 0.765031
vt 0.000000 0.765031
vt 0.000000 0.382515
vt 1.000000 0.728692
vt 0.961749 0.728692
vt 0.961749 0.346176
vt 1.000000 0.346176
vt 0.017213 0.017213
vt 0.017213 0.365302
vt 0.000000 0.382515
vt 0.000000 0.000000
vt 0.846038 0.347133
vt 0.846038 0.591942
vt 0.725823 0.591942
vt 0.725823 0.347133
vt 0.739211 0.250509
vt 0.739211 0.000000
vt 0.739211 0.000000
vt 0.739211 0.250509
vt 0.730604 0.346176
vt 0.730604 0.000000
vt 0.730604 0.000000
vt 0.730604 0.346176
vt 0.729648 0.346176
vt 0.729648 0.000000
vt 0.729648 0.000000
vt 0.729648 0.346176
vt 0.846038 0.593855
vt 0.846038 0.838665
vt 0.725823 0.838665
vt 0.725823 0.593855
vt 0.427480 0.643563
vt 0.679902 0.643563
vt 0.723910 0.687571
vt 0.383472 0.687571
vt 0.733473 0.342351
vt 0.733473 0.000000
vt 0.733473 0.000000
vt 0.733473 0.342351
vt 0.736342 0.342351
vt 0.736342 0.000000
vt 0.736342 0.000000
vt 0.736342 0.342351
vt 0.741123 0.000000
vt 0.741123 0.000000
vt 0.741123 0.246722
vt 0.741123 0.246722
vt 0.679902 0.391141
vt 0.427480 0.391141
vt 0.383472 0.347133
vt 0.723910 0.347133
vt 0.734429 0.342351
vt 0.734429 0.000000
vt 0.734429 0.000000
vt 0.734429 0.342351
vt 0.732517 0.346176
vt 0.732517 0.000000
vt 0.732517 0.000000
vt 0.732517 0.346176
vt 0.738254 0.250509
vt 0.738254 0.000000
vt 0.738254 0.000000
vt 0.738254 0.250509
vt 0.744948 0.122128
vt 0.744948 0.000000
vt 0.744948 0.000000
vt 0.744948 0.122128
vt 0.744948 0.244255
vt 0.744948 0.122128
vt 0.744948 0.122128
vt 0.744948 0.244255
vt 0.728692 0.000000
vt 0.728692 0.346176
vt 0.726779 0.344264
vt 0.726779 0.001913
vt 0.382515 0.346176
vt 0.382515 0.000000
vt 0.384428 0.001913
vt 0.384428 0.344264
vt 0.633025 0.688528
vt 0.633025 0.939037
vt 0.631131 0.937143
vt 0.631131 0.690421
vt 0.382515 0.688528
vt 0.509004 0.690421
vt 0.506536 0.690421
vt 0.384409 0.690421
vt 0.382515 0.939037
vt 0.384409 0.937143
vt 0.506536 0.937143
vt 0.509004 0.937143
vt 0.740167 0.250509
vt 0.740167 0.000000
vt 0.740167 0.000000
vt 0.740167 0.250509
vt 0.743992 0.246722
vt 0.743992 0.000000
vt 0.743992 0.000000
vt 0.743992 0.246722
vt 0.365302 0.365302
vt 0.382515 0.382515
vt 0.737298 0.250509
vt 0.737298 0.000000
vt 0.737298 0.000000
vt 0.737298 0.250509
vt 0.731560 0.346176
vt 0.731560 0.000000
vt 0.731560 0.000000
vt 0.731560 0.346176
vt 0.742080 0.246722
vt 0.742080 0.000000
vt 0.742080 0.000000
vt 0.742080 0.246722
vt 0.735386 0.342351
vt 0.735386 0.000000
vt 0.735386 0.000000
vt 0.735386 0.342351
vt 0.365302 0.017213
vt 0.382515 0.000000
vt 0.745905 0.122128
vt 0.745905 0.000000
vt 0.745905 0.000000
vt 0.745905 0.122128
vt 0.745905 0.244255
vt 0.745905 0.122128
vt 0.745905 0.122128
vt 0.745905 0.244255
vt 0.735138 0.342319
vt 0.735138 0.000033
vt 0.734907 0.342223
vt 0.734907 0.000128
vt 0.734429 0.342071
vt 0.734429 0.000280
vt 0.382795 0.346176
vt 0.724586 0.346176
vt 0.724388 0.346655
vt 0.382993 0.346654
vt 0.724158 0.346885
vt 0.383224 0.346885
vt 0.730357 0.346209
vt 0.730357 -0.000033
vt 0.730126 0.346304
vt 0.730126 -0.000128
vt 0.729648 0.346176
vt 0.729648 0.000000
vt 0.364346 0.364346
vt 0.364346 0.018169
vt 0.364824 0.017691
vt 0.364824 0.364824
vt 0.365055 0.017461
vt 0.365055 0.365055
vt 0.729400 0.346209
vt 0.729400 -0.000033
vt 0.729170 0.346304
vt 0.729170 -0.000128
vt 0.728692 0.346176
vt 0.728692 0.000000
vt 0.018169 0.018169
vt 0.017691 0.017691
vt 0.017461 0.017461
vt 0.733226 0.342319
vt 0.733226 0.000033
vt 0.732995 0.342223
vt 0.732995 0.000128
vt 0.732517 0.342071
vt 0.732517 0.000280
vt 0.382515 0.688247
vt 0.382515 0.346456
vt 0.382993 0.688049
vt 0.383224 0.687819
vt 0.736094 0.342319
vt 0.736094 0.000033
vt 0.735864 0.342223
vt 0.735864 0.000128
vt 0.735386 0.342071
vt 0.735386 0.000280
vt 0.724586 0.688527
vt 0.382795 0.688528
vt 0.724388 0.688049
vt 0.724158 0.687819
vt 0.731313 0.346209
vt 0.731313 -0.000033
vt 0.731082 0.346304
vt 0.731082 -0.000128
vt 0.730604 0.346176
vt 0.730604 0.000000
vt 0.018169 0.364346
vt 0.017691 0.364824
vt 0.017461 0.365055
vt 0.732269 0.346209
vt 0.732269 -0.000033
vt 0.732039 0.346304
vt 0.732039 -0.000128
vt 0.731560 0.346176
vt 0.731560 0.000000
vt 0.734182 0.342319
vt 0.734182 0.000033
vt 0.733951 0.342223
vt 0.733951 0.000128
vt 0.733473 0.342071
vt 0.733473 0.000280
vt 0.724866 0.346456
vt 0.724866 0.688247
vt 0.739919 0.250542
vt 0.739919 -0.000033
vt 0.739689 0.250637
vt 0.739689 -0.000128
vt 0.739211 0.250509
vt 0.739211 0.000000
vt 0.678945 0.642607
vt 0.678946 0.392097
vt 0.679424 0.391619
vt 0.679424 0.643085
vt 0.679654 0.391389
vt 0.679654 0.643315
vt 0.738007 0.250542
vt 0.738007 -0.000033
vt 0.737776 0.250637
vt 0.737776 -0.000128
vt 0.737298 0.250509
vt 0.737298 0.000000
vt 0.428436 0.392097
vt 0.427958 0.391619
vt 0.427727 0.391389
vt 0.738963 0.250542
vt 0.738963 -0.000033
vt 0.738733 0.250637
vt 0.738733 -0.000128
vt 0.738254 0.250509
vt 0.738254 0.000000
vt 0.428436 0.642607
vt 0.427958 0.643085
vt 0.427727 0.643315
vt 0.737051 0.250542
vt 0.737051 -0.000033
vt 0.736820 0.250637
vt 0.736820 -0.000128
vt 0.736342 0.250509
vt 0.736342 0.000000
vt 0.740876 0.246690
vt 0.740876 0.000033
vt 0.740645 0.246594
vt 0.740645 0.000128
vt 0.740167 0.246442
vt 0.740167 0.000280
vt 0.846994 0.593179
vt 0.846994 0.839341
vt 0.846516 0.839143
vt 0.846516 0.593377
vt 0.846285 0.838912
vt 0.846285 0.593607
vt 0.725575 0.592190
vt 0.725575 0.346885
vt 0.725345 0.592421
vt 0.725345 0.346655
vt 0.724867 0.592619
vt 0.724867 0.346456
vt 0.742080 0.246442
vt 0.742079 0.000280
vt 0.742558 0.000128
vt 0.742558 0.246594
vt 0.742788 0.000033
vt 0.742788 0.246690
vt 0.743036 0.000000
vt 0.743036 0.246722
vt 0.846285 0.592190
vt 0.846516 0.592421
vt 0.846714 0.592899
vt 0.725147 0.592899
vt 0.744948 0.121847
vt 0.744948 0.000280
vt 0.745426 0.000128
vt 0.745427 0.121999
vt 0.745657 0.000033
vt 0.745657 0.122095
vt 0.744701 0.244223
vt 0.744701 0.122160
vt 0.744470 0.244127
vt 0.744470 0.122256
vt 0.743992 0.243975
vt 0.743992 0.122408
vt 0.846714 0.839621
vt 0.725147 0.839621
vt 0.725345 0.839143
vt 0.725575 0.838912
vt 0.725575 0.593607
vt 0.725345 0.593377
vt 0.725147 0.592899
vt 0.846714 0.592899
vt 0.743992 0.121847
vt 0.743992 0.000280
vt 0.744470 0.000128
vt 0.744470 0.121999
vt 0.744701 0.000033
vt 0.744701 0.122095
vt 0.745657 0.244223
vt 0.745657 0.122160
vt 0.745426 0.244127
vt 0.745426 0.122256
vt 0.744948 0.243975
vt 0.744948 0.122408
vt 0.725147 0.346176
vt 0.846714 0.346176
vt 0.846516 0.346655
vt 0.846285 0.346885
vt 0.741832 0.246690
vt 0.741832 0.000033
vt 0.741601 0.246594
vt 0.741601 0.000128
vt 0.741123 0.246442
vt 0.741123 0.000280
vt 0.846994 0.346456
vt 0.846994 0.592619
vt 0.743745 0.246690
vt 0.743745 0.000033
vt 0.743514 0.246594
vt 0.743514 0.000128
vt 0.743036 0.246442
vt 0.743036 0.000280
vt 0.724867 0.839341
vt 0.724867 0.593179
vt 0.743036 0.000000
vt 0.743036 0.246722
vn 0.0000 0.0000 1.0000
vn 1.0000 0.0000 0.0000
vn -1.0000 0.0000 0.0000
vn 0.0000 -1.0000 -0.0000
vn 0.0000 0.0000 -1.0000
vn 0.0000 1.0000 0.0000
vn 0.0000 0.0000 0.0000
vn 0.0000 0.1238 -0.9923
vn -0.0000 0.3660 -0.9306
vn -0.0000 0.5891 -0.8081
vn 0.0000 0.7779 -0.6284
vn 0.0000 0.9166 -0.3997
vn 0.0000 0.9906 -0.1369
vn 0.9923 0.1242 -0.0000
vn 0.9306 0.3661 0.0000
vn 0.8081 0.5891 0.0000
vn 0.6287 0.7777 0.0000
vn 0.3996 0.9167 -0.0000
vn 0.1374 0.9905 0.0000
vn 0.0000 0.1240 0.9923
vn -0.0000 0.3662 0.9305
vn -0.0000 0.5891 0.8081
vn 0.0000 0.7779 0.6283
vn 0.0000 0.9167 0.3996
vn -0.0000 0.9905 0.1372
vn 0.9923 0.1241 0.0000
vn 0.9305 0.3662 -0.0000
vn 0.8078 0.5895 0.0000
vn 0.0000 0.1238 0.9923
vn 0.0000 0.3660 0.9306
vn 0.0000 0.5890 0.8081
vn -0.0000 0.9166 0.3998
vn 0.0000 0.9906 0.1369
vn -0.9923 0.1242 0.0000
vn -0.9306 0.3661 -0.0000
vn -0.8081 0.5891 -0.0000
vn -0.6287 0.7777 0.0000
vn -0.3996 0.9167 0.0000
vn -0.1374 0.9905 -0.0000
vn -0.0000 0.1241 -0.9923
vn 0.0000 0.3662 -0.9305
vn -0.0000 0.7779 -0.6283
vn -0.0000 0.9167 -0.3996
vn 0.0000 0.9905 -0.1373
vn -0.9923 0.1241 -0.0000
vn -0.9305 0.3662 0.0000
vn -0.8078 0.5895 0.0000
vn 0.6284 0.7779 -0.0000
vn 0.3998 0.9166 -0.0000
vn 0.1372 0.9905 0.0000
vn -0.0000 0.3661 0.9306
vn 0.0000 0.7779 0.6284
vn 0.0000 0.9167 0.3997
vn 0.0000 0.9906 0.1370
vn -0.6284 0.7779 0.0000
vn -0.3998 0.9166 0.0000
vn -0.1372 0.9905 -0.0000
vn 0.0000 0.3661 -0.9306
vn -0.0000 0.9167 -0.3997
vn 0.0000 0.9906 -0.1370
vn -0.8082 0.5890 0.0000
vn -0.6283 0.7780 -0.0000
vn -0.3997 0.9167 -0.0000
vn -0.1369 0.9906 0.0000
vn 0.1369 0.9906 0.0000
vn 0.3997 0.9167 -0.0000
vn 0.6283 0.7780 -0.0000
vn 0.8082 0.5890 0.0000
vn -0.0000 0.9906 0.1371
vn 0.0000 0.7777 0.6287
vn 0.0000 0.9906 -0.1371
vn 0.0000 0.7777 -0.6287
vn 0.0000 0.5890 -0.8081
vn -0.0000 0.1240 -0.9923
vn -0.9923 0.1238 0.0000
vn -0.9306 0.3660 0.0000
vn -0.8080 0.5892 0.0000
vn 0.9923 0.1238 0.0000
vn 0.9306 0.3660 -0.0000
vn 0.8080 0.5892 -0.0000
usemtl Door_mid
s 1
f 1/1/1 2/2/1 3/3/1 4/4/1 5/5/1 6/6/1
f 7/7/2 2/8/2 1/9/2 8/10/2
f 3/11/3 9/12/3 10/13/3 4/14/3
f 8/15/4 1/16/4 6/17/4 5/18/4 4/19/4 10/20/4
f 10/21/5 9/22/5 7/23/5 8/24/5
f 11/25/6 12/26/6 2/27/6 7/28/6
f 13/29/6 14/30/6 15/31/6 16/32/6
f 17/33/7 18/34/7 19/35/7 20/36/7
f 21/37/7 22/38/7 23/39/7 24/40/7
f 25/41/7 21/42/7 24/43/7 26/44/7
f 27/45/6 28/46/6 29/47/6 30/48/6
f 31/49/6 32/50/6 33/51/6 34/52/6
f 35/53/7 36/54/7 37/55/7 38/56/7
f 36/57/7 39/58/7 40/59/7 37/60/7
f 41/61/7 42/62/7 43/63/7 44/64/7
f 45/65/6 46/66/6 47/67/6 48/68/6
f 39/69/7 49/70/7 50/71/7 40/72/7
f 22/73/7 51/74/7 52/75/7 23/76/7
f 18/77/7 53/78/7 54/79/7 19/80/7
f 41/81/7 55/82/7 56/83/7 42/84/7
f 57/85/7 44/86/7 43/87/7 58/88/7
f 24/89/6 23/90/6 40/91/6 50/92/6
f 52/93/6 26/94/6 38/95/6 37/96/6
f 26/94/6 24/89/6 50/92/6 38/95/6
f 54/97/6 59/98/6 43/99/6 42/100/6
f 19/101/6 54/97/6 42/100/6 56/102/6 60/103/6 61/104/6
f 23/90/6 52/93/6 37/96/6 40/91/6
f 59/98/6 20/105/6 62/106/6 63/107/6 58/108/6 43/99/6
f 20/105/6 19/101/6 61/104/6 62/106/6
f 56/102/6 58/108/6 63/107/6 60/103/6
f 53/109/7 64/110/7 59/111/7 54/112/7
f 55/113/7 57/114/7 58/115/7 56/116/7
f 12/26/6 65/117/6 3/118/6 2/27/6
f 64/119/7 17/120/7 20/121/7 59/122/7
f 51/123/7 25/124/7 26/125/7 52/126/7
f 32/50/6 45/65/6 48/68/6 33/51/6
f 66/127/7 67/128/7 60/129/7 63/130/7
f 49/131/7 35/132/7 38/133/7 50/134/7
f 68/135/6 11/25/6 7/28/6 9/136/6
f 65/117/6 68/135/6 9/136/6 3/118/6
f 69/137/7 66/138/7 63/139/7 62/140/7
f 46/66/6 31/49/6 34/52/6 47/67/6
f 67/141/7 70/142/7 61/143/7 60/144/7
f 35/132/8 49/131/8 71/145/8 72/146/8
f 72/146/9 71/145/9 73/147/9 74/148/9
f 74/148/10 73/147/10 75/149/10 76/150/10
f 76/151/11 75/152/11 77/153/11 78/154/11
f 78/154/12 77/153/12 79/155/12 80/156/12
f 80/156/13 79/155/13 48/68/13 47/67/13
f 22/38/14 21/37/14 81/157/14 82/158/14
f 82/158/15 81/157/15 83/159/15 84/160/15
f 84/160/16 83/159/16 85/161/16 86/162/16
f 86/163/17 85/164/17 87/165/17 88/166/17
f 88/166/18 87/165/18 89/167/18 90/168/18
f 90/168/19 89/167/19 68/135/19 65/117/19
f 21/42/20 25/41/20 91/169/20 81/170/20
f 81/170/21 91/169/21 92/171/21 83/172/21
f 83/172/22 92/171/22 93/173/22 85/174/22
f 85/164/23 93/175/23 94/176/23 87/165/23
f 87/165/24 94/176/24 95/177/24 89/167/24
f 89/167/25 95/177/25 11/25/25 68/135/25
f 36/54/26 35/53/26 72/178/26 96/179/26
f 96/179/27 72/178/27 74/180/27 97/181/27
f 97/181/28 74/180/28 76/182/28 98/183/28
f 98/184/17 76/185/17 78/154/17 99/186/17
f 99/186/18 78/154/18 80/156/18 100/187/18
f 100/187/19 80/156/19 47/67/19 34/52/19
f 39/58/29 36/57/29 96/188/29 101/189/29
f 101/189/30 96/188/30 97/190/30 102/191/30
f 102/191/31 97/190/31 98/192/31 103/193/31
f 103/194/23 98/195/23 99/186/23 104/196/23
f 104/196/32 99/186/32 100/187/32 105/197/32
f 105/197/33 100/187/33 34/52/33 33/51/33
f 25/124/34 51/123/34 106/198/34 91/199/34
f 91/199/35 106/198/35 107/200/35 92/201/35
f 92/201/36 107/200/36 108/202/36 93/203/36
f 93/175/37 108/204/37 109/205/37 94/176/37
f 94/176/38 109/205/38 110/206/38 95/177/38
f 95/177/39 110/206/39 12/26/39 11/25/39
f 51/74/40 22/73/40 82/207/40 106/208/40
f 106/208/41 82/207/41 84/209/41 107/210/41
f 107/210/10 84/209/10 86/211/10 108/212/10
f 108/204/42 86/163/42 88/166/42 109/205/42
f 109/205/43 88/166/43 90/168/43 110/206/43
f 110/206/44 90/168/44 65/117/44 12/26/44
f 49/70/45 39/69/45 101/213/45 71/214/45
f 71/214/46 101/213/46 102/215/46 73/216/46
f 73/216/47 102/215/47 103/217/47 75/218/47
f 75/219/37 103/220/37 104/196/37 77/153/37
f 77/153/38 104/196/38 105/197/38 79/155/38
f 79/155/39 105/197/39 33/51/39 48/68/39
f 64/110/26 53/109/26 111/221/26 112/222/26
f 112/222/27 111/221/27 113/223/27 114/224/27
f 114/224/16 113/223/16 115/225/16 116/226/16
f 116/227/48 115/228/48 117/229/48 118/230/48
f 118/230/49 117/229/49 119/231/49 120/232/49
f 120/232/50 119/231/50 45/65/50 32/50/50
f 53/78/29 18/77/29 121/233/29 111/234/29
f 111/234/51 121/233/51 122/235/51 113/236/51
f 113/236/22 122/235/22 123/237/22 115/238/22
f 115/228/52 123/239/52 124/240/52 117/229/52
f 117/229/53 124/240/53 125/241/53 119/231/53
f 119/231/54 125/241/54 46/66/54 45/65/54
f 18/34/45 17/33/45 126/242/45 121/243/45
f 121/243/46 126/242/46 127/244/46 122/245/46
f 122/245/36 127/244/36 128/246/36 123/247/36
f 123/239/55 128/248/55 129/249/55 124/240/55
f 124/240/56 129/249/56 130/250/56 125/241/56
f 125/241/57 130/250/57 31/49/57 46/66/57
f 17/120/8 64/119/8 112/251/8 126/252/8
f 126/252/58 112/251/58 114/253/58 127/254/58
f 127/254/10 114/253/10 116/255/10 128/256/10
f 128/248/11 116/227/11 118/230/11 129/249/11
f 129/249/59 118/230/59 120/232/59 130/250/59
f 130/250/60 120/232/60 32/50/60 31/49/60
f 41/61/34 44/64/34 131/257/34 132/258/34
f 132/258/35 131/257/35 133/259/35 134/260/35
f 134/260/61 133/259/61 135/261/61 136/262/61
f 136/263/62 135/264/62 137/265/62 138/266/62
f 138/266/63 137/265/63 139/267/63 140/268/63
f 140/268/64 139/267/64 28/46/64 27/45/64
f 16/32/65 15/31/65 141/269/65 142/270/65
f 142/270/66 141/269/66 143/271/66 144/272/66
f 144/272/67 143/271/67 145/273/67 146/274/67
f 146/275/68 145/276/68 147/277/68 148/278/68
f 148/278/15 147/277/15 149/279/15 150/280/15
f 150/280/14 149/279/14 69/281/14 70/282/14
f 15/31/69 14/30/69 151/283/69 141/269/69
f 141/269/53 151/283/53 152/284/53 143/271/53
f 143/271/70 152/284/70 153/285/70 145/286/70
f 145/287/22 153/288/22 154/289/22 147/290/22
f 147/290/21 154/289/21 155/291/21 149/292/21
f 149/292/20 155/291/20 66/138/20 69/137/20
f 44/86/20 57/85/20 156/293/20 131/294/20
f 131/294/21 156/293/21 157/295/21 133/296/21
f 133/296/22 157/295/22 158/297/22 135/298/22
f 135/299/70 158/300/70 159/301/70 137/265/70
f 137/265/53 159/301/53 160/302/53 139/267/53
f 139/267/69 160/302/69 29/47/69 28/46/69
f 27/45/71 30/48/71 161/303/71 140/268/71
f 140/268/59 161/303/59 162/304/59 138/266/59
f 138/266/72 162/304/72 163/305/72 136/306/72
f 136/307/73 163/308/73 164/309/73 134/310/73
f 134/310/41 164/309/41 165/311/41 132/312/41
f 132/312/74 165/311/74 55/82/74 41/81/74
f 70/142/74 67/141/74 166/313/74 150/314/74
f 150/314/41 166/313/41 167/315/41 148/316/41
f 148/316/73 167/315/73 168/317/73 146/318/73
f 146/319/72 168/320/72 169/321/72 144/272/72
f 144/272/59 169/321/59 170/322/59 142/270/59
f 142/270/71 170/322/71 13/29/71 16/32/71
f 67/128/75 66/127/75 155/323/75 166/324/75
f 166/324/76 155/323/76 154/325/76 167/326/76
f 167/326/77 154/325/77 153/327/77 168/328/77
f 168/329/55 153/330/55 152/284/55 169/321/55
f 169/321/63 152/284/63 151/283/63 170/322/63
f 170/322/64 151/283/64 14/30/64 13/29/64
f 57/114/78 55/113/78 165/331/78 156/332/78
f 156/332/79 165/331/79 164/333/79 157/334/79
f 157/334/80 164/333/80 163/335/80 158/336/80
f 158/337/48 163/338/48 162/304/48 159/301/48
f 159/301/66 162/304/66 161/303/66 160/302/66
f 160/302/65 161/303/65 30/48/65 29/47/65
f 70/282/7 69/281/7 62/339/7 61/340/7
