# Blender v3.1.2 OBJ File: 'Wall_Four.blend'
# www.blender.org
mtllib tunnellight_four.mtl
o TunnelLight_Cube.010
v 0.176262 -0.000000 -0.193262
v -0.176262 -0.000000 -0.193262
v -0.176262 0.100000 -0.193262
v 0.176262 0.100000 -0.193262
v 0.193262 -0.000000 0.176262
v 0.193262 -0.000000 -0.176262
v 0.193262 0.100000 -0.176262
v 0.193262 0.100000 0.176262
v -0.176262 -0.000000 0.193262
v 0.176262 -0.000000 0.193262
v 0.176262 0.100000 0.193262
v -0.176262 0.100000 0.193262
v -0.193262 -0.000000 -0.176262
v -0.193262 -0.000000 0.176262
v -0.193262 0.100000 0.176262
v -0.193262 0.100000 -0.176262
vt 0.998999 0.989019
vt 0.989019 0.989019
vt 0.989019 0.998999
vt 0.998999 0.998999
vt 0.998999 0.989019
vt 0.989019 0.989019
vt 0.989019 0.998999
vt 0.998999 0.998999
vt 0.998999 0.989019
vt 0.989019 0.989019
vt 0.989019 0.998999
vt 0.998999 0.998999
vt 0.998999 0.989019
vt 0.989019 0.989019
vt 0.989019 0.998999
vt 0.998999 0.998999
vn -0.0000 0.0000 -1.0000
vn 1.0000 0.0000 -0.0000
vn 0.0000 0.0000 1.0000
vn -1.0000 0.0000 0.0000
usemtl Light
s off
f 10/1/1 9/2/1 12/3/1 11/4/1
f 14/5/2 13/6/2 16/7/2 15/8/2
f 2/9/3 1/10/3 4/11/3 3/12/3
f 6/13/4 5/14/4 8/15/4 7/16/4
