# Blender v3.2.1 OBJ File: 'Wall_Four.blend'
# www.blender.org
mtllib WallFour_low.mtl
o Wall_low_wall_low
v -1.000000 0.150000 1.000000
v -1.000000 0.150000 -1.000000
v 1.000000 0.150000 -1.000000
v 1.000000 0.150000 1.000000
v -1.200000 -0.050000 1.200000
v -1.200000 -0.050000 -1.200000
v 1.200000 -0.050000 -1.200000
v 1.200000 -0.050000 1.200000
v 0.193333 0.150000 -0.193333
v 0.193333 0.150000 0.193333
v -0.193333 0.150000 0.193333
v -0.193333 0.150000 -0.193333
v 0.193333 0.110000 -0.193333
v -0.193333 0.110000 -0.193333
v -0.193333 0.110000 0.193333
v 0.193333 0.110000 0.193333
v 0.186262 -0.050000 -0.186262
v 0.186262 -0.050000 0.186262
v -0.186262 -0.050000 0.186262
v -0.186262 -0.050000 -0.186262
v -0.186262 0.110000 0.186262
v 0.186262 0.110000 0.186262
v 0.186262 0.110000 -0.186262
v -0.186262 0.110000 -0.186262
vt 1.000000 0.000000
vt 0.000000 0.000000
vt 0.422391 0.422391
vt 0.577609 0.422391
vt 0.419444 0.580556
vt 0.419444 0.419444
vt 0.422391 0.422391
vt 0.422391 0.577609
vt 0.580556 0.419444
vt 0.580556 0.580556
vt 0.577609 0.577609
vt 0.577609 0.422391
vt 0.577609 0.577609
vt 1.000000 1.000000
vt 0.422391 0.577609
vt 0.000000 1.000000
vt 0.580556 0.531667
vt 0.419444 0.531667
vt 0.419444 0.515000
vt 0.580556 0.515000
vt 0.580556 0.531667
vt 0.419444 0.531667
vt 0.419444 0.515000
vt 0.580556 0.515000
vt 0.580556 0.531667
vt 0.580556 0.515000
vt 0.419444 0.531667
vt 0.419444 0.515000
vt 0.577609 0.448333
vt 0.577609 0.515000
vt 0.422391 0.515000
vt 0.422391 0.448333
vt 0.422391 0.448333
vt 0.422391 0.515000
vt 0.422391 0.448333
vt 0.422391 0.515000
vt 0.577609 0.515000
vt 0.577609 0.448333
vt 0.577609 0.448333
vt 0.577609 0.515000
vt 0.419444 0.419444
vt 0.083333 0.083333
vt 0.916667 0.083333
vt 0.580556 0.419444
vt 0.419444 0.580556
vt 0.083333 0.916667
vt 0.580556 0.580556
vt 0.916667 0.916667
vn 0.0000 -1.0000 0.0000
vn 0.0000 1.0000 0.0000
vn -0.0000 0.0000 1.0000
vn 1.0000 0.0000 0.0000
vn 0.0000 0.0000 -1.0000
vn -1.0000 0.0000 0.0000
usemtl wall_low
s off
f 8/1/1 5/2/1 19/3/1 18/4/1
f 14/5/2 15/6/2 21/7/2 24/8/2
f 16/9/2 13/10/2 23/11/2 22/12/2
f 8/1/1 18/4/1 17/13/1 7/14/1
f 7/14/1 17/13/1 20/15/1 6/16/1
f 13/10/2 14/5/2 24/8/2 23/11/2
f 15/6/2 16/9/2 22/12/2 21/7/2
f 9/17/3 12/18/3 14/19/3 13/20/3
f 12/21/4 11/22/4 15/23/4 14/24/4
f 11/22/5 10/25/5 16/26/5 15/23/5
f 10/27/6 9/17/6 13/20/6 16/28/6
f 17/29/3 23/30/3 24/31/3 20/32/3
f 18/33/6 22/34/6 23/30/6 17/29/6
f 19/35/5 21/36/5 22/37/5 18/38/5
f 20/39/4 24/40/4 21/36/4 19/35/4
f 6/16/1 20/15/1 19/3/1 5/2/1
f 11/41/2 1/42/2 4/43/2 10/44/2
f 11/41/2 12/45/2 2/46/2 1/42/2
f 12/45/2 9/47/2 3/48/2 2/46/2
f 9/47/2 10/44/2 4/43/2 3/48/2
l 8 4
l 1 5
l 6 2
l 3 7
