# Blender v3.2.1 OBJ File: 'Wall_Four.blend'
# www.blender.org
mtllib WallFour_low.mtl
o Wall_low_wall_low
v -1.000000 0.150000 1.000000
v -1.000000 0.150000 -1.000000
v 1.000000 0.150000 -1.000000
v 1.000000 0.150000 1.000000
v -1.200000 -0.050000 1.200000
v -1.200000 -0.050000 -1.200000
v 1.200000 -0.050000 -1.200000
v 1.200000 -0.050000 1.200000
v 0.193333 0.150000 -0.193333
v 0.193333 0.150000 0.193333
v -0.193333 0.150000 0.193333
v -0.193333 0.150000 -0.193333
v 0.193333 0.110000 -0.193333
v -0.193333 0.110000 -0.193333
v -0.193333 0.110000 0.193333
v 0.193333 0.110000 0.193333
v 0.186262 -0.050000 -0.186262
v 0.186262 -0.050000 0.186262
v -0.186262 -0.050000 0.186262
v -0.186262 -0.050000 -0.186262
v -0.186262 0.110000 0.186262
v 0.186262 0.110000 0.186262
v 0.186262 0.110000 -0.186262
v -0.186262 0.110000 -0.186262
vt 0.545454 0.545455
vt 0.000000 0.545454
vt 0.230395 0.315060
vt 0.315060 0.315060
vt 0.633333 0.000000
vt 0.633333 0.087879
vt 0.631726 0.086272
vt 0.631726 0.001607
vt 0.545455 0.087879
vt 0.545455 0.000000
vt 0.547062 0.001607
vt 0.547062 0.086272
vt 0.315060 0.230395
vt 0.545455 0.000000
vt 0.230395 0.230395
vt 0.000000 0.000000
vt 0.554545 0.426537
vt 0.554545 0.514416
vt 0.545455 0.514416
vt 0.545455 0.426537
vt 0.563636 0.514416
vt 0.563636 0.426537
vt 0.572727 0.426537
vt 0.572727 0.514416
vt 0.572727 0.514416
vt 0.572727 0.426537
vt 0.581818 0.426537
vt 0.581818 0.514416
vt 0.554545 0.514416
vt 0.563636 0.426537
vt 0.563636 0.514416
vt 0.545455 0.341873
vt 0.581818 0.341873
vt 0.581818 0.426537
vt 0.545455 0.426537
vt 0.545455 0.087879
vt 0.581818 0.087879
vt 0.581818 0.172543
vt 0.545455 0.172543
vt 0.581818 0.257208
vt 0.545455 0.257208
vt 0.545455 0.172543
vt 0.581818 0.172543
vt 0.581818 0.341873
vt 0.545455 0.341873
vt 0.271212 0.816667
vt 0.454545 1.000000
vt 0.000000 1.000000
vt 0.183333 0.816667
vt 0.271212 0.728788
vt 0.454545 0.545455
vt 0.183333 0.728788
vt 0.000000 0.545455
vn 0.0000 -1.0000 0.0000
vn 0.0000 1.0000 0.0000
vn -0.0000 0.0000 1.0000
vn 1.0000 0.0000 0.0000
vn 0.0000 0.0000 -1.0000
vn -1.0000 0.0000 0.0000
usemtl wall_low
s off
f 8/1/1 5/2/1 19/3/1 18/4/1
f 14/5/2 15/6/2 21/7/2 24/8/2
f 16/9/2 13/10/2 23/11/2 22/12/2
f 8/1/1 18/4/1 17/13/1 7/14/1
f 7/14/1 17/13/1 20/15/1 6/16/1
f 13/10/2 14/5/2 24/8/2 23/11/2
f 15/6/2 16/9/2 22/12/2 21/7/2
f 9/17/3 12/18/3 14/19/3 13/20/3
f 12/21/4 11/22/4 15/23/4 14/24/4
f 11/25/5 10/26/5 16/27/5 15/28/5
f 10/29/6 9/17/6 13/30/6 16/31/6
f 17/32/3 23/33/3 24/34/3 20/35/3
f 18/36/6 22/37/6 23/38/6 17/39/6
f 19/40/5 21/41/5 22/42/5 18/43/5
f 20/44/4 24/45/4 21/41/4 19/40/4
f 6/16/1 20/15/1 19/3/1 5/2/1
f 11/46/2 1/47/2 4/48/2 10/49/2
f 11/46/2 12/50/2 2/51/2 1/47/2
f 12/50/2 9/52/2 3/53/2 2/51/2
f 9/52/2 10/49/2 4/48/2 3/53/2
l 8 4
l 1 5
l 6 2
l 3 7
