# Blender v3.1.2 OBJ File: 'WallHyper.blend'
# www.blender.org
mtllib DoorHyper.mtl
o DoorSub_mid_Cube.012
v -0.180000 0.075000 -0.180000
v -0.180000 0.095000 -0.180000
v 0.180000 0.075000 -0.180000
v 0.180000 0.095000 -0.180000
v -0.180000 0.088000 0.000000
v 0.000000 0.088000 -0.180000
v 0.180000 0.088000 0.000000
v 0.000000 0.095000 0.000000
v 0.099000 0.088000 0.000000
v -0.099000 0.088000 0.000000
v 0.099000 0.095000 -0.180000
v -0.099000 0.095000 -0.180000
v 0.000000 0.088000 -0.099000
v 0.099000 0.095000 -0.099000
v -0.099000 0.095000 -0.099000
v 0.180000 0.095000 -0.099000
v -0.180000 0.095000 -0.099000
v 0.180000 0.095000 -0.009900
v 0.099000 0.095000 -0.009900
v -0.180000 0.095000 -0.009900
v -0.099000 0.095000 -0.009900
v 0.009900 0.095000 -0.180000
v -0.009900 0.095000 -0.180000
v -0.009900 0.095000 -0.099000
v 0.009900 0.095000 -0.099000
v -0.180000 0.075000 0.000000
v 0.000000 0.075000 -0.180000
v 0.180000 0.075000 0.000000
v 0.000000 0.075000 0.000000
vt 0.375000 0.125000
vt 0.625000 0.125000
vt 0.625000 0.125000
vt 0.625000 0.125000
vt 0.625000 0.250000
vt 0.375000 0.250000
vt 0.375000 0.375000
vt 0.625000 0.375000
vt 0.625000 0.375000
vt 0.625000 0.375000
vt 0.625000 0.500000
vt 0.375000 0.500000
vt 0.500000 1.000000
vt 0.500000 0.775000
vt 0.527500 0.775000
vt 0.527500 1.000000
vt 0.775000 0.527500
vt 0.775000 0.775000
vt 0.472500 1.000000
vt 0.472500 0.775000
vt 0.225000 1.000000
vt 0.000000 1.000000
vt 0.000000 0.775000
vt 0.225000 0.775000
vt 1.000000 1.000000
vt 0.775000 1.000000
vt 1.000000 0.775000
vt 0.775000 0.500000
vt 1.000000 0.500000
vt 1.000000 0.527500
vt 0.000000 0.500000
vt 0.225000 0.500000
vt 0.225000 0.527500
vt 0.000000 0.527500
vt 0.500000 0.500000
vt 0.125000 0.500000
vt 0.250000 0.500000
vt 0.250000 0.625000
vt 0.125000 0.625000
vt 0.375000 0.625000
vt 0.625000 0.625000
vt 0.625000 0.625000
vt 0.625000 0.625000
vt 0.625000 0.375000
vt 0.625000 0.375000
vn -1.0000 -0.0000 0.0000
vn 0.0000 0.0000 -1.0000
vn -0.5773 0.8165 0.0000
vn 0.0000 1.0000 0.0000
vn 0.5773 0.8165 0.0000
vn 0.0000 0.8165 0.5773
vn -0.0704 0.9950 -0.0704
vn 0.0704 0.9950 -0.0704
vn -0.5000 0.7071 0.5000
vn 0.5000 0.7071 0.5000
vn 0.0000 -1.0000 0.0000
vn 1.0000 -0.0000 0.0000
vn 0.0000 0.0000 1.0000
usemtl DoorSub_mid
s off
f 26/1/1 5/2/1 20/3/1 17/4/1 2/5/1 1/6/1
f 27/7/2 6/8/2 22/9/2 11/10/2 4/11/2 3/12/2
f 6/13/3 13/14/3 25/15/3 22/16/3
f 19/17/4 14/18/4 25/15/4
f 6/13/5 23/19/5 24/20/5 13/14/5
f 12/21/4 2/22/4 17/23/4 15/24/4
f 4/25/4 11/26/4 14/18/4 16/27/4
f 9/28/6 7/29/6 18/30/6 19/17/6
f 5/31/6 10/32/6 21/33/6 20/34/6
f 24/20/4 15/24/4 21/33/4
f 8/35/7 13/14/7 10/32/7
f 8/35/8 9/28/8 13/14/8
f 19/17/4 18/30/4 16/27/4 14/18/4
f 20/34/4 21/33/4 15/24/4 17/23/4
f 23/19/4 12/21/4 15/24/4 24/20/4
f 22/16/4 25/15/4 14/18/4 11/26/4
f 9/28/9 19/17/9 25/15/9 13/14/9
f 13/14/10 24/20/10 21/33/10 10/32/10
f 1/36/11 27/37/11 29/38/11 26/39/11
f 27/37/11 3/12/11 28/40/11 29/38/11
f 3/12/12 4/11/12 16/41/12 18/42/12 7/43/12 28/40/12
f 1/6/2 2/5/2 12/44/2 23/45/2 6/8/2 27/7/2
f 7/43/13 9/28/13 8/35/13 29/38/13 28/40/13
f 29/38/13 8/35/13 10/32/13 5/2/13 26/39/13
