# Blender v3.1.2 OBJ File: 'WallHyper.blend'
# www.blender.org
mtllib DoorHyper_low.mtl
o DoorSub_low_Cube.003
v -0.180000 0.075000 -0.180000
v -0.180000 0.091000 -0.180000
v 0.180000 0.075000 -0.180000
v 0.180000 0.091000 -0.180000
v -0.180000 0.091000 0.000000
v 0.180000 0.091000 0.000000
v -0.180000 0.075000 0.000000
v 0.180000 0.075000 0.000000
vt 0.375000 0.125000
vt 0.625000 0.125000
vt 0.625000 0.250000
vt 0.375000 0.250000
vt 0.625000 0.500000
vt 0.375000 0.500000
vt 0.125000 0.500000
vt 0.375000 0.625000
vt 0.125000 0.625000
vt 0.001001 0.001001
vt 0.998999 0.001001
vt 0.998999 0.498999
vt 0.001001 0.498999
vt 0.625000 0.625000
vt 0.875000 0.625000
vn -1.0000 0.0000 0.0000
vn 0.0000 0.0000 -1.0000
vn 0.0000 -1.0000 0.0000
vn 0.0000 1.0000 0.0000
vn 1.0000 0.0000 0.0000
vn 0.0000 0.0000 1.0000
usemtl Door_high
s off
f 7/1/1 5/2/1 2/3/1 1/4/1
f 1/4/2 2/3/2 4/5/2 3/6/2
f 1/7/3 3/6/3 8/8/3 7/9/3
f 4/10/4 2/11/4 5/12/4 6/13/4
f 3/6/5 4/5/5 6/14/5 8/8/5
f 6/14/6 5/15/6 7/1/6 8/8/6
