# Blender v3.2.1 OBJ File: 'WallHyper.blend'
# www.blender.org
mtllib WallHyper_low.mtl
o Wall_low_Cube.011
v -1.100000 0.050000 1.100000
v -0.174382 0.150000 0.174382
v -1.100000 0.050000 -1.100000
v -0.174382 0.150000 -0.174382
v 1.100000 0.050000 1.100000
v 0.174382 0.150000 0.174382
v 1.100000 0.050000 -1.100000
v 0.174382 0.150000 -0.174382
v -1.000000 0.150000 1.000000
v -1.000000 0.150000 -1.000000
v 1.000000 0.150000 -1.000000
v 1.000000 0.150000 1.000000
v -0.192426 0.150000 0.192426
v -0.192426 0.150000 -0.192426
v 0.192426 0.150000 -0.192426
v 0.192426 0.150000 0.192426
v -0.174382 0.050000 0.174382
v -0.174382 0.050000 -0.174382
v 0.174382 0.050000 -0.174382
v 0.174382 0.050000 0.174382
v 0.174382 0.100000 0.174382
v -0.174382 0.100000 0.174382
v -0.174382 0.100000 -0.174382
v 0.174382 0.100000 -0.174382
v 0.174382 0.050000 0.174382
v -0.174382 0.050000 -0.174382
v -0.174382 0.050000 0.174382
v 0.174382 0.050000 -0.174382
v -0.174382 0.075000 0.174382
v 0.174382 0.075000 -0.174382
v 0.174382 0.075000 0.174382
v -0.174382 0.075000 -0.174382
vt 0.579264 0.579264
vt 0.420736 0.579264
vt 0.000000 1.000000
vt 1.000000 1.000000
vt 0.420736 0.579264
vt 0.420736 0.420736
vt 0.420736 0.420736
vt 0.420736 0.420736
vt 0.412534 0.412534
vt 0.587466 0.412534
vt 0.579264 0.420736
vt 0.420736 0.579264
vt 0.412534 0.587466
vt 0.587466 0.587466
vt 0.579264 0.579264
vt 0.000000 0.000000
vt 0.579264 0.420736
vt 1.000000 0.000000
vt 0.579264 0.522727
vt 0.420736 0.522727
vt 0.420736 0.500000
vt 0.579264 0.500000
vt 0.420736 0.522727
vt 0.579264 0.522727
vt 0.579264 0.500000
vt 0.420736 0.500000
vt 0.420736 0.522727
vt 0.420736 0.500000
vt 0.579264 0.522727
vt 0.579264 0.500000
vt 0.579264 0.488636
vt 0.420736 0.488636
vt 0.420736 0.477273
vt 0.579264 0.477273
vt 0.420736 0.488636
vt 0.579264 0.488636
vt 0.579264 0.477273
vt 0.420736 0.477273
vt 0.420736 0.488636
vt 0.420736 0.477273
vt 0.579264 0.488636
vt 0.579264 0.477273
vt 0.954545 0.045455
vt 0.954545 0.954545
vt 0.045455 0.954545
vt 0.045455 0.045455
vn 0.0000 -1.0000 -0.0000
vn 0.0000 0.0000 1.0000
vn 0.0000 1.0000 -0.0000
vn 0.0000 0.0000 -1.0000
vn -1.0000 0.0000 0.0000
vn 1.0000 0.0000 0.0000
usemtl wall_low
s off
f 19/1/1 18/2/1 3/3/1 7/4/1
f 26/5/2 27/6/2 17/7/2 18/2/2
f 2/8/3 13/9/3 16/10/3 6/11/3
f 4/12/3 14/13/3 13/9/3 2/8/3
f 6/11/3 16/10/3 15/14/3 8/15/3
f 8/15/3 15/14/3 14/13/3 4/12/3
f 18/2/1 17/7/1 1/16/1 3/3/1
f 17/7/1 20/17/1 5/18/1 1/16/1
f 20/17/1 19/1/1 7/4/1 5/18/1
f 8/19/2 4/20/2 23/21/2 24/22/2
f 2/23/4 6/24/4 21/25/4 22/26/4
f 6/27/5 8/19/5 24/22/5 21/28/5
f 4/29/6 2/23/6 22/26/6 23/30/6
f 30/31/2 32/32/2 26/33/2 28/34/2
f 29/35/4 31/36/4 25/37/4 27/38/4
f 31/39/5 30/31/5 28/34/5 25/40/5
f 32/41/6 29/35/6 27/38/6 26/42/6
f 29/35/4 22/26/4 21/25/4 31/36/4
f 21/28/5 24/22/5 30/31/5 31/39/5
f 24/22/2 23/21/2 32/32/2 30/31/2
f 29/35/6 32/41/6 23/30/6 22/26/6
f 12/43/3 11/44/3 15/14/3 16/10/3
f 11/44/3 10/45/3 14/13/3 15/14/3
f 10/45/3 9/46/3 13/9/3 14/13/3
f 9/46/3 12/43/3 16/10/3 13/9/3
l 1 9
l 10 3
l 11 7
l 12 5
