# Blender v3.2.1 OBJ File: 'WallZero.blend'
# www.blender.org
mtllib DoorZero_low.mtl
o doorsub_low_Cube.007
v -0.200000 0.093000 -0.200000
v -0.200000 0.075000 -0.200000
v -0.200000 0.093000 0.200000
v -0.200000 0.075000 0.200000
v 0.000000 0.075000 -0.200000
v 0.000000 0.075000 0.200000
v -0.200000 0.075000 -0.000000
v -0.200000 0.085000 0.000000
v -0.055759 0.093000 0.111300
v -0.111300 0.093000 -0.055759
v -0.062400 0.093000 0.108080
v -0.108080 0.093000 -0.062400
v -0.075973 0.093000 0.099010
v -0.099010 0.093000 -0.075973
v -0.105497 0.097095 0.013894
v -0.088247 0.093000 0.088247
v -0.088247 0.093000 -0.088247
v -0.013895 0.097095 -0.105483
v -0.007832 0.097095 -0.059487
v -0.099011 0.093000 0.075973
v -0.075973 0.093000 -0.099011
v -0.059487 0.097095 0.007832
v -0.102782 0.097095 0.027545
v -0.098308 0.097095 0.040724
v -0.108080 0.093000 0.062400
v -0.062400 0.093000 -0.108080
v -0.040725 0.097095 -0.098294
v -0.027546 0.097095 -0.102768
v -0.015529 0.097095 -0.057956
v -0.111300 0.093000 0.055759
v -0.055759 0.093000 -0.111300
v -0.057956 0.097095 0.015529
v -0.022961 0.097095 -0.055433
v -0.055433 0.097095 0.022961
v -0.030000 0.097095 -0.051962
v -0.044711 0.097095 -0.077418
v -0.051962 0.097095 0.030000
v -0.077435 0.097095 0.044710
v -0.036526 0.097095 -0.047601
v -0.054435 0.097095 -0.070921
v -0.047601 0.097095 0.036526
v -0.070938 0.097095 0.054433
v -0.042426 0.097095 -0.042426
v -0.063227 0.097095 -0.063210
v -0.042426 0.097095 0.042426
v -0.063227 0.097095 0.063226
v -0.200000 0.093000 -0.055759
v -0.200000 0.093000 0.055759
v -0.047601 0.097095 -0.036526
v -0.070938 0.097095 -0.054418
v -0.036526 0.097095 0.047601
v -0.054435 0.097095 0.070937
v -0.051962 0.097095 -0.030000
v -0.077435 0.097095 -0.044694
v -0.030000 0.097095 0.051962
v -0.044711 0.097095 0.077434
v -0.040725 0.097095 0.098307
v -0.098308 0.097095 -0.040711
v -0.055433 0.097095 -0.022961
v -0.022961 0.097095 0.055433
v -0.027546 0.097095 0.102781
v -0.102782 0.097095 -0.027532
v -0.057956 0.097095 -0.015529
v -0.015529 0.097095 0.057956
v -0.000007 0.097095 0.106406
v -0.013895 0.097095 0.105496
v -0.000000 0.097095 0.060000
v -0.060000 0.097095 0.000000
v -0.105497 0.097095 -0.013882
v -0.106407 0.097095 0.000006
v -0.000007 0.097095 -0.106394
v 0.000000 0.097095 -0.060000
v -0.055759 0.093000 0.200000
v -0.055759 0.093000 -0.200000
v -0.059487 0.097095 -0.007832
v -0.007832 0.097095 0.059487
v -0.200000 0.095000 0.000000
v -0.200000 0.095000 -0.055759
v 0.000000 0.095000 0.200000
v -0.055759 0.095000 0.200000
v -0.123732 0.095000 -0.016290
v -0.105497 0.095000 -0.013882
v -0.016290 0.095000 0.123732
v -0.013895 0.095000 0.105496
v -0.007832 0.082204 0.059487
v -0.059487 0.082204 -0.007832
v 0.000000 0.082204 -0.060000
v -0.000007 0.095000 -0.106394
v -0.106407 0.095000 0.000006
v -0.060000 0.082204 0.000000
v 0.000000 0.095000 -0.124800
v -0.000000 0.082204 0.060000
v -0.000007 0.095000 0.106406
v 0.000000 0.095000 0.124800
v -0.120548 0.095000 -0.032301
v -0.102782 0.095000 -0.027532
v -0.032301 0.095000 0.120548
v -0.027546 0.095000 0.102781
v -0.015529 0.082204 0.057956
v -0.057956 0.082204 -0.015529
v -0.111300 0.095000 -0.055759
v -0.098308 0.095000 -0.040711
v -0.055759 0.095000 0.111300
v -0.040725 0.095000 0.098307
v -0.022961 0.082204 0.055433
v -0.055433 0.082204 -0.022961
v -0.108080 0.095000 -0.062400
v -0.083940 0.095000 -0.064404
v -0.062400 0.095000 0.108080
v -0.064411 0.095000 -0.083934
v -0.044711 0.095000 0.077434
v -0.030000 0.082204 0.051962
v -0.077435 0.095000 -0.044694
v -0.051962 0.082204 -0.030000
v -0.099010 0.095000 -0.075973
v -0.075973 0.095000 0.099010
v -0.054435 0.095000 0.070937
v -0.036526 0.082204 0.047601
v -0.070938 0.095000 -0.054418
v -0.047601 0.082204 -0.036526
v -0.088247 0.095000 -0.088247
v -0.088247 0.095000 0.088247
v -0.063227 0.095000 0.063226
v -0.042426 0.082204 0.042426
v -0.063227 0.095000 -0.063210
v -0.042426 0.082204 -0.042426
v -0.075973 0.095000 -0.099011
v -0.099011 0.095000 0.075973
v -0.070938 0.095000 0.054433
v -0.047601 0.082204 0.036526
v -0.054435 0.095000 -0.070921
v -0.036526 0.082204 -0.047601
v -0.062400 0.095000 -0.108080
v -0.091629 0.095000 -0.052897
v -0.052904 0.095000 -0.091622
v -0.108080 0.095000 0.062400
v -0.074816 0.095000 -0.074809
v -0.077435 0.095000 0.044710
v -0.051962 0.082204 0.030000
v -0.044711 0.095000 -0.077418
v -0.030000 0.082204 -0.051962
v -0.055759 0.095000 -0.111300
v -0.040725 0.095000 -0.098294
v -0.111300 0.095000 0.055759
v -0.098308 0.095000 0.040724
v -0.055433 0.082204 0.022961
v -0.022961 0.082204 -0.055433
v -0.032301 0.095000 -0.120548
v -0.027546 0.095000 -0.102768
v -0.120548 0.095000 0.032301
v -0.102782 0.095000 0.027545
v -0.057956 0.082204 0.015529
v -0.015529 0.082204 -0.057956
v -0.016290 0.095000 -0.123732
v -0.013895 0.095000 -0.105483
v -0.123732 0.095000 0.016290
v -0.105497 0.095000 0.013894
v -0.059487 0.082204 0.007832
v -0.007832 0.082204 -0.059487
v -0.200000 0.095000 0.055759
v -0.124800 0.095000 0.000000
v -0.055759 0.095000 -0.200000
v 0.000000 0.095000 -0.200000
v -0.052904 0.095000 0.091629
v -0.064411 0.095000 0.083940
v -0.074816 0.095000 0.074815
v -0.083940 0.095000 0.064410
v -0.091629 0.095000 0.052903
v -0.096122 0.095000 0.044710
v -0.096125 0.095000 -0.044694
v -0.044711 0.095000 -0.096111
v -0.044711 0.095000 0.096121
v -0.096122 0.097095 0.044710
v -0.096125 0.097095 -0.044694
v -0.044711 0.097095 -0.096111
v -0.044711 0.097095 0.096121
v 0.000000 0.075000 -0.000000
v -0.000000 0.082204 -0.000000
vt 0.813245 0.699221
vt 0.813245 0.719612
vt 0.809426 0.719612
vt 0.809426 0.699221
vt 0.760226 0.771334
vt 0.760226 0.796056
vt 0.756407 0.796056
vt 0.756407 0.771334
vt 0.809425 0.701469
vt 0.809425 0.722327
vt 0.805606 0.722327
vt 0.805606 0.701469
vt 0.813245 0.679817
vt 0.809426 0.679817
vt 0.790847 0.694317
vt 0.790848 0.670191
vt 0.794667 0.670191
vt 0.794667 0.694317
vt 0.809425 0.681365
vt 0.805606 0.681365
vt 0.813245 0.661732
vt 0.809426 0.661732
vt 0.275081 0.824647
vt 0.299827 0.808113
vt 0.322203 0.788489
vt 0.341827 0.766113
vt 0.358362 0.741366
vt 0.364233 0.729259
vt 0.525946 0.729259
vt 0.525946 0.992231
vt 0.262973 0.992231
vt 0.262973 0.830518
vt 0.814802 0.208272
vt 0.730918 0.219302
vt 0.729259 0.193983
vt 0.813866 0.193995
vt 0.873034 0.006610
vt 0.894943 0.088333
vt 0.881393 0.092933
vt 0.849008 0.014766
vt 0.817594 0.222306
vt 0.735868 0.244189
vt 0.822193 0.235856
vt 0.744024 0.268217
vt 0.897922 0.001659
vt 0.908977 0.085542
vt 0.849008 0.373199
vt 0.881393 0.295056
vt 0.894943 0.299656
vt 0.873034 0.381356
vt 0.744024 0.119749
vt 0.822192 0.152133
vt 0.817594 0.165683
vt 0.735868 0.143776
vt 0.923255 0.303383
vt 0.923242 0.387965
vt 0.897922 0.386306
vt 0.908977 0.302447
vt 0.814802 0.179716
vt 0.730918 0.168663
vt 0.824013 0.323294
vt 0.856663 0.280778
vt 0.868561 0.288728
vt 0.841741 0.335139
vt 0.793924 0.094754
vt 0.836471 0.127402
vt 0.828522 0.139300
vt 0.782080 0.112482
vt 0.807982 0.309237
vt 0.845905 0.271344
vt 0.807982 0.078724
vt 0.845905 0.116645
vt 0.793924 0.293206
vt 0.836471 0.260586
vt 0.824013 0.064666
vt 0.856663 0.107210
vt 0.782080 0.275478
vt 0.828522 0.248689
vt 0.841741 0.052821
vt 0.868561 0.099261
vt 0.787201 0.606743
vt 0.787201 0.761580
vt 0.783555 0.761580
vt 0.783555 0.606743
vt 0.805606 0.606743
vt 0.805606 0.631283
vt 0.801959 0.631283
vt 0.801959 0.606743
vt 0.787201 0.762632
vt 0.787201 0.606743
vt 0.790847 0.606743
vt 0.790847 0.762632
vt 0.801959 0.606743
vt 0.801959 0.756899
vt 0.798313 0.756899
vt 0.798313 0.606743
vt 0.805606 0.657811
vt 0.805606 0.685874
vt 0.801959 0.685874
vt 0.801959 0.657811
vt 1.000000 0.338573
vt 1.000000 0.677146
vt 0.967183 0.677146
vt 0.967183 0.432965
vt 0.981768 0.338573
vt 0.787201 0.770695
vt 0.787201 0.793665
vt 0.783555 0.793665
vt 0.783555 0.770695
vt 0.000000 0.830518
vt 0.012108 0.824647
vt 0.036854 0.808113
vt 0.059230 0.788489
vt 0.078854 0.766113
vt 0.095389 0.741366
vt 0.101260 0.729259
vt 0.262973 0.729259
vt 0.262973 0.992231
vt 0.000000 0.992231
vt 0.805606 0.714990
vt 0.805606 0.728412
vt 0.801959 0.728412
vt 0.801959 0.714990
vt 0.787201 0.818911
vt 0.787201 0.845997
vt 0.783555 0.845997
vt 0.783555 0.818911
vt 0.560732 0.739369
vt 0.560732 0.729259
vt 0.564378 0.729259
vt 0.564378 0.739369
vt 0.787201 0.874460
vt 0.787201 0.887747
vt 0.783555 0.887747
vt 0.783555 0.874460
vt 0.963537 0.432965
vt 0.963537 0.338573
vt 0.798313 0.606743
vt 0.798313 0.756900
vt 0.794667 0.756900
vt 0.794667 0.606743
vt 0.967183 0.244181
vt 0.963537 0.244181
vt 0.878757 0.639757
vt 0.875110 0.737092
vt 0.875110 0.639757
vt 0.967183 0.000000
vt 1.000000 0.000000
vt 0.809425 0.662362
vt 0.805606 0.662362
vt 0.699560 0.139048
vt 0.703926 0.172295
vt 0.679039 0.177244
vt 0.670370 0.144854
vt 0.503677 0.394327
vt 0.536922 0.389938
vt 0.541872 0.414824
vt 0.509483 0.423517
vt 0.655012 0.185402
vt 0.627602 0.161713
vt 0.550030 0.438852
vt 0.526342 0.466286
vt 0.790848 0.647296
vt 0.790848 0.626026
vt 0.794667 0.626026
vt 0.794667 0.647296
vt 0.813245 0.645276
vt 0.809426 0.645276
vt 0.632809 0.197577
vt 0.647745 0.223455
vt 0.630016 0.235302
vt 0.611830 0.211594
vt 0.760226 0.756278
vt 0.760226 0.733604
vt 0.764045 0.733604
vt 0.764045 0.756278
vt 0.532213 0.478394
vt 0.562206 0.461067
vt 0.576223 0.482046
vt 0.548748 0.503139
vt 0.615494 0.561674
vt 0.632809 0.531670
vt 0.647745 0.539854
vt 0.655012 0.543835
vt 0.627602 0.567545
vt 0.809425 0.644782
vt 0.805606 0.644782
vt 0.760226 0.720719
vt 0.760226 0.746078
vt 0.756407 0.746078
vt 0.756407 0.720719
vt 0.599930 0.265388
vt 0.588083 0.283117
vt 0.562206 0.268179
vt 0.576223 0.247200
vt 0.592859 0.501017
vt 0.568373 0.525517
vt 0.790847 0.744602
vt 0.790847 0.719264
vt 0.794667 0.719264
vt 0.794667 0.744602
vt 0.613987 0.249359
vt 0.592859 0.228230
vt 0.599930 0.463840
vt 0.613987 0.479872
vt 0.630016 0.493929
vt 0.611830 0.517653
vt 0.526342 0.262972
vt 0.550030 0.290384
vt 0.541872 0.314411
vt 0.509483 0.305740
vt 0.679039 0.551991
vt 0.670370 0.584406
vt 0.536922 0.339298
vt 0.503677 0.334930
vt 0.703926 0.556940
vt 0.699560 0.590212
vt 0.729246 0.558601
vt 0.729259 0.592157
vt 0.501730 0.364630
vt 0.535263 0.364618
vt 0.588083 0.446114
vt 0.729259 0.137100
vt 0.729246 0.170635
vt 0.790848 0.606743
vt 0.794667 0.606743
vt 0.760226 0.712611
vt 0.764045 0.712611
vt 0.364630 0.466286
vt 0.364630 0.364630
vt 0.364630 0.262972
vt 0.760226 0.780244
vt 0.764045 0.780244
vt 0.615494 0.167583
vt 0.590748 0.184118
vt 0.568373 0.203743
vt 0.627602 0.000000
vt 0.729259 0.729258
vt 0.590748 0.545139
vt 0.647745 0.505774
vt 0.554014 0.283117
vt 0.548748 0.226118
vt 0.532213 0.250864
vt 0.554008 0.446114
vt 0.729259 0.497355
vt 0.730195 0.483077
vt 0.732986 0.469043
vt 0.737585 0.455493
vt 0.743914 0.442660
vt 0.751863 0.430763
vt 0.761298 0.420005
vt 0.772056 0.410571
vt 0.783953 0.402621
vt 0.796786 0.396292
vt 0.810336 0.391693
vt 0.824369 0.388902
vt 0.838647 0.387966
vt 0.838647 0.497355
vt 0.647745 0.189386
vt 0.756407 0.712611
vt 0.760226 0.712611
vt 0.556913 0.729259
vt 0.560732 0.729259
vt 0.560732 0.760894
vt 0.556912 0.760894
vt 0.841741 0.018751
vt 0.805606 0.606743
vt 0.809425 0.606743
vt 0.809425 0.613138
vt 0.805606 0.613138
vt 0.841741 0.369219
vt 0.794667 0.752822
vt 0.790847 0.752822
vt 0.556912 0.762106
vt 0.553093 0.762106
vt 0.553093 0.729259
vt 0.556912 0.729259
vt 0.748005 0.275478
vt 0.809426 0.606743
vt 0.813245 0.606743
vt 0.813245 0.612655
vt 0.809425 0.612655
vt 0.748010 0.112482
vt 0.923242 0.000000
vt 0.923255 0.084605
vt 0.000000 0.729259
vt 0.000000 0.364630
vt 0.364630 0.364630
vt 0.364630 0.729259
vt 0.000000 0.000000
vt 0.364630 0.000000
vt 0.950402 0.457417
vt 0.950402 0.351858
vt 0.963537 0.351858
vt 0.963537 0.703716
vt 0.927074 0.703716
vt 0.927074 0.571419
vt 0.927074 0.539032
vt 0.923255 0.539032
vt 0.923255 0.457417
vt 0.627602 0.729258
vt 0.838647 0.387966
vt 0.871464 0.387966
vt 0.871464 0.641468
vt 0.878757 0.387965
vt 0.911573 0.387965
vt 0.911573 0.737092
vt 0.729259 0.000000
vt 0.838647 0.739464
vt 0.875110 0.739464
vt 0.875110 0.641468
vt 0.730195 0.511632
vt 0.838647 0.606743
vt 0.824369 0.605807
vt 0.810336 0.603016
vt 0.796786 0.598416
vt 0.783953 0.592088
vt 0.772056 0.584138
vt 0.761298 0.574704
vt 0.751863 0.563946
vt 0.743914 0.552049
vt 0.737585 0.539216
vt 0.732986 0.525666
vt 0.950402 0.246302
vt 0.923255 0.246302
vt 0.923255 0.164656
vt 0.927074 0.164656
vt 0.927074 0.132299
vt 0.927074 0.000000
vt 0.963537 0.000000
vt 0.553093 0.763999
vt 0.553093 0.777400
vt 0.525945 0.777400
vt 0.525945 0.763999
vt 0.756407 0.670043
vt 0.756407 0.655989
vt 0.783555 0.655989
vt 0.783555 0.670043
vt 0.756407 0.712611
vt 0.756407 0.698598
vt 0.783555 0.698598
vt 0.783555 0.712611
vt 0.756406 0.655677
vt 0.756406 0.669701
vt 0.729259 0.669701
vt 0.729259 0.655677
vt 0.756407 0.725867
vt 0.756407 0.738723
vt 0.729259 0.738723
vt 0.729259 0.725867
vt 0.756407 0.629335
vt 0.756407 0.642145
vt 0.729259 0.642145
vt 0.729259 0.629335
vt 0.756407 0.684327
vt 0.783555 0.684327
vt 0.756407 0.642406
vt 0.756407 0.629526
vt 0.783555 0.629526
vt 0.783555 0.642406
vt 0.553093 0.751367
vt 0.525945 0.751367
vt 0.756407 0.750649
vt 0.756407 0.761441
vt 0.729259 0.761441
vt 0.729259 0.750649
vt 0.756406 0.683976
vt 0.756406 0.698257
vt 0.729259 0.698257
vt 0.729259 0.683976
vt 0.756407 0.617570
vt 0.756407 0.606743
vt 0.783555 0.606743
vt 0.783555 0.617570
vt 0.756406 0.712301
vt 0.729259 0.712301
vt 0.756407 0.617467
vt 0.729259 0.617467
vt 0.553093 0.739720
vt 0.525945 0.739720
vt 0.553093 0.729259
vt 0.525945 0.729259
vt 0.729259 0.606743
vn -0.5556 0.0000 0.8315
vn -0.0654 0.0000 0.9979
vn -0.8315 0.0000 -0.5556
vn -0.6593 0.0000 0.7518
vn -0.9979 0.0000 -0.0654
vn -0.7518 0.0000 -0.6593
vn -0.7518 0.0000 0.6593
vn 0.0000 1.0000 0.0000
vn 0.0000 0.0000 1.0000
vn -0.5556 0.0000 -0.8315
vn 0.0000 0.0000 -1.0000
vn -1.0000 0.0000 0.0000
vn -0.8315 0.0000 0.5556
vn -0.8998 0.0000 -0.4363
vn -0.4363 0.0000 -0.8998
vn -0.4363 0.0000 0.8998
vn -0.6593 0.0000 -0.7518
vn -0.9808 0.0000 0.1951
vn -0.1951 0.0000 -0.9808
vn -0.3214 0.0000 0.9469
vn -0.9469 0.0000 -0.3214
vn -0.8998 0.0000 0.4363
vn -0.9469 0.0000 0.3214
vn -0.3214 0.0000 -0.9469
vn -0.1951 0.0000 0.9808
vn -0.9808 0.0000 -0.1951
vn -0.9979 0.0000 0.0654
vn -0.0654 0.0000 -0.9979
vn -0.4808 0.0000 0.8768
vn -0.4805 0.0000 -0.8770
vn -0.8769 0.0000 -0.4806
vn -0.8768 0.0000 0.4808
vn 0.0000 -1.0000 -0.0000
vn 1.0000 0.0001 -0.0000
vn 0.1305 0.0000 0.9914
vn 0.0654 0.0000 0.9979
vn 0.3827 0.0000 -0.9239
vn 0.5000 0.0000 -0.8660
vn 0.0654 0.0000 -0.9979
vn 0.1305 0.0000 -0.9914
vn 1.0000 -0.0000 0.0000
vn 0.9914 0.0000 0.1305
vn 0.7934 0.0000 0.6088
vn 0.7071 0.0000 0.7071
vn 0.9659 0.0000 -0.2588
vn 0.9914 -0.0000 -0.1305
vn 0.2588 0.0000 -0.9659
vn 0.6088 0.0000 -0.7934
vn 0.7071 0.0000 -0.7071
vn 0.2588 0.0000 0.9659
vn 0.6088 0.0000 0.7934
vn 0.5000 0.0000 0.8660
vn 0.9659 0.0000 0.2588
vn 0.9239 -0.0000 0.3827
vn 0.7934 0.0000 -0.6088
vn 0.8660 0.0000 -0.5000
vn 0.8660 -0.0000 0.5000
vn 0.9239 0.0000 -0.3827
vn 0.3827 0.0000 0.9239
usemtl doorsub_low
s off
f 117/1/1 111/2/1 56/3/1 52/4/1
f 84/5/2 93/6/2 65/7/2 66/8/2
f 119/9/3 113/10/3 54/11/3 50/12/3
f 123/13/4 117/1/4 52/4/4 46/14/4
f 82/15/5 89/16/5 70/17/5 69/18/5
f 125/19/6 119/9/6 50/12/6 44/20/6
f 129/21/7 123/13/7 46/14/7 42/22/7
f 12/23/8 14/24/8 17/25/8 21/26/8 26/27/8 31/28/8 74/29/8 1/30/8 47/31/8 10/32/8
f 75/33/8 69/34/8 70/35/8 68/36/8
f 61/37/8 64/38/8 60/39/8 57/40/8
f 69/34/8 75/33/8 63/41/8 62/42/8
f 62/42/8 63/41/8 59/43/8 58/44/8
f 66/45/8 76/46/8 64/38/8 61/37/8
f 27/47/8 33/48/8 29/49/8 28/50/8
f 24/51/8 34/52/8 32/53/8 23/54/8
f 72/55/8 71/56/8 18/57/8 19/58/8
f 28/50/8 29/49/8 19/58/8 18/57/8
f 22/59/8 68/36/8 70/35/8 15/60/8
f 23/54/8 32/53/8 22/59/8 15/60/8
f 40/61/8 39/62/8 35/63/8 36/64/8
f 42/65/8 41/66/8 37/67/8 38/68/8
f 44/69/8 43/70/8 39/62/8 40/61/8
f 46/71/8 45/72/8 41/66/8 42/65/8
f 50/73/8 49/74/8 43/70/8 44/69/8
f 52/75/8 51/76/8 45/72/8 46/71/8
f 54/77/8 53/78/8 49/74/8 50/73/8
f 56/79/8 55/80/8 51/76/8 52/75/8
f 48/81/9 30/82/9 144/83/9 160/84/9
f 26/85/10 21/86/10 127/87/10 133/88/10
f 10/89/11 47/90/11 78/91/11 101/92/11
f 74/93/12 31/94/12 142/95/12 162/96/12
f 17/97/6 14/98/6 115/99/6 121/100/6
f 7/101/12 4/102/12 3/103/12 48/104/12 8/105/12
f 25/106/13 20/107/13 128/108/13 136/109/13
f 9/110/8 11/111/8 13/112/8 16/113/8 20/114/8 25/115/8 30/116/8 48/117/8 3/118/8 73/119/8
f 12/120/14 10/121/14 101/122/14 107/123/14
f 16/124/4 13/125/4 116/126/4 122/127/4
f 31/128/15 26/129/15 133/130/15 142/131/15
f 11/132/16 9/133/16 103/134/16 109/135/16
f 8/105/12 48/104/12 160/136/12 77/137/12
f 9/138/12 73/139/12 80/140/12 103/141/12
f 47/142/12 8/105/12 77/137/12 78/143/12
f 73/144/9 79/145/9 80/146/9
f 14/98/3 12/120/3 107/123/3 115/99/3
f 21/86/17 17/97/17 121/100/17 127/87/17
f 13/125/1 11/132/1 109/135/1 116/126/1
f 1/147/12 2/148/12 7/101/12 8/105/12 47/142/12
f 20/107/7 16/124/7 122/127/7 128/108/7
f 131/149/17 125/19/17 44/20/17 40/150/17
f 83/151/8 84/152/8 98/153/8 97/154/8
f 81/155/8 82/156/8 96/157/8 95/158/8
f 97/154/8 98/153/8 104/159/8 103/160/8
f 95/158/8 96/157/8 102/161/8 101/162/8
f 157/163/18 151/164/18 23/165/18 15/166/18
f 138/167/13 129/21/13 42/22/13 38/168/13
f 164/169/8 111/170/8 117/171/8 165/172/8
f 155/173/19 149/174/19 28/175/19 18/176/19
f 107/177/8 134/178/8 108/179/8 115/180/8
f 133/181/8 135/182/8 171/183/8 143/184/8 142/185/8
f 140/186/10 131/149/10 40/150/10 36/187/10
f 104/188/20 98/189/20 61/190/20 57/191/20
f 129/192/8 138/193/8 168/194/8 167/195/8
f 115/180/8 108/179/8 137/196/8 121/197/8
f 102/198/21 96/199/21 62/200/21 58/201/21
f 165/172/8 117/171/8 123/202/8 166/203/8
f 108/179/8 119/204/8 125/205/8 137/196/8
f 137/196/8 125/205/8 131/206/8 110/207/8
f 166/203/8 123/202/8 129/192/8 167/195/8
f 30/82/22 25/106/22 136/109/22 144/83/22
f 144/208/8 145/209/8 151/210/8 150/211/8
f 142/185/8 143/184/8 149/212/8 148/213/8
f 150/211/8 151/210/8 157/214/8 156/215/8
f 148/213/8 149/212/8 155/216/8 154/217/8
f 154/217/8 155/216/8 88/218/8 91/219/8
f 81/155/8 161/220/8 89/221/8 82/156/8
f 156/215/8 157/214/8 89/221/8 161/220/8
f 134/178/8 113/222/8 119/204/8 108/179/8
f 84/152/8 83/151/8 94/223/8 93/224/8
f 151/164/23 145/225/23 24/226/23 23/165/23
f 149/174/24 143/227/24 27/228/24 28/175/24
f 98/189/25 84/5/25 66/8/25 61/190/25
f 96/199/26 82/15/26 69/18/26 62/200/26
f 144/208/8 150/211/8 156/215/8 161/220/8 81/155/8 95/158/8 101/162/8 78/229/8 77/230/8 160/231/8
f 89/16/27 157/163/27 15/166/27 70/17/27
f 88/232/28 155/173/28 18/176/28 71/233/28
f 109/234/8 164/169/8 165/172/8 116/235/8
f 116/235/8 165/172/8 166/203/8 122/236/8
f 80/237/8 83/151/8 97/154/8 103/160/8
f 91/219/8 163/238/8 154/217/8
f 110/207/8 135/182/8 133/181/8 127/239/8
f 121/197/8 137/196/8 110/207/8 127/239/8
f 131/206/8 140/240/8 135/182/8 110/207/8
f 168/194/8 138/193/8 169/241/8
f 122/236/8 166/203/8 167/195/8 128/242/8
f 167/195/8 168/194/8 136/243/8 128/242/8
f 101/162/8 102/161/8 170/244/8 134/178/8 107/177/8
f 90/245/8 158/246/8 152/247/8 146/248/8 139/249/8 130/250/8 124/251/8 118/252/8 112/253/8 105/254/8 99/255/8 85/256/8 92/257/8 178/258/8
f 135/182/8 140/240/8 171/183/8
f 136/243/8 168/194/8 169/241/8 145/209/8 144/208/8
f 103/160/8 104/159/8 172/259/8 164/169/8 109/234/8
f 170/244/8 113/222/8 134/178/8
f 172/259/8 111/170/8 164/169/8
f 57/191/29 176/260/29 172/261/29 104/188/29
f 56/262/12 111/263/12 172/264/12 176/265/12
f 60/39/8 55/80/8 56/79/8 176/266/8 57/40/8
f 27/267/30 143/268/30 171/269/30 175/270/30
f 36/187/12 175/270/12 171/269/12 140/186/12
f 27/47/8 175/271/8 36/64/8 35/63/8 33/48/8
f 58/201/31 174/272/31 170/273/31 102/198/31
f 54/274/11 113/275/11 170/276/11 174/277/11
f 58/44/8 59/43/8 53/78/8 54/77/8 174/278/8
f 24/279/32 145/280/32 169/281/32 173/282/32
f 38/168/9 173/282/9 169/281/9 138/167/9
f 24/51/8 173/283/8 38/68/8 37/67/8 34/52/8
f 76/46/8 66/45/8 65/284/8 67/285/8
f 4/286/33 7/287/33 177/288/33 6/289/33
f 177/288/33 7/287/33 2/290/33 5/291/33
f 87/292/34 178/293/34 177/294/34 5/295/34 163/296/34 91/297/34 88/298/34 71/299/34 72/300/34
f 163/238/8 162/301/8 154/217/8
f 2/302/11 1/303/11 74/304/11
f 3/305/9 4/306/9 73/144/9
f 4/306/9 6/307/9 73/144/9
f 6/307/9 79/145/9 73/144/9
f 94/223/8 83/151/8 79/308/8
f 79/308/8 83/151/8 80/237/8
f 154/217/8 162/301/8 142/185/8 148/213/8
f 5/309/11 2/302/11 74/304/11
f 163/310/11 74/304/11 162/311/11
f 5/309/11 74/304/11 163/310/11
f 86/312/8 90/245/8 178/258/8 87/313/8 159/314/8 153/315/8 147/316/8 141/317/8 132/318/8 126/319/8 120/320/8 114/321/8 106/322/8 100/323/8
f 177/294/34 178/293/34 92/324/34 67/325/34 65/326/34 93/327/34 94/328/34 79/329/34 6/330/34
s 1
f 159/331/35 87/332/36 72/333/36 19/334/35
f 105/335/37 112/336/38 55/337/38 60/338/37
f 92/339/39 85/340/40 76/341/40 67/342/39
f 90/343/41 86/344/42 75/345/42 68/346/41
f 120/347/43 126/348/44 43/349/44 49/350/43
f 152/351/45 158/352/46 22/353/46 32/354/45
f 99/355/47 105/335/37 60/338/37 64/356/47
f 118/357/48 124/358/49 45/359/49 51/360/48
f 153/361/50 159/331/35 19/334/35 29/362/50
f 132/363/51 141/364/52 35/365/52 39/366/51
f 100/367/53 106/368/54 59/369/54 63/370/53
f 130/371/55 139/372/56 37/373/56 41/374/55
f 114/375/57 120/347/43 49/350/43 53/376/57
f 146/377/58 152/351/45 32/354/45 34/378/58
f 112/336/38 118/357/48 51/360/48 55/337/38
f 85/340/40 99/355/47 64/356/47 76/341/40
f 147/379/59 153/361/50 29/362/50 33/380/59
f 126/348/44 132/363/51 39/366/51 43/349/44
f 86/344/42 100/367/53 63/370/53 75/345/42
f 158/352/46 90/343/41 68/346/41 22/353/46
f 124/358/49 130/371/55 41/374/55 45/359/49
f 141/381/52 147/379/59 33/380/59 35/382/52
f 106/368/54 114/375/57 53/376/57 59/369/54
f 139/372/56 146/377/58 34/378/58 37/383/56
