# Blender v3.1.2 OBJ File: 'WallZero2.blend'
# www.blender.org
mtllib door.mtl
o doorsub_low_Cube.007
v -0.200000 0.093000 -0.200000
v -0.200000 0.075000 -0.200000
v -0.200000 0.093000 0.200000
v -0.200000 0.075000 0.200000
v 0.000000 0.075000 -0.200000
v 0.000000 0.085000 0.200000
v 0.000000 0.075000 0.200000
v 0.000000 0.085000 -0.200000
v -0.200000 0.075000 -0.000000
v -0.200000 0.085000 0.000000
v -0.055759 0.093000 0.111300
v -0.111300 0.093000 -0.055759
v -0.062400 0.093000 0.108080
v -0.108080 0.093000 -0.062400
v -0.075973 0.093000 0.099010
v -0.099010 0.093000 -0.075973
v -0.105497 0.097095 0.013894
v -0.088247 0.093000 0.088247
v -0.088247 0.093000 -0.088247
v -0.013895 0.097095 -0.105483
v -0.007832 0.097095 -0.059487
v -0.099011 0.093000 0.075973
v -0.075973 0.093000 -0.099011
v -0.059487 0.097095 0.007832
v -0.102782 0.097095 0.027545
v -0.098308 0.097095 0.040724
v -0.108080 0.093000 0.062400
v -0.062400 0.093000 -0.108080
v -0.040725 0.097095 -0.098294
v -0.027546 0.097095 -0.102768
v -0.015529 0.097095 -0.057956
v -0.111300 0.093000 0.055759
v -0.055759 0.093000 -0.111300
v -0.057956 0.097095 0.015529
v -0.022961 0.097095 -0.055433
v -0.055433 0.097095 0.022961
v -0.030000 0.097095 -0.051962
v -0.044711 0.097095 -0.077418
v -0.051962 0.097095 0.030000
v -0.077435 0.097095 0.044710
v -0.036526 0.097095 -0.047601
v -0.054435 0.097095 -0.070921
v -0.047601 0.097095 0.036526
v -0.070938 0.097095 0.054433
v -0.042426 0.097095 -0.042426
v -0.063227 0.097095 -0.063210
v -0.042426 0.097095 0.042426
v -0.063227 0.097095 0.063226
v -0.200000 0.093000 -0.055759
v -0.200000 0.093000 0.055759
v -0.047601 0.097095 -0.036526
v -0.070938 0.097095 -0.054418
v -0.036526 0.097095 0.047601
v -0.054435 0.097095 0.070937
v -0.051962 0.097095 -0.030000
v -0.077435 0.097095 -0.044694
v -0.030000 0.097095 0.051962
v -0.044711 0.097095 0.077434
v -0.040725 0.097095 0.098307
v -0.098308 0.097095 -0.040711
v -0.055433 0.097095 -0.022961
v -0.022961 0.097095 0.055433
v -0.027546 0.097095 0.102781
v -0.102782 0.097095 -0.027532
v -0.057956 0.097095 -0.015529
v -0.015529 0.097095 0.057956
v -0.000007 0.097095 0.106406
v -0.013895 0.097095 0.105496
v -0.000000 0.097095 0.060000
v -0.060000 0.097095 0.000000
v -0.105497 0.097095 -0.013882
v -0.106407 0.097095 0.000006
v -0.000007 0.097095 -0.106394
v 0.000000 0.097095 -0.060000
v -0.055759 0.093000 0.200000
v -0.055759 0.093000 -0.200000
v -0.059487 0.097095 -0.007832
v -0.007832 0.097095 0.059487
v -0.200000 0.095000 0.000000
v -0.200000 0.095000 -0.055759
v 0.000000 0.095000 0.200000
v -0.055759 0.095000 0.200000
v -0.123732 0.095000 -0.016290
v -0.105497 0.095000 -0.013882
v -0.016290 0.095000 0.123732
v -0.013895 0.095000 0.105496
v -0.007832 0.082204 0.059487
v -0.059487 0.082204 -0.007832
v 0.000000 0.082204 -0.060000
v -0.000007 0.095000 -0.106394
v -0.106407 0.095000 0.000006
v -0.060000 0.082204 0.000000
v 0.000000 0.095000 -0.124800
v -0.000000 0.082204 0.060000
v -0.000007 0.095000 0.106406
v 0.000000 0.095000 0.124800
v -0.120548 0.095000 -0.032301
v -0.102782 0.095000 -0.027532
v -0.032301 0.095000 0.120548
v -0.027546 0.095000 0.102781
v -0.015529 0.082204 0.057956
v -0.057956 0.082204 -0.015529
v -0.111300 0.095000 -0.055759
v -0.098308 0.095000 -0.040711
v -0.055759 0.095000 0.111300
v -0.040725 0.095000 0.098307
v -0.022961 0.082204 0.055433
v -0.055433 0.082204 -0.022961
v -0.108080 0.095000 -0.062400
v -0.083940 0.095000 -0.064404
v -0.062400 0.095000 0.108080
v -0.064411 0.095000 -0.083934
v -0.044711 0.095000 0.077434
v -0.030000 0.082204 0.051962
v -0.077435 0.095000 -0.044694
v -0.051962 0.082204 -0.030000
v -0.099010 0.095000 -0.075973
v -0.075973 0.095000 0.099010
v -0.054435 0.095000 0.070937
v -0.036526 0.082204 0.047601
v -0.070938 0.095000 -0.054418
v -0.047601 0.082204 -0.036526
v -0.088247 0.095000 -0.088247
v -0.088247 0.095000 0.088247
v -0.063227 0.095000 0.063226
v -0.042426 0.082204 0.042426
v -0.063227 0.095000 -0.063210
v -0.042426 0.082204 -0.042426
v -0.075973 0.095000 -0.099011
v -0.099011 0.095000 0.075973
v -0.070938 0.095000 0.054433
v -0.047601 0.082204 0.036526
v -0.054435 0.095000 -0.070921
v -0.036526 0.082204 -0.047601
v -0.062400 0.095000 -0.108080
v -0.091629 0.095000 -0.052897
v -0.052904 0.095000 -0.091622
v -0.108080 0.095000 0.062400
v -0.074816 0.095000 -0.074809
v -0.077435 0.095000 0.044710
v -0.051962 0.082204 0.030000
v -0.044711 0.095000 -0.077418
v -0.030000 0.082204 -0.051962
v -0.055759 0.095000 -0.111300
v -0.040725 0.095000 -0.098294
v -0.111300 0.095000 0.055759
v -0.098308 0.095000 0.040724
v -0.055433 0.082204 0.022961
v -0.022961 0.082204 -0.055433
v -0.032301 0.095000 -0.120548
v -0.027546 0.095000 -0.102768
v -0.120548 0.095000 0.032301
v -0.102782 0.095000 0.027545
v -0.057956 0.082204 0.015529
v -0.015529 0.082204 -0.057956
v -0.016290 0.095000 -0.123732
v -0.013895 0.095000 -0.105483
v -0.123732 0.095000 0.016290
v -0.105497 0.095000 0.013894
v -0.059487 0.082204 0.007832
v -0.007832 0.082204 -0.059487
v -0.200000 0.095000 0.055759
v -0.124800 0.095000 0.000000
v -0.055759 0.095000 -0.200000
v 0.000000 0.095000 -0.200000
v -0.052904 0.095000 0.091629
v -0.064411 0.095000 0.083940
v -0.074816 0.095000 0.074815
v -0.083940 0.095000 0.064410
v -0.091629 0.095000 0.052903
v -0.096122 0.095000 0.044710
v -0.096125 0.095000 -0.044694
v -0.044711 0.095000 -0.096111
v -0.044711 0.095000 0.096121
v -0.096122 0.097095 0.044710
v -0.096125 0.097095 -0.044694
v -0.044711 0.097095 -0.096111
v -0.044711 0.097095 0.096121
v 0.000000 0.075000 -0.000000
vt 0.696471 0.756406
vt 0.696471 0.777579
vt 0.692652 0.777579
vt 0.692652 0.756406
vt 0.688832 0.729259
vt 0.703112 0.729259
vt 0.703112 0.756406
vt 0.688832 0.756406
vt 0.774638 0.690754
vt 0.774638 0.665437
vt 0.778457 0.665437
vt 0.778457 0.690754
vt 0.525945 0.771940
vt 0.525945 0.757754
vt 0.553093 0.757754
vt 0.553093 0.771940
vt 0.717391 0.756406
vt 0.703112 0.756406
vt 0.703112 0.729259
vt 0.717391 0.729259
vt 0.700290 0.756406
vt 0.700290 0.777579
vt 0.696471 0.777579
vt 0.696471 0.756406
vt 0.553093 0.743537
vt 0.553093 0.729259
vt 0.580241 0.729259
vt 0.580241 0.743537
vt 0.774811 0.737980
vt 0.774811 0.759119
vt 0.770992 0.759119
vt 0.770992 0.737980
vt 0.729259 0.620930
vt 0.729259 0.606743
vt 0.756406 0.606743
vt 0.756406 0.620930
vt 0.721210 0.729259
vt 0.721210 0.754579
vt 0.717391 0.754579
vt 0.717391 0.729259
vt 0.733078 0.755926
vt 0.733078 0.777247
vt 0.729259 0.777247
vt 0.729259 0.755926
vt 0.580241 0.743567
vt 0.580241 0.729259
vt 0.607389 0.729259
vt 0.607389 0.743567
vt 0.774811 0.716659
vt 0.770992 0.716659
vt 0.358362 0.980124
vt 0.341827 0.955378
vt 0.322203 0.933002
vt 0.299827 0.913378
vt 0.275081 0.896843
vt 0.262973 0.890972
vt 0.262973 0.729259
vt 0.525946 0.729259
vt 0.525946 0.992231
vt 0.364233 0.992231
vt 0.814802 0.208272
vt 0.730918 0.219302
vt 0.729259 0.193983
vt 0.813866 0.193995
vt 0.873034 0.006610
vt 0.894943 0.088333
vt 0.881393 0.092933
vt 0.849008 0.014766
vt 0.817594 0.222306
vt 0.735868 0.244189
vt 0.822193 0.235856
vt 0.744024 0.268217
vt 0.897922 0.001659
vt 0.908977 0.085542
vt 0.849008 0.373199
vt 0.881393 0.295056
vt 0.894943 0.299656
vt 0.873034 0.381356
vt 0.744024 0.119749
vt 0.822192 0.152133
vt 0.817594 0.165683
vt 0.735868 0.143776
vt 0.923255 0.303383
vt 0.923242 0.387965
vt 0.897922 0.386306
vt 0.908977 0.302447
vt 0.814802 0.179716
vt 0.730918 0.168663
vt 0.824013 0.323294
vt 0.856663 0.280778
vt 0.868561 0.288728
vt 0.841741 0.335139
vt 0.793924 0.094754
vt 0.836471 0.127402
vt 0.828522 0.139300
vt 0.782080 0.112482
vt 0.807982 0.309237
vt 0.845905 0.271344
vt 0.807982 0.078724
vt 0.845905 0.116645
vt 0.793924 0.293206
vt 0.836471 0.260586
vt 0.824013 0.064666
vt 0.856663 0.107210
vt 0.782080 0.275478
vt 0.828522 0.248689
vt 0.841741 0.052821
vt 0.868561 0.099261
vt 0.767345 0.768456
vt 0.767345 0.606743
vt 0.770992 0.606743
vt 0.770992 0.768456
vt 0.736724 0.748116
vt 0.736724 0.777879
vt 0.733078 0.777879
vt 0.733078 0.748116
vt 0.763699 0.768456
vt 0.763699 0.606743
vt 0.767345 0.606743
vt 0.767345 0.768456
vt 0.763699 0.606743
vt 0.763699 0.768456
vt 0.760053 0.768456
vt 0.760053 0.606743
vt 0.778457 0.725028
vt 0.778457 0.754790
vt 0.774811 0.754790
vt 0.774811 0.725028
vt 1.000000 0.364630
vt 1.000000 0.729258
vt 0.967183 0.729258
vt 0.967183 0.466286
vt 0.981768 0.364630
vt 0.871464 0.752595
vt 0.838647 0.752595
vt 0.838647 0.387966
vt 0.856879 0.387966
vt 0.871464 0.489622
vt 0.774638 0.606743
vt 0.774638 0.636251
vt 0.770992 0.636251
vt 0.770992 0.606743
vt 0.000000 0.830518
vt 0.012108 0.824647
vt 0.036854 0.808113
vt 0.059230 0.788489
vt 0.078854 0.766113
vt 0.095389 0.741366
vt 0.101260 0.729259
vt 0.262973 0.729259
vt 0.262973 0.992231
vt 0.000000 0.992231
vt 0.744017 0.764343
vt 0.744017 0.777796
vt 0.740371 0.777796
vt 0.740371 0.764343
vt 0.774638 0.666013
vt 0.774638 0.695521
vt 0.770992 0.695521
vt 0.770992 0.666013
vt 0.875110 0.387966
vt 0.875110 0.489622
vt 0.736724 0.734787
vt 0.733078 0.734787
vt 0.740371 0.764343
vt 0.740371 0.777797
vt 0.736724 0.777797
vt 0.736724 0.764343
vt 0.963537 0.466286
vt 0.963537 0.364630
vt 0.760053 0.606743
vt 0.760053 0.768456
vt 0.756406 0.768456
vt 0.756406 0.606743
vt 0.967183 0.262972
vt 0.963537 0.262972
vt 0.893342 0.752596
vt 0.907927 0.650938
vt 0.911573 0.650938
vt 0.911573 0.752596
vt 0.744017 0.734787
vt 0.740371 0.734787
vt 0.778457 0.695521
vt 0.774811 0.695521
vt 0.740371 0.734787
vt 0.736724 0.734787
vt 0.875110 0.752596
vt 0.875110 0.387966
vt 0.907927 0.387966
vt 0.967183 0.000000
vt 1.000000 0.000000
vt 0.733078 0.734787
vt 0.729259 0.734787
vt 0.699560 0.139048
vt 0.703926 0.172295
vt 0.679039 0.177244
vt 0.670370 0.144854
vt 0.503677 0.394327
vt 0.536922 0.389938
vt 0.541872 0.414824
vt 0.509483 0.423517
vt 0.634537 0.743445
vt 0.634537 0.729259
vt 0.661684 0.729259
vt 0.661684 0.743445
vt 0.525945 0.743445
vt 0.525945 0.729259
vt 0.553093 0.729259
vt 0.553093 0.743445
vt 0.655012 0.185402
vt 0.627602 0.161713
vt 0.550030 0.438852
vt 0.526342 0.466286
vt 0.778457 0.606743
vt 0.778457 0.631900
vt 0.774638 0.631900
vt 0.774638 0.606743
vt 0.774811 0.695521
vt 0.770992 0.695521
vt 0.632809 0.197577
vt 0.647745 0.223455
vt 0.630016 0.235302
vt 0.611830 0.211594
vt 0.725030 0.729259
vt 0.725030 0.754633
vt 0.721210 0.754633
vt 0.721210 0.729259
vt 0.532213 0.478394
vt 0.562206 0.461067
vt 0.576223 0.482046
vt 0.548748 0.503139
vt 0.607389 0.743567
vt 0.607389 0.729259
vt 0.634537 0.729259
vt 0.634537 0.743567
vt 0.729259 0.677920
vt 0.729259 0.663611
vt 0.756406 0.663611
vt 0.756406 0.677920
vt 0.615494 0.561674
vt 0.632809 0.531670
vt 0.647745 0.539854
vt 0.655012 0.543835
vt 0.627602 0.567545
vt 0.692652 0.756406
vt 0.692652 0.777727
vt 0.688832 0.777727
vt 0.688832 0.756406
vt 0.728849 0.729259
vt 0.728849 0.754416
vt 0.725030 0.754416
vt 0.725030 0.729259
vt 0.599930 0.265388
vt 0.588083 0.283117
vt 0.562206 0.268179
vt 0.576223 0.247200
vt 0.592859 0.501017
vt 0.568373 0.525517
vt 0.782277 0.606743
vt 0.782277 0.631900
vt 0.778457 0.631900
vt 0.778457 0.606743
vt 0.613987 0.249359
vt 0.592859 0.228230
vt 0.599930 0.463840
vt 0.613987 0.479872
vt 0.630016 0.493929
vt 0.611830 0.517653
vt 0.661684 0.743445
vt 0.661684 0.729259
vt 0.688832 0.729259
vt 0.688832 0.743445
vt 0.703936 0.756406
vt 0.703936 0.769759
vt 0.700290 0.769759
vt 0.700290 0.756406
vt 0.526342 0.262972
vt 0.550030 0.290384
vt 0.541872 0.314411
vt 0.509483 0.305740
vt 0.679039 0.551991
vt 0.670370 0.584406
vt 0.729259 0.720601
vt 0.729259 0.706292
vt 0.756406 0.706292
vt 0.756406 0.720601
vt 0.536922 0.339298
vt 0.503677 0.334930
vt 0.703926 0.556940
vt 0.699560 0.590212
vt 0.729246 0.558601
vt 0.729259 0.592157
vt 0.729259 0.635238
vt 0.756406 0.635238
vt 0.501730 0.364630
vt 0.535263 0.364618
vt 0.588083 0.446114
vt 0.729259 0.137100
vt 0.729246 0.170635
vt 0.580241 0.757754
vt 0.607389 0.757754
vt 0.634537 0.757754
vt 0.661684 0.757754
vt 0.778457 0.657274
vt 0.774638 0.657274
vt 0.725030 0.779790
vt 0.721210 0.779790
vt 0.728849 0.779790
vt 0.725030 0.779790
vt 0.607389 0.757754
vt 0.634537 0.757754
vt 0.729259 0.692106
vt 0.756406 0.692106
vt 0.782277 0.657274
vt 0.778457 0.657274
vt 0.661684 0.757754
vt 0.688832 0.757754
vt 0.553093 0.757815
vt 0.580241 0.757815
vt 0.364630 0.466286
vt 0.364630 0.364630
vt 0.364630 0.262972
vt 0.729259 0.734787
vt 0.756406 0.734787
vt 0.729259 0.649425
vt 0.756406 0.649425
vt 0.721210 0.779898
vt 0.717391 0.779898
vt 0.729259 0.649425
vt 0.756406 0.649425
vt 0.774811 0.780108
vt 0.774811 0.754790
vt 0.778630 0.754790
vt 0.778630 0.780108
vt 0.615494 0.167583
vt 0.590748 0.184118
vt 0.568373 0.203743
vt 0.729259 0.692106
vt 0.756406 0.692106
vt 0.729259 0.000000
vt 0.627602 0.000000
vt 0.729259 0.729258
vt 0.627602 0.729258
vt 0.590748 0.545139
vt 0.647745 0.505774
vt 0.554014 0.283117
vt 0.548748 0.226118
vt 0.532213 0.250864
vt 0.554008 0.446114
vt 0.729259 0.497355
vt 0.730195 0.483077
vt 0.732986 0.469043
vt 0.737585 0.455493
vt 0.743914 0.442660
vt 0.751863 0.430763
vt 0.761298 0.420005
vt 0.772056 0.410571
vt 0.783953 0.402621
vt 0.796786 0.396292
vt 0.810336 0.391693
vt 0.824369 0.388902
vt 0.838647 0.387966
vt 0.838647 0.606743
vt 0.824369 0.605807
vt 0.810336 0.603016
vt 0.796786 0.598416
vt 0.783953 0.592088
vt 0.772056 0.584138
vt 0.761298 0.574704
vt 0.751863 0.563946
vt 0.743914 0.552049
vt 0.737585 0.539216
vt 0.732986 0.525666
vt 0.730195 0.511632
vt 0.647745 0.189386
vt 0.703937 0.764690
vt 0.703936 0.756406
vt 0.707756 0.756406
vt 0.707756 0.764690
vt 0.751656 0.734787
vt 0.755475 0.734787
vt 0.755475 0.768857
vt 0.751656 0.768857
vt 0.841741 0.018751
vt 0.711576 0.756406
vt 0.715395 0.756406
vt 0.715395 0.764660
vt 0.711575 0.764660
vt 0.744017 0.768866
vt 0.744017 0.734787
vt 0.747836 0.734787
vt 0.747836 0.768866
vt 0.841741 0.369219
vt 0.707756 0.764683
vt 0.707756 0.756406
vt 0.711575 0.756406
vt 0.711575 0.764683
vt 0.751656 0.768862
vt 0.747836 0.768862
vt 0.747836 0.734787
vt 0.751656 0.734787
vt 0.748005 0.275478
vt 0.778457 0.665437
vt 0.774638 0.665437
vt 0.782277 0.657275
vt 0.782277 0.691345
vt 0.778457 0.691345
vt 0.778457 0.657275
vt 0.748010 0.112482
vt 0.923242 0.000000
vt 0.923255 0.084605
vt 0.000000 0.729259
vt 0.000000 0.364630
vt 0.364630 0.364630
vt 0.364630 0.729259
vt 0.000000 0.000000
vt 0.364630 0.000000
vt 0.936389 0.255241
vt 0.936389 0.474018
vt 0.963537 0.474018
vt 0.963537 0.558624
vt 0.959718 0.558624
vt 0.959718 0.592157
vt 0.959718 0.729258
vt 0.941486 0.729258
vt 0.923255 0.729258
vt 0.923255 0.364630
vt 0.923255 0.000000
vt 0.941486 0.000000
vt 0.959718 0.000000
vt 0.959718 0.137100
vt 0.959718 0.170658
vt 0.963537 0.170658
vt 0.963537 0.255241
vn -0.5556 0.0000 0.8315
vn 0.0654 0.0000 0.9979
vn -0.0654 0.0000 0.9979
vn 0.4423 0.0000 -0.8969
vn 0.0654 0.0000 -0.9979
vn -0.8315 0.0000 -0.5556
vn 0.9979 0.0000 0.0654
vn -0.6593 0.0000 0.7518
vn 0.7518 0.0000 0.6593
vn -0.9979 0.0000 -0.0654
vn -0.7518 0.0000 -0.6593
vn 0.9808 0.0000 -0.1951
vn -0.7518 0.0000 0.6593
vn 0.0000 1.0000 0.0000
vn 0.6925 0.7214 0.0000
vn 0.7219 0.6920 0.0000
vn 0.0000 0.0000 1.0000
vn -0.5556 0.0000 -0.8315
vn 0.0000 0.0000 -1.0000
vn -1.0000 0.0000 0.0000
vn -0.7071 -0.7071 -0.0000
vn -0.5774 -0.5774 0.5774
vn 0.5774 -0.5773 0.5774
vn 0.7071 0.0001 0.7071
vn -0.8315 0.0000 0.5556
vn -0.8998 0.0000 -0.4363
vn 0.5773 0.5774 0.5773
vn -0.4363 0.0000 -0.8998
vn -0.4363 0.0000 0.8998
vn 0.7071 0.0001 -0.7071
vn 0.5773 0.5774 -0.5773
vn -0.6593 0.0000 -0.7518
vn 0.5774 -0.5773 -0.5774
vn -0.5774 -0.5774 -0.5774
vn 0.3214 0.0000 -0.9469
vn 0.6593 0.0000 -0.7518
vn -0.9808 0.0000 0.1951
vn -0.1951 0.0000 -0.9808
vn 0.1951 0.0000 0.9808
vn 0.5556 0.0000 0.8315
vn -0.3214 0.0000 0.9469
vn -0.9469 0.0000 -0.3214
vn 0.9469 0.0000 0.3214
vn -0.8998 0.0000 0.4363
vn 0.8315 0.0000 -0.5556
vn 0.6924 0.7215 0.0000
vn 0.7071 0.7071 0.0000
vn 0.8315 0.0000 0.5556
vn 0.9469 0.0000 -0.3214
vn 0.5556 0.0000 -0.8315
vn 0.1951 0.0000 -0.9808
vn -0.9469 0.0000 0.3214
vn -0.3214 0.0000 -0.9469
vn -0.1951 0.0000 0.9808
vn 0.3214 0.0000 0.9469
vn 0.6593 0.0000 0.7518
vn -0.9808 0.0000 -0.1951
vn 0.9808 0.0000 0.1951
vn 0.9979 -0.0000 -0.0654
vn 0.7518 0.0000 -0.6593
vn 0.4423 0.0000 0.8969
vn -0.9979 0.0000 0.0654
vn 0.8969 -0.0000 0.4423
vn -0.0654 0.0000 -0.9979
vn 0.8969 0.0000 -0.4423
vn 0.7220 0.6919 0.0000
vn -0.4808 0.0000 0.8768
vn -0.4805 0.0000 -0.8770
vn -0.8769 0.0000 -0.4806
vn -0.8768 0.0000 0.4808
vn 0.7071 -0.7071 -0.0000
usemtl doorsub_low
s 1
f 119/1/1 113/2/1 58/3/1 54/4/1
f 161/5/2 89/6/2 74/7/2 21/8/2
f 86/9/3 95/10/3 67/11/3 68/12/3
f 107/13/4 114/14/4 57/15/4 62/16/4
f 94/17/5 87/18/5 78/19/5 69/20/5
f 121/21/6 115/22/6 56/23/6 52/24/6
f 92/25/7 88/26/7 77/27/7 70/28/7
f 125/29/8 119/30/8 54/31/8 48/32/8
f 122/33/9 128/34/9 45/35/9 51/36/9
f 84/37/10 91/38/10 72/39/10 71/40/10
f 127/41/11 121/42/11 52/43/11 46/44/11
f 154/45/12 160/46/12 24/47/12 34/48/12
f 131/49/13 125/29/13 48/32/13 44/50/13
f 14/51/14 16/52/14 19/53/14 23/54/14 28/55/14 33/56/14 76/57/14 1/58/14 49/59/14 12/60/14
f 77/61/14 71/62/14 72/63/14 70/64/14
f 63/65/14 66/66/14 62/67/14 59/68/14
f 71/62/14 77/61/14 65/69/14 64/70/14
f 64/70/14 65/69/14 61/71/14 60/72/14
f 68/73/14 78/74/14 66/66/14 63/65/14
f 29/75/14 35/76/14 31/77/14 30/78/14
f 26/79/14 36/80/14 34/81/14 25/82/14
f 74/83/15 73/84/16 20/85/14 21/86/14
f 30/78/14 31/77/14 21/86/14 20/85/14
f 24/87/14 70/64/14 72/63/14 17/88/14
f 25/82/14 34/81/14 24/87/14 17/88/14
f 42/89/14 41/90/14 37/91/14 38/92/14
f 44/93/14 43/94/14 39/95/14 40/96/14
f 46/97/14 45/98/14 41/90/14 42/89/14
f 48/99/14 47/100/14 43/94/14 44/93/14
f 52/101/14 51/102/14 45/98/14 46/97/14
f 54/103/14 53/104/14 47/100/14 48/99/14
f 56/105/14 55/106/14 51/102/14 52/101/14
f 58/107/14 57/108/14 53/104/14 54/103/14
f 50/109/17 32/110/17 146/111/17 162/112/17
f 28/113/18 23/114/18 129/115/18 135/116/18
f 12/117/19 49/118/19 80/119/19 103/120/19
f 76/121/20 33/122/20 144/123/20 164/124/20
f 19/125/11 16/126/11 117/127/11 123/128/11
f 9/129/21 4/130/22 3/131/20 50/132/20 10/133/20
f 3/134/17 4/135/22 7/136/23 6/137/24 75/138/17
f 27/139/25 22/140/25 130/141/25 138/142/25
f 11/143/14 13/144/14 15/145/14 18/146/14 22/147/14 27/148/14 32/149/14 50/150/14 3/151/14 75/152/14
f 14/153/26 12/154/26 103/155/26 109/156/26
f 18/157/8 15/158/8 118/159/8 124/160/8
f 75/138/17 6/137/24 81/161/27 82/162/17
f 33/163/28 28/113/28 135/116/28 144/164/28
f 13/165/29 11/166/29 105/167/29 111/168/29
f 10/133/20 50/132/20 162/169/20 79/170/20
f 11/171/20 75/172/20 82/173/20 105/174/20
f 49/175/20 10/133/20 79/170/20 80/176/20
f 8/177/30 76/178/19 164/179/19 165/180/31
f 16/181/6 14/153/6 109/156/6 117/182/6
f 23/183/32 19/125/32 123/128/32 129/184/32
f 15/185/1 13/165/1 111/168/1 118/186/1
f 5/187/33 2/188/34 1/189/19 76/178/19 8/177/30
f 1/190/20 2/191/34 9/129/21 10/133/20 49/175/20
f 22/140/13 18/157/13 124/160/13 130/141/13
f 133/192/32 127/41/32 46/44/32 42/193/32
f 85/194/14 86/195/14 100/196/14 99/197/14
f 83/198/14 84/199/14 98/200/14 97/201/14
f 101/202/35 107/203/35 62/204/35 66/205/35
f 120/206/36 126/207/36 47/208/36 53/209/36
f 99/197/14 100/196/14 106/210/14 105/211/14
f 97/201/14 98/200/14 104/212/14 103/213/14
f 159/214/37 153/215/37 25/216/37 17/217/37
f 140/218/25 131/49/25 44/50/25 40/219/25
f 166/220/14 113/221/14 119/222/14 167/223/14
f 157/224/38 151/225/38 30/226/38 20/227/38
f 109/228/14 136/229/14 110/230/14 117/231/14
f 155/232/39 161/233/39 21/234/39 31/235/39
f 134/236/40 143/237/40 37/238/40 41/239/40
f 135/240/14 137/241/14 173/242/14 145/243/14 144/244/14
f 142/245/18 133/246/18 42/247/18 38/248/18
f 106/249/41 100/250/41 63/251/41 59/252/41
f 131/253/14 140/254/14 170/255/14 169/256/14
f 117/231/14 110/230/14 139/257/14 123/258/14
f 104/259/42 98/260/42 64/261/42 60/262/42
f 167/223/14 119/222/14 125/263/14 168/264/14
f 110/230/14 121/265/14 127/266/14 139/257/14
f 139/257/14 127/266/14 133/267/14 112/268/14
f 102/269/43 108/270/43 61/271/43 65/272/43
f 168/264/14 125/263/14 131/253/14 169/256/14
f 32/273/44 27/274/44 138/275/44 146/276/44
f 146/277/14 147/278/14 153/279/14 152/280/14
f 144/244/14 145/243/14 151/281/14 150/282/14
f 132/283/45 141/284/45 39/285/45 43/286/45
f 152/280/14 153/279/14 159/287/14 158/288/14
f 150/282/14 151/281/14 157/289/14 156/290/14
f 156/290/14 157/289/14 90/291/46 93/292/47
f 116/293/48 122/33/48 51/36/48 55/294/48
f 83/198/14 163/295/14 91/296/14 84/199/14
f 158/288/14 159/287/14 91/296/14 163/295/14
f 136/229/14 115/297/14 121/265/14 110/230/14
f 86/195/14 85/194/14 96/298/47 95/299/46
f 148/300/49 154/45/49 34/48/49 36/301/49
f 114/14/50 120/206/50 53/209/50 57/15/50
f 87/302/51 101/202/51 66/205/51 78/303/51
f 153/215/52 147/304/52 26/305/52 25/216/52
f 151/225/53 145/306/53 29/307/53 30/226/53
f 100/250/54 86/308/54 68/309/54 63/251/54
f 149/310/55 155/232/55 31/235/55 35/311/55
f 128/312/56 134/236/56 41/239/56 45/313/56
f 98/260/57 84/314/57 71/315/57 64/261/57
f 88/316/58 102/269/58 65/272/58 77/317/58
f 160/318/59 92/25/59 70/28/59 24/319/59
f 146/277/14 152/280/14 158/288/14 163/295/14 83/198/14 97/201/14 103/213/14 80/320/14 79/321/14 162/322/14
f 126/323/60 132/283/60 43/286/60 47/324/60
f 143/237/61 149/325/61 35/326/61 37/238/61
f 91/38/62 159/327/62 17/328/62 72/39/62
f 108/329/63 116/293/63 55/294/63 61/330/63
f 90/331/64 157/332/64 20/333/64 73/334/64
f 111/335/14 166/220/14 167/223/14 118/336/14
f 118/336/14 167/223/14 168/264/14 124/337/14
f 141/284/65 148/338/65 36/339/65 39/285/65
f 81/340/27 96/298/47 85/194/14 99/197/14 105/211/14 82/341/14
f 165/342/31 164/343/14 144/244/14 150/282/14 156/290/14 93/292/47
f 112/268/14 137/241/14 135/240/14 129/344/14
f 123/258/14 139/257/14 112/268/14 129/344/14
f 133/267/14 142/345/14 137/241/14 112/268/14
f 170/255/14 140/254/14 171/346/14
f 124/337/14 168/264/14 169/256/14 130/347/14
f 169/256/14 170/255/14 138/348/14 130/347/14
f 103/213/14 104/212/14 172/349/14 136/229/14 109/228/14
f 92/350/14 160/351/14 154/352/14 148/353/14 141/354/14 132/355/14 126/356/14 120/357/14 114/358/14 107/359/14 101/360/14 87/361/14 94/362/66 89/363/66 161/364/14 155/365/14 149/366/14 143/367/14 134/368/14 128/369/14 122/370/14 116/371/14 108/372/14 102/373/14 88/374/14
f 137/241/14 142/345/14 173/242/14
f 138/348/14 170/255/14 171/346/14 147/278/14 146/277/14
f 105/211/14 106/210/14 174/375/14 166/220/14 111/335/14
f 172/349/14 115/297/14 136/229/14
f 174/375/14 113/221/14 166/220/14
f 59/376/67 178/377/67 174/378/67 106/379/67
f 58/380/20 113/381/20 174/382/20 178/383/20
f 62/67/14 57/108/14 58/107/14 178/384/14 59/68/14
f 29/385/68 145/386/68 173/387/68 177/388/68
f 38/389/20 177/390/20 173/391/20 142/392/20
f 29/75/14 177/393/14 38/92/14 37/91/14 35/76/14
f 60/394/69 176/395/69 172/396/69 104/397/69
f 56/398/19 115/399/19 172/400/19 176/401/19
f 60/72/14 61/71/14 55/106/14 56/105/14 176/402/14
f 26/305/70 147/304/70 171/403/70 175/404/70
f 40/405/17 175/406/17 171/407/17 140/408/17
f 26/79/14 175/409/14 40/96/14 39/95/14 36/80/14
f 78/74/14 68/73/14 67/410/16 69/411/15
f 4/412/22 9/413/21 179/414/71 7/415/23
f 179/414/71 9/413/21 2/416/34 5/417/33
f 89/418/66 94/419/66 69/420/15 67/421/16 95/422/46 96/423/47 81/424/27 6/425/24 7/426/23 179/427/71 5/428/33 8/429/30 165/430/31 93/431/47 90/432/46 73/433/16 74/434/15
