# Blender 3.1.1
# www.blender.org
mtllib doorhandle.mtl
o Cube
v -0.015529 0.017204 -0.043467
v -0.015529 0.017204 0.043467
v -0.007832 0.017204 0.059487
v 0.007832 0.017204 -0.059487
v 0.000000 0.017204 -0.060000
v -0.000000 0.017204 0.060000
v -0.015529 0.017204 0.057956
v 0.015529 0.017204 -0.057956
v -0.015529 0.017204 -0.057956
v 0.015529 0.017204 0.057956
v -0.007832 0.017204 -0.059487
v 0.007832 0.017204 0.059487
v -0.007832 0.017204 -0.037179
v -0.007832 0.017204 0.037179
v 0.015529 0.017204 -0.043467
v 0.007832 0.017204 -0.037179
v 0.015529 0.017204 0.043467
v 0.007832 0.017204 0.037179
v 0.000000 0.028179 -0.060000
v 0.007832 0.028179 -0.059487
v -0.007832 0.028179 0.059487
v -0.000000 0.028179 0.060000
v 0.015529 0.028179 -0.057956
v -0.015529 0.028179 0.057956
v 0.015529 0.028179 0.057956
v 0.007832 0.028179 0.059487
v -0.015529 0.028179 -0.057956
v -0.007832 0.028179 -0.059487
v 0.015529 0.028179 0.043467
v -0.015529 0.028179 -0.043467
v -0.015529 0.028179 0.043467
v -0.007832 0.028179 -0.037179
v -0.007832 0.028179 0.037179
v 0.015529 0.028179 -0.043467
v 0.007832 0.028179 -0.037179
v 0.007832 0.028179 0.037179
v -0.007832 0.023204 0.037179
v -0.007832 0.023204 -0.037179
v 0.007832 0.023204 -0.037179
v 0.007832 0.023204 0.037179
vn -0.0000 -1.0000 -0.0000
vn -0.6326 -0.0000 0.7745
vn -0.1951 -0.0000 -0.9808
vn 0.6326 -0.0000 0.7745
vn 0.7073 0.6222 0.3355
vn 0.6250 0.5884 -0.5130
vn 0.0941 0.6927 -0.7151
vn 0.5205 0.8174 0.2469
vn -0.5205 0.8174 0.2469
vn -0.0941 0.6927 -0.7151
vn -0.6250 0.5884 -0.5130
vn -0.7073 0.6222 0.3355
vn -0.0000 0.6927 -0.7212
vn -0.5205 0.8174 -0.2469
vn -0.0941 0.6927 0.7151
vn -0.0000 0.6927 0.7212
vn 0.0941 0.6927 0.7151
vn 0.5205 0.8174 -0.2469
vn -0.7073 0.6222 -0.3355
vn -0.6250 0.5884 0.5130
vn 0.6250 0.5884 0.5130
vn 0.7073 0.6222 -0.3355
vn 0.6326 -0.0000 -0.7745
vn 0.0654 -0.0000 -0.9979
vn 0.0654 -0.0000 0.9979
vn -0.6326 -0.0000 -0.7745
vn 1.0000 -0.0000 -0.0000
vn -1.0000 -0.0000 -0.0000
vn 0.1951 -0.0000 -0.9808
vn 0.1951 -0.0000 0.9808
vn -0.0654 -0.0000 -0.9979
vn -0.1951 -0.0000 0.9808
vn -0.0654 -0.0000 0.9979
vn -0.0000 -0.0000 1.0000
vn -0.0000 -0.0000 -1.0000
vt 0.324130 0.120726
vt 0.000000 0.000000
vt 0.000000 0.000000
vt 0.324130 0.841699
vt 0.000000 0.000000
vt 0.223607 0.973242
vt 0.000000 0.000000
vt 0.000000 0.000000
vt 0.000000 0.000000
vt 0.161421 0.990413
vt 0.000000 0.000000
vt 0.280237 0.936365
vt 0.000000 0.000000
vt 0.000000 0.000000
vt 0.000000 0.000000
vt 0.035590 0.999943
vt 0.000000 0.000000
vt 0.000000 0.000000
vt 0.098490 0.997976
vt 0.301449 0.192900
vt 0.000000 0.000000
vt 0.000000 0.000000
vt 0.000057 0.232763
vt 0.000000 0.000000
vt 0.063273 0.260088
vt 0.000000 0.000000
vt 0.000000 0.000000
vt 0.000000 0.000000
vt 0.102413 0.023345
vt 0.000000 0.000000
vt 0.051187 0.041602
vt 0.000000 0.000000
vt 0.193710 0.900761
vt 0.144808 0.909835
vt 0.002782 0.066389
vt 0.000000 0.000000
vt 0.232266 0.891812
vt 0.000000 0.000000
vt 0.034829 0.912044
vt 0.091611 0.914276
vt 0.207206 0.000057
vt 0.000000 0.000000
vt 0.152469 0.009730
vt 0.000000 0.000000
vt 0.026613 0.804733
vt 0.000000 0.000000
vt 0.244435 0.095682
vt 0.000000 0.000000
vt 0.000000 0.000000
vt 0.252425 0.808451
vt 0.214352 0.171525
vt 0.000000 0.000000
vt 0.200325 0.757517
vt 0.030229 0.162959
vt 0.000000 0.000000
vt 0.093445 0.190284
vt 0.000000 0.000000
vt 0.081376 0.754975
vt 0.000000 0.000000
vt 0.000000 0.000000
vt 0.234191 0.758733
vt 0.253833 0.181214
vt 0.000000 0.000000
vt 0.301449 0.192900
vt 0.079768 0.221926
vt 0.000000 0.000000
vt 0.000000 0.000000
s 0
usemtl Material
f 14/22/1 18/28/1 17/27/1 10/15/1 12/18/1 6/9/1 3/5/1 7/11/1 2/3/1
f 1/1/2 13/20/2 38/62/2 32/51/2 30/47/2
f 11/17/3 9/14/3 27/42/3 28/44/3
f 16/25/4 15/23/4 34/54/4 35/56/4 39/65/4
s 1
f 34/54/5 23/35/6 20/31/7 35/56/8
f 32/51/9 28/43/10 27/41/11 30/47/12
f 20/31/7 19/29/13 28/43/10 32/51/9 33/53/14 21/33/15 22/34/16 26/40/17 36/58/18 35/56/8
f 31/50/19 24/37/20 21/33/15 33/53/14
f 36/58/18 26/40/17 25/39/21 29/45/22
s 0
f 17/27/23 18/28/23 40/67/23 36/59/23 29/46/23
f 4/7/24 5/8/24 19/30/24 20/32/24
f 6/10/25 12/19/25 26/40/25 22/34/25
f 14/22/26 2/3/26 31/49/26 33/52/26 37/60/26
f 10/15/27 17/27/27 29/46/27 25/38/27
f 15/24/27 8/13/27 23/36/27 34/55/27
f 9/14/28 1/2/28 30/48/28 27/42/28
f 2/4/28 7/12/28 24/37/28 31/50/28
f 8/13/29 4/7/29 20/32/29 23/36/29
f 12/19/30 10/16/30 25/39/30 26/40/30
f 5/8/31 11/17/31 28/44/31 19/30/31
f 7/12/32 3/6/32 21/33/32 24/37/32
f 3/6/33 6/10/33 22/34/33 21/33/33
f 13/21/34 16/26/34 39/66/34 38/63/34
f 4/7/1 8/13/1 15/24/1 16/26/1 13/21/1 1/2/1 9/14/1 11/17/1 5/8/1
f 38/63/1 39/66/1 40/67/1 37/60/1
f 18/28/35 14/22/35 37/60/35 40/67/35
f 37/61/28 33/53/28 32/51/28 38/64/28
f 39/66/27 35/57/27 36/59/27 40/67/27
