# Blender v2.91.0 OBJ File: 'doorhandle.blend'
# www.blender.org
mtllib doorhandle.mtl.mtl
o Cube
v -0.015529 0.017204 -0.043467
v -0.015529 0.017204 0.043467
v -0.007832 0.017204 0.059487
v 0.007832 0.017204 -0.059487
v 0.000000 0.017204 -0.060000
v -0.000000 0.017204 0.060000
v -0.015529 0.017204 0.057956
v 0.015529 0.017204 -0.057956
v -0.015529 0.017204 -0.057956
v 0.015529 0.017204 0.057956
v -0.007832 0.017204 -0.059487
v 0.007832 0.017204 0.059487
v -0.007832 0.017204 -0.037179
v -0.007832 0.017204 0.037179
v 0.015529 0.017204 -0.043467
v 0.007832 0.017204 -0.037179
v 0.015529 0.017204 0.043467
v 0.007832 0.017204 0.037179
v 0.000000 0.028179 -0.060000
v 0.007832 0.028179 -0.059487
v -0.007832 0.028179 0.059487
v -0.000000 0.028179 0.060000
v 0.015529 0.028179 -0.057956
v -0.015529 0.028179 0.057956
v 0.015529 0.028179 0.057956
v 0.007832 0.028179 0.059487
v -0.015529 0.028179 -0.057956
v -0.007832 0.028179 -0.059487
v 0.015529 0.028179 0.043467
v -0.015529 0.028179 -0.043467
v -0.015529 0.028179 0.043467
v -0.007832 0.028179 -0.037179
v -0.007832 0.028179 0.037179
v 0.015529 0.028179 -0.043467
v 0.007832 0.028179 -0.037179
v 0.007832 0.028179 0.037179
vt 0.000000 0.000000
vt 0.000000 0.000000
vt 0.000000 0.000000
vt 0.000000 0.000000
vt 0.000000 0.000000
vt 0.000000 0.000000
vt 0.000000 0.000000
vt 0.000000 0.000000
vt 0.000000 0.000000
vt 0.000000 0.000000
vt 0.000000 0.000000
vt 0.000000 0.000000
vt 0.000000 0.000000
vt 0.000000 0.000000
vt 0.000000 0.000000
vt 0.000000 0.000000
vt 0.000000 0.000000
vt 0.000000 0.000000
vt 0.324130 0.120726
vt 0.301449 0.192900
vt 0.214352 0.171525
vt 0.244435 0.095682
vt 0.000000 0.000000
vt 0.000000 0.000000
vt 0.063273 0.260088
vt 0.000057 0.232763
vt 0.030229 0.162959
vt 0.093445 0.190284
vt 0.275036 0.760200
vt 0.200325 0.757517
vt 0.000000 0.000000
vt 0.000000 0.000000
vt 0.000000 0.000000
vt 0.000000 0.000000
vt 0.000000 0.000000
vt 0.161421 0.990413
vt 0.098490 0.997976
vt 0.091611 0.914276
vt 0.144808 0.909835
vt 0.000000 0.000000
vt 0.000000 0.000000
vt 0.000000 0.000000
vt 0.000000 0.000000
vt 0.000000 0.000000
vt 0.000000 0.000000
vt 0.324130 0.841699
vt 0.280237 0.936365
vt 0.232266 0.891812
vt 0.252425 0.808451
vt 0.035590 0.999943
vt 0.034829 0.912044
vt 0.223607 0.973242
vt 0.193710 0.900761
vt 0.002782 0.066389
vt 0.051187 0.041602
vt 0.152469 0.009730
vt 0.207206 0.000057
vt 0.102413 0.023345
vt 0.081376 0.754975
vt 0.026613 0.804733
vn 0.0000 -1.0000 0.0000
vn -0.6326 0.0000 0.7745
vn -0.1951 0.0000 -0.9808
vn 0.6326 0.0000 0.7745
vn -1.0000 0.0000 -0.0000
vn 1.0000 0.0000 0.0000
vn 0.6326 0.0000 -0.7745
vn 0.0654 0.0000 -0.9979
vn 0.0654 0.0000 0.9979
vn -0.6326 0.0000 -0.7745
vn 0.1951 0.0000 -0.9808
vn 0.1951 0.0000 0.9808
vn -0.0654 0.0000 -0.9979
vn -0.1951 0.0000 0.9808
vn -0.0654 0.0000 0.9979
vn 0.7073 0.6222 0.3355
vn 0.6250 0.5884 -0.5130
vn 0.0941 0.6926 -0.7150
vn 0.5205 0.8174 0.2469
vn -0.5205 0.8174 0.2469
vn -0.0941 0.6926 -0.7150
vn -0.6250 0.5884 -0.5130
vn -0.7073 0.6222 0.3355
vn 0.0000 0.6926 -0.7212
vn -0.5205 0.8174 -0.2469
vn -0.0941 0.6926 0.7150
vn 0.0000 0.6926 0.7212
vn 0.0941 0.6926 0.7150
vn 0.5205 0.8174 -0.2469
vn -0.7073 0.6222 -0.3355
vn -0.6250 0.5884 0.5130
vn 0.6250 0.5884 0.5130
vn 0.7073 0.6222 -0.3355
usemtl Material
s off
f 4/1/1 8/2/1 15/3/1 16/4/1 18/5/1 17/6/1 10/7/1 12/8/1 6/9/1 3/10/1 7/11/1 2/12/1 14/13/1 13/14/1 1/15/1 9/16/1 11/17/1 5/18/1
f 1/19/2 13/20/2 32/21/2 30/22/2
f 11/17/3 9/16/3 27/23/3 28/24/3
f 16/25/4 15/26/4 34/27/4 35/28/4
f 13/20/5 14/29/5 33/30/5 32/21/5
f 18/5/6 16/4/6 35/31/6 36/32/6
f 17/6/7 18/5/7 36/32/7 29/33/7
f 4/1/8 5/18/8 19/34/8 20/35/8
f 6/36/9 12/37/9 26/38/9 22/39/9
f 14/13/10 2/12/10 31/40/10 33/41/10
f 10/7/6 17/6/6 29/33/6 25/42/6
f 15/3/6 8/2/6 23/43/6 34/44/6
f 9/16/5 1/15/5 30/45/5 27/23/5
f 2/46/5 7/47/5 24/48/5 31/49/5
f 8/2/11 4/1/11 20/35/11 23/43/11
f 12/37/12 10/50/12 25/51/12 26/38/12
f 5/18/13 11/17/13 28/24/13 19/34/13
f 7/47/14 3/52/14 21/53/14 24/48/14
f 3/52/15 6/36/15 22/39/15 21/53/15
s 1
f 34/27/16 23/54/17 20/55/18 35/28/19
f 32/21/20 28/56/21 27/57/22 30/22/23
f 20/55/18 19/58/24 28/56/21 32/21/20 33/30/25 21/53/26 22/39/27 26/38/28 36/59/29 35/28/19
f 31/49/30 24/48/31 21/53/26 33/30/25
f 36/59/29 26/38/28 25/51/32 29/60/33
