# Blender v3.1.2 OBJ File: 'WallZero.blend'
# www.blender.org
mtllib pipe_zero.mtl
o Pipe_default_Cylinder.004
v -0.275000 0.000877 -0.009859
v 0.275000 0.000877 -0.009859
v -0.275000 -0.009738 0.002352
v 0.275000 -0.009738 0.002352
v -0.275000 -0.006555 0.007650
v 0.275000 -0.006555 0.007650
v -0.275000 -0.000866 0.010065
v 0.275000 -0.000866 0.010065
v -0.275000 0.005156 0.008674
v 0.275000 0.005156 0.008674
v -0.275000 0.009211 0.004010
v 0.275000 0.009211 0.004010
v -0.275000 0.009749 -0.002147
v 0.275000 0.009749 -0.002147
v -0.275000 0.006566 -0.007444
v 0.275000 0.006566 -0.007444
v -0.280479 0.001348 -0.007464
v -0.285567 -0.009249 0.003655
v -0.291747 -0.009170 0.003682
v -0.296725 -0.006589 0.001084
v -0.298601 -0.002492 -0.003147
v -0.296658 0.001555 -0.007394
v -0.291637 0.004008 -0.010035
v -0.285457 0.003928 -0.010062
vt 0.700000 0.500000
vt 0.700000 1.000000
vt 0.600000 1.000000
vt 0.600000 0.500000
vt 0.500000 1.000000
vt 0.500000 0.500000
vt 0.400000 1.000000
vt 0.400000 0.500000
vt 0.300000 1.000000
vt 0.300000 0.500000
vt 0.200000 1.000000
vt 0.200000 0.500000
vt 0.100000 1.000000
vt 0.100000 0.500000
vt -0.000000 1.000000
vt -0.000000 0.500000
vt 0.200000 0.500000
vt 0.300000 0.500000
vt 0.400000 0.500000
vt 0.500000 0.500000
vt 0.600000 0.500000
vt 0.700000 0.500000
vt -0.000000 0.500000
vt 0.100000 0.500000
vn 0.0065 -0.8516 0.5241
vn -0.0000 -0.8572 0.5150
vn -0.0000 -0.6561 0.7547
vn -0.0866 -0.5797 0.8102
vn 0.0000 -0.0872 0.9962
vn -0.2063 0.0310 0.9780
vn 0.0000 0.5150 0.8572
vn -0.2489 0.5469 0.7994
vn 0.0000 0.9205 0.3907
vn -0.2295 0.8923 0.3886
vn 0.0000 0.9744 -0.2250
vn -0.1351 0.9736 -0.1838
vn 0.0000 0.6561 -0.7547
vn -0.0101 0.6107 -0.7918
vn 0.0000 0.3907 -0.9205
vn 0.0074 0.2094 -0.9778
vn -0.3235 0.9459 -0.0271
vn -0.4700 0.7937 0.3861
vn -0.5010 0.5529 0.6659
vn -0.4395 0.2346 0.8670
vn -0.2642 -0.2304 0.9365
vn 0.0137 -0.8454 0.5339
vn 0.0157 -0.0127 -0.9998
vn -0.0320 0.7137 -0.6997
usemtl WallMain
s 1
f 3/1/1 4/2/2 6/3/3 5/4/4
f 5/4/4 6/3/3 8/5/5 7/6/6
f 7/6/6 8/5/5 10/7/7 9/8/8
f 9/8/8 10/7/7 12/9/9 11/10/10
f 11/10/10 12/9/9 14/11/11 13/12/12
f 13/12/12 14/11/11 16/13/13 15/14/14
f 15/14/14 16/13/13 2/15/15 1/16/16
f 11/10/10 13/12/12 23/17/17 22/18/18
f 9/8/8 11/10/10 22/18/18 21/19/19
f 7/6/6 9/8/8 21/19/19 20/20/20
f 5/4/4 7/6/6 20/20/20 19/21/21
f 3/1/1 5/4/4 19/21/21 18/22/22
f 15/14/14 1/16/16 17/23/23 24/24/24
f 13/12/12 15/14/14 24/24/24 23/17/17
