# Blender v3.2.1 OBJ File: 'WallZero.blend'
# www.blender.org
mtllib WallZero_low.mtl
o Wall_verylow_Cube.017
v -1.240000 -0.090000 -1.240000
v -1.240000 -0.090000 1.240000
v 1.240000 -0.090000 -1.240000
v 1.240000 -0.090000 1.240000
v -1.000000 0.150192 1.000000
v -1.000000 0.150192 -1.000000
v 1.000000 0.150192 -1.000000
v 1.000000 0.150192 1.000000
v 0.000000 -0.083848 -0.199806
v -0.141284 -0.083848 -0.141284
v -0.199806 -0.083848 -0.000000
v -0.141284 -0.083848 0.141284
v 0.000000 -0.083848 0.199806
v 0.141285 -0.083848 0.141284
v 0.199806 -0.083848 -0.000000
v 0.141284 -0.083848 -0.141285
v -1.240000 -0.090000 0.000000
v 0.000000 -0.090000 -1.240000
v 1.240000 -0.090000 0.000000
v 0.000000 -0.090000 1.240000
v -0.280000 0.150000 0.000000
v 0.000000 0.150000 -0.280000
v -0.280000 0.150000 -0.280000
v 0.280000 0.150000 0.000000
v 0.280000 0.150000 -0.280000
v 0.000000 0.150000 0.280000
v 0.280000 0.150000 0.280000
v 0.320000 0.150000 0.280000
v -0.280000 0.150000 0.280000
v -0.280000 0.150000 0.320000
v -0.300000 0.150000 0.280000
v -0.320000 0.150000 0.280000
v 0.320000 0.150000 -0.280000
v 0.280000 0.150000 0.300000
v 0.300000 0.150000 0.280000
v -0.280000 0.150000 0.300000
v 0.280000 0.150000 0.320000
v 0.300000 0.150000 -0.280000
v 0.280000 0.150000 -0.320000
v 0.280000 0.150000 -0.300000
v -0.280000 0.150000 -0.320000
v -0.280000 0.150000 -0.300000
v -0.300000 0.150000 -0.280000
v -0.320000 0.150000 -0.280000
v -0.950000 0.200096 0.950000
v -0.950000 0.200096 -0.950000
v 0.950000 0.200096 -0.950000
v 0.950000 0.200096 0.950000
v 0.141284 0.058301 -0.141285
v 0.000000 0.058301 0.199806
v -0.141284 0.058301 -0.141284
v 0.141285 0.058301 0.141284
v -0.199806 0.058301 -0.000000
v 0.199806 0.058301 -0.000000
v -0.141284 0.058301 0.141284
v 0.000000 0.058301 -0.199806
v 0.141284 -0.062447 -0.141285
v 0.000000 -0.062447 0.199806
v -0.141284 -0.062447 -0.141284
v 0.141285 -0.062447 0.141284
v -0.199806 -0.062447 -0.000000
v 0.199806 -0.062447 -0.000000
v -0.141284 -0.062447 0.141284
v 0.000000 -0.062447 -0.199806
v -0.320279 0.200096 0.950000
v 0.320000 0.200096 0.950000
v 0.950000 0.200096 0.320349
v 0.950000 0.200096 -0.320489
v 0.320000 0.200096 -0.950000
v -0.320000 0.200096 -0.950000
v -0.950000 0.200096 -0.319608
v -0.950000 0.200096 0.319512
v 0.950000 0.200096 0.900000
v 0.900000 0.200096 0.950000
v 0.899998 0.250000 0.899998
v 0.949998 0.200096 0.949998
v 0.899998 0.200096 0.949998
v 0.949998 0.200096 0.899998
v 0.900000 0.200096 -0.950000
v 0.950000 0.200096 -0.900000
v -0.900000 0.200096 -0.950000
v -0.950000 0.200096 -0.900000
v -0.900000 0.200096 0.950000
v -0.950000 0.200096 0.900000
v -0.949997 0.200096 0.950003
v -0.899997 0.250000 0.900003
v -0.899997 0.250000 -0.899997
v -0.949997 0.200096 -0.949997
v 0.900003 0.250000 -0.899997
v 0.950003 0.200096 -0.949997
v 0.950003 0.200096 -0.899997
v -0.899997 0.200096 -0.949997
v -0.949997 0.200096 0.900003
v 0.900003 0.200096 -0.949997
v -0.949997 0.200096 -0.899997
v -0.899997 0.200096 0.950003
v -0.280000 0.200096 -0.950000
v -0.950000 0.200096 0.280000
v 0.280000 0.200096 -0.950000
v -0.950000 0.200096 -0.280000
v -0.280000 0.200096 0.950000
v 0.279990 0.200096 0.950000
v 0.950000 0.200096 0.280000
v 0.950000 0.200096 -0.280000
v -0.320000 0.150000 -0.900000
v 0.900000 0.150000 -0.320140
v 0.900000 0.150000 0.320000
v 0.320000 0.150000 0.900000
v 0.300000 0.150000 -0.900000
v 0.280000 0.150000 -0.900000
v -0.900000 0.150000 0.320000
v -0.320000 0.150000 0.900000
v 0.900000 0.150000 -0.900000
v 0.320000 0.150000 -0.900000
v -0.900000 0.150000 -0.900000
v -0.900000 0.150000 -0.319888
v 0.900000 0.150000 -0.280000
v 0.880000 0.150000 -0.280000
v 0.880000 0.150000 0.280000
v 0.900000 0.150000 0.300000
v 0.900000 0.150000 0.280000
v -0.912500 0.162524 0.280000
v -0.912500 0.162524 -0.280000
v 0.280000 0.162524 -0.912500
v -0.280000 0.162524 -0.912500
v 0.280000 0.150000 -0.880000
v 0.300000 0.150000 0.900000
v -0.280000 0.150000 0.880000
v -0.300000 0.150000 -0.900000
v 0.279990 0.150000 0.900000
v 0.279990 0.150000 0.879990
v 0.900000 0.150000 -0.300000
v -0.900000 0.150000 0.900000
v -0.030000 -0.049000 0.200354
v -0.030000 -0.024000 0.200354
v -0.030000 -0.049000 0.193521
v -0.030000 -0.024000 0.193521
v 0.030000 -0.049000 0.200354
v 0.030000 -0.024000 0.200354
v 0.030000 -0.049000 0.193521
v 0.030000 -0.024000 0.193521
v -0.300000 0.150000 0.900000
v -0.280000 0.150000 0.900000
v -0.880000 0.150000 -0.280000
v -0.880000 0.150000 0.280000
v -0.900000 0.150000 0.280000
v -0.900000 0.150000 0.300000
v -0.900000 0.150000 -0.300000
v -0.900000 0.150000 -0.280000
v -0.280000 0.150000 -0.880000
v -0.280000 0.150000 -0.900000
v 0.900000 0.150000 0.900000
v -0.000000 0.150000 -0.260097
v -0.183916 0.150000 -0.183916
v -0.260097 0.150000 -0.000000
v -0.183916 0.150000 0.183916
v 0.000000 0.150000 0.260097
v 0.183916 0.150000 0.183916
v 0.260097 0.150000 -0.000000
v 0.183916 0.150000 -0.183916
v 0.000000 0.150000 -0.240000
v -0.169706 0.150000 -0.169706
v -0.240000 0.150000 -0.000000
v -0.169706 0.150000 0.169706
v 0.000000 0.150000 0.240000
v 0.169706 0.150000 0.169706
v 0.240000 0.150000 -0.000000
v 0.169705 0.150000 -0.169706
v 0.000000 0.150000 -0.199806
v -0.141284 0.150000 -0.141284
v -0.199806 0.150000 -0.000000
v -0.141284 0.150000 0.141284
v 0.000000 0.150000 0.199806
v 0.141285 0.150000 0.141284
v 0.199806 0.150000 -0.000000
v 0.141284 0.150000 -0.141285
vt 0.499962 0.398696
vt 0.499962 0.390670
vt 0.612865 0.390670
vt 0.612865 0.503573
vt 0.604839 0.503574
vt 0.574121 0.429414
vt 0.395084 0.503573
vt 0.387058 0.503573
vt 0.387058 0.390670
vt 0.425802 0.429414
vt 0.499962 0.608451
vt 0.499962 0.616477
vt 0.387058 0.616477
vt 0.425802 0.577733
vt 0.612865 0.616477
vt 0.574121 0.577733
vt 0.999962 0.503573
vt 0.580529 0.503574
vt 0.556931 0.560543
vt 0.999962 1.003573
vt 0.556931 0.446604
vt 0.999962 0.003573
vt 0.499962 0.003573
vt 0.499962 0.423006
vt 0.442992 0.446604
vt -0.000038 0.003573
vt -0.000038 0.503573
vt 0.419395 0.503573
vt 0.442992 0.560543
vt -0.000038 1.003573
vt 0.499962 1.003573
vt 0.499962 0.584141
vt 0.387058 0.382606
vt 0.387058 0.374541
vt 0.387058 0.148735
vt 0.387058 0.140670
vt 0.612861 0.140670
vt 0.612861 0.148739
vt 0.612865 0.374541
vt 0.612865 0.382606
vt 0.140670 0.514869
vt 0.374541 0.514869
vt 0.382606 0.514869
vt 0.390670 0.514869
vt 0.390670 0.519919
vt 0.390670 0.535069
vt 0.374738 0.535069
vt 0.140670 0.535069
vt 0.628994 0.140670
vt 0.862865 0.140670
vt 0.862865 0.374541
vt 0.862865 0.382606
vt 0.862865 0.390670
vt 0.854800 0.390670
vt 0.628994 0.390670
vt 0.620929 0.390670
vt 0.620929 0.140670
vt 0.612865 0.632606
vt 0.612865 0.858412
vt 0.612865 0.866477
vt 0.387058 0.866477
vt 0.387058 0.858412
vt 0.387058 0.632606
vt 0.387058 0.624541
vt 0.612865 0.624541
vt 0.370929 0.514869
vt 0.137058 0.514869
vt 0.137058 0.535069
vt 0.370817 0.535069
vt 0.387058 0.535069
vt 0.387058 0.514869
vt 0.378994 0.514869
vt 0.374541 0.514869
vt 0.140670 0.514869
vt 0.140670 0.535069
vt 0.374400 0.535069
vt 0.390670 0.535069
vt 0.390670 0.514869
vt 0.382606 0.514869
vt 0.387058 0.519919
vt 0.387058 0.514869
vt 0.612865 0.514869
vt 0.612865 0.519919
vt 0.612865 0.535069
vt 0.387058 0.535069
vt 0.616477 0.514869
vt 0.616477 0.519919
vt 0.616477 0.535069
vt 0.442992 0.446604
vt 0.419395 0.503573
vt 0.403188 0.503573
vt 0.431532 0.435144
vt 0.568391 0.435144
vt 0.556931 0.446604
vt 0.499962 0.423006
vt 0.499962 0.406799
vt 0.499962 0.477893
vt 0.499962 0.514869
vt 0.556931 0.514869
vt 0.556931 0.477893
vt 0.556931 0.429205
vt 0.556931 0.420575
vt 0.499962 0.420575
vt 0.499962 0.429205
vt 0.499962 0.420575
vt 0.499962 0.429205
vt 0.499962 0.477893
vt 0.499962 0.514869
vt 0.442992 0.514869
vt 0.442992 0.477893
vt 0.442992 0.429205
vt 0.442992 0.420575
vt 0.556931 0.420575
vt 0.556931 0.429205
vt 0.556931 0.477893
vt 0.556931 0.514869
vt 0.503573 0.420575
vt 0.503573 0.429205
vt 0.503573 0.477893
vt 0.503573 0.514869
vt 0.446604 0.514869
vt 0.446604 0.477893
vt 0.446604 0.429205
vt 0.446604 0.420575
vt 0.556931 0.560543
vt 0.580529 0.503574
vt 0.596736 0.503574
vt 0.568391 0.572003
vt 0.442992 0.420575
vt 0.442992 0.429205
vt 0.442992 0.477893
vt 0.442992 0.514869
vt 0.499962 0.600348
vt 0.499962 0.584141
vt 0.862865 0.514869
vt 0.628994 0.514869
vt 0.620929 0.514869
vt 0.612861 0.514869
vt 0.612861 0.535069
vt 0.628994 0.535069
vt 0.862865 0.535069
vt 0.866477 0.514869
vt 0.632662 0.514869
vt 0.624541 0.514869
vt 0.616477 0.514869
vt 0.616477 0.535069
vt 0.632803 0.535069
vt 0.866477 0.535069
vt 0.137058 0.514869
vt 0.370929 0.514869
vt 0.378994 0.514869
vt 0.370930 0.535069
vt 0.137058 0.535069
vt 0.883026 0.535069
vt 0.862864 0.555191
vt 0.883025 0.535069
vt 0.120509 0.535069
vt 0.120510 0.535069
vt 0.140671 0.555191
vt 0.862865 0.120509
vt 0.883026 0.120509
vt 0.883025 0.120510
vt 0.862864 0.120510
vt 0.883026 0.140670
vt 0.883025 0.140671
vt 0.116897 0.120509
vt 0.137058 0.120509
vt 0.137060 0.120508
vt 0.116899 0.120508
vt 0.886638 0.535069
vt 0.866475 0.555191
vt 0.886637 0.535069
vt 0.116897 0.535069
vt 0.116899 0.535069
vt 0.137060 0.555191
vt 0.137058 0.886638
vt 0.116897 0.886638
vt 0.116899 0.886637
vt 0.137060 0.886637
vt 0.116897 0.535069
vt 0.137060 0.555191
vt 0.116899 0.535069
vt 0.883026 0.886638
vt 0.862865 0.886638
vt 0.862866 0.886637
vt 0.883028 0.886637
vt 0.116897 0.140670
vt 0.116899 0.140669
vt 0.866477 0.514869
vt 0.886638 0.535069
vt 0.886637 0.535069
vt 0.866475 0.555191
vt 0.120509 0.535069
vt 0.140669 0.555191
vt 0.120508 0.535069
vt 0.116897 0.866477
vt 0.116899 0.866475
vt 0.883026 0.866477
vt 0.883028 0.866475
vt 0.862865 0.514869
vt 0.883026 0.535069
vt 0.883028 0.535069
vt 0.862866 0.555191
vt 0.628994 0.514869
vt 0.862865 0.535069
vt 0.628994 0.535069
vt 0.620930 0.514869
vt 0.632561 0.514869
vt 0.866477 0.535069
vt 0.632448 0.535069
vt 0.624541 0.514869
vt 0.137058 0.374541
vt 0.137058 0.140670
vt 0.370929 0.140670
vt 0.378994 0.140670
vt 0.378994 0.390670
vt 0.370929 0.390670
vt 0.145123 0.390670
vt 0.137058 0.390670
vt 0.137058 0.382606
vt 0.378994 0.616477
vt 0.370929 0.616477
vt 0.145123 0.616477
vt 0.137058 0.616477
vt 0.862865 0.616477
vt 0.854800 0.616477
vt 0.628994 0.616477
vt 0.620929 0.616477
vt 0.487865 0.434627
vt 0.487865 0.444708
vt 0.512058 0.444708
vt 0.512058 0.434627
vt 0.487865 0.425541
vt 0.512058 0.425541
vt 0.512058 0.422786
vt 0.487865 0.422786
vt 0.512058 0.425541
vt 0.487865 0.425541
vt 0.487865 0.422786
vt 0.512058 0.422786
vt 0.560543 0.420575
vt 0.560543 0.429205
vt 0.560543 0.477893
vt 0.560543 0.514869
vt 0.442992 0.560543
vt 0.431532 0.572003
vt 0.503574 0.429205
vt 0.503574 0.420575
vt 0.446604 0.420575
vt 0.446604 0.429205
vt 0.446604 0.477893
vt 0.446604 0.514869
vt 0.503574 0.514869
vt 0.503574 0.477893
vt 0.560543 0.514869
vt 0.560543 0.477893
vt 0.560543 0.429205
vt 0.560543 0.420575
vt 0.862865 0.632662
vt 0.862865 0.866477
vt 0.628994 0.866477
vt 0.620930 0.866477
vt 0.862865 0.624541
vt 0.370929 0.866477
vt 0.137058 0.866477
vt 0.137058 0.632561
vt 0.137058 0.624541
vt 0.378994 0.866477
vn 0.0000 1.0000 0.0000
vn -0.0056 -1.0000 0.0002
vn -0.0056 -1.0000 -0.0002
vn -0.0002 -1.0000 -0.0056
vn 0.0002 -1.0000 -0.0056
vn 0.0056 -1.0000 -0.0002
vn 0.0056 -1.0000 0.0002
vn 0.0002 -1.0000 0.0056
vn -0.0002 -1.0000 0.0056
vn 0.7078 0.7064 0.0000
vn 0.0000 0.7064 -0.7078
vn -0.7078 0.7064 0.0000
vn 0.0000 0.7064 0.7078
vn -0.3827 0.0000 -0.9239
vn 0.3827 0.0000 0.9239
vn -0.3827 0.0000 0.9239
vn 0.9239 0.0000 -0.3827
vn 0.3827 0.0000 -0.9239
vn 0.0000 -0.0000 -1.0000
vn -1.0000 -0.0000 0.0000
vn 0.0000 -1.0000 0.0000
vn -1.0000 0.0001 0.0000
vn 0.0000 0.0001 -1.0000
vn -0.0000 -0.0001 1.0000
vn 1.0000 -0.0001 -0.0000
vn 0.9239 0.0000 0.3827
vn -0.9239 0.0000 -0.3827
vn -0.9239 0.0000 0.3827
usemtl WallMain_low.002
s off
f 157/1/1 26/2/1 27/3/1 24/4/1 159/5/1 158/6/1
f 155/7/1 21/8/1 29/9/1 26/2/1 157/1/1 156/10/1
f 153/11/1 22/12/1 23/13/1 21/8/1 155/7/1 154/14/1
f 159/5/1 24/4/1 25/15/1 22/12/1 153/11/1 160/16/1
f 19/17/2 15/18/2 16/19/2 3/20/2
f 14/21/3 15/18/3 19/17/3 4/22/3
f 20/23/4 13/24/4 14/21/4 4/22/4
f 12/25/5 13/24/5 20/23/5 2/26/5
f 17/27/6 11/28/6 12/25/6 2/26/6
f 10/29/7 11/28/7 17/27/7 1/30/7
f 18/31/8 9/32/8 10/29/8 1/30/8
f 16/19/9 9/32/9 18/31/9 3/20/9
f 36/33/1 30/34/1 128/35/1 143/36/1 130/37/1 131/38/1 37/39/1 34/40/1 27/3/1 26/2/1 29/9/1
f 133/41/10 111/42/10 147/43/10 146/44/10 122/45/10 98/46/10 72/47/10 84/48/10
f 108/49/1 152/50/1 107/51/1 120/52/1 121/53/1 119/54/1 28/55/1 35/56/1 27/3/1 34/40/1 37/39/1 131/38/1 130/37/1 127/57/1
f 39/58/1 126/59/1 110/60/1 151/61/1 150/62/1 41/63/1 42/64/1 23/13/1 22/12/1 25/15/1 40/65/1
f 112/66/11 133/67/11 83/68/11 65/69/11 101/70/11 143/71/11 142/72/11
f 107/73/12 152/74/12 73/75/12 67/76/12 103/77/12 121/78/12 120/79/12
f 125/80/13 151/81/13 110/82/13 124/83/13 99/84/13 97/85/13
f 122/45/10 146/44/10 149/86/10 123/87/10 100/88/10 98/46/10
f 172/89/1 171/90/1 163/91/1 155/7/1 156/10/1 164/92/1
f 157/1/1 158/6/1 166/93/1 174/94/1 173/95/1 165/96/1
f 50/97/14 173/98/14 174/99/14 52/100/14 60/101/14 14/102/14 13/103/14 58/104/14
f 9/105/15 64/106/15 56/107/15 169/108/15 170/109/15 51/110/15 59/111/15 10/112/15
f 16/113/16 57/114/16 49/115/16 176/116/16 169/108/16 56/107/16 64/106/16 9/105/16
f 11/117/17 61/118/17 53/119/17 171/120/17 172/121/17 55/122/17 63/123/17 12/124/17
f 176/125/1 175/126/1 167/127/1 159/5/1 160/16/1 168/128/1
f 12/129/18 63/130/18 55/131/18 172/132/18 173/98/18 50/97/18 58/104/18 13/103/18
f 174/94/1 166/93/1 158/6/1 159/5/1 167/127/1 175/126/1
f 176/125/1 168/128/1 160/16/1 153/11/1 161/133/1 169/134/1
f 152/135/11 108/136/11 127/137/11 130/138/11 102/139/11 66/140/11 74/141/11
f 113/142/12 106/143/12 132/144/12 117/145/12 104/146/12 68/147/12 80/148/12
f 115/149/13 105/150/13 129/151/13 151/81/13 125/80/13 97/85/13 70/152/13 81/153/13
f 73/154/19 152/135/19 75/155/19 78/156/19
f 152/74/20 74/157/20 77/158/20 75/159/20
f 74/160/1 48/161/1 76/162/1 77/163/1
f 48/161/1 73/164/1 78/165/1 76/162/1
f 45/166/21 83/167/21 96/168/21 85/169/21
f 79/170/22 113/142/22 89/171/22 94/172/22
f 133/67/23 84/173/23 93/174/23 86/175/23
f 81/176/1 46/177/1 88/178/1 92/179/1
f 82/180/24 115/149/24 87/181/24 95/182/24
f 47/183/1 79/184/1 94/185/1 90/186/1
f 84/187/1 45/166/1 85/169/1 93/188/1
f 115/189/25 81/190/25 92/191/25 87/192/25
f 83/193/25 133/41/25 86/194/25 96/195/25
f 46/177/1 82/196/1 95/197/1 88/178/1
f 80/198/21 47/183/21 90/186/21 91/199/21
f 113/200/24 80/201/24 91/202/24 89/203/24
f 114/204/13 113/200/13 79/205/13 69/206/13 99/84/13 124/83/13 110/82/13 109/207/13
f 116/208/10 115/189/10 82/209/10 71/210/10 100/88/10 123/87/10 149/86/10 148/211/10
f 117/145/12 121/78/12 103/77/12 104/146/12
f 130/138/11 143/71/11 101/70/11 102/139/11
f 111/212/1 133/213/1 112/214/1 142/215/1 143/36/1 128/35/1 30/34/1 36/33/1 29/9/1 31/216/1 32/217/1 145/218/1 146/219/1 147/220/1
f 43/221/1 44/222/1 144/223/1 149/224/1 146/219/1 145/218/1 32/217/1 31/216/1 29/9/1 21/8/1 23/13/1
f 35/56/1 28/55/1 119/54/1 121/53/1 117/225/1 118/226/1 33/227/1 38/228/1 25/15/1 24/4/1 27/3/1
f 136/229/19 137/230/19 141/231/19 140/232/19
f 136/233/21 140/234/21 138/235/21 134/236/21
f 141/237/1 137/238/1 135/239/1 139/240/1
f 173/95/1 172/89/1 164/92/1 156/10/1 157/1/1 165/96/1
f 10/241/26 59/242/26 51/243/26 170/244/26 171/120/26 53/119/26 61/118/26 11/117/26
f 171/90/1 170/245/1 162/246/1 154/14/1 155/7/1 163/91/1
f 153/11/1 154/14/1 162/246/1 170/245/1 169/134/1 161/133/1
f 62/247/27 15/248/27 14/249/27 60/250/27 52/251/27 174/252/27 175/253/27 54/254/27
f 54/254/28 175/253/28 176/255/28 49/256/28 57/257/28 16/258/28 15/248/28 62/247/28
f 106/259/1 113/260/1 114/261/1 109/262/1 110/60/1 126/59/1 39/58/1 40/65/1 25/15/1 38/228/1 33/227/1 118/226/1 117/225/1 132/263/1
f 105/264/1 115/265/1 116/266/1 148/267/1 149/224/1 144/223/1 44/222/1 43/221/1 23/13/1 42/64/1 41/63/1 150/62/1 151/61/1 129/268/1
l 2 5
l 6 1
l 7 3
l 8 4
l 5 6
l 6 7
l 7 8
l 8 5
l 46 6
l 47 7
l 48 8
l 5 45
l 75 76
l 85 86
l 87 88
l 89 90
